{"glyphs":{"0":{"ha":793,"x_min":50,"x_max":743,"o":"m 743 496 q 658 111 743 236 q 396 -14 573 -14 q 137 115 224 -14 q 50 496 50 244 q 135 883 50 758 q 396 1007 220 1007 q 655 877 568 1007 q 743 496 743 747 m 258 496 q 290 234 258 313 q 396 155 321 155 q 502 235 469 155 q 534 496 534 315 q 502 758 534 678 q 396 838 469 838 q 290 758 322 838 q 258 496 258 678 z "},"1":{"ha":793,"x_min":82,"x_max":574,"o":"m 574 0 l 364 0 l 364 574 l 366 668 l 370 771 q 297 703 317 719 l 183 611 l 82 737 l 401 991 l 574 991 l 574 0 z "},"2":{"ha":793,"x_min":53,"x_max":749,"o":"m 749 0 l 56 0 l 56 146 l 304 397 q 449 554 415 511 q 498 635 483 598 q 513 713 513 673 q 480 802 513 772 q 392 831 447 831 q 280 804 334 831 q 167 729 226 778 l 53 864 q 174 952 126 926 q 279 992 222 978 q 407 1006 336 1006 q 571 972 500 1006 q 682 877 642 938 q 721 737 721 816 q 697 609 721 669 q 622 486 673 549 q 444 306 572 422 l 317 186 l 317 176 l 749 176 l 749 0 z "},"3":{"ha":793,"x_min":53,"x_max":739,"o":"m 710 770 q 654 612 710 677 q 496 522 597 547 l 496 518 q 677 445 616 503 q 739 289 739 387 q 635 66 739 146 q 339 -14 532 -14 q 53 40 178 -14 l 53 218 q 180 171 111 189 q 317 153 249 153 q 470 188 420 153 q 519 301 519 223 q 463 400 519 371 q 281 429 406 429 l 205 429 l 205 590 l 282 590 q 451 620 397 590 q 504 724 504 650 q 363 836 504 836 q 263 820 314 836 q 151 764 213 804 l 54 908 q 378 1006 190 1006 q 621 943 532 1006 q 710 770 710 881 z "},"4":{"ha":793,"x_min":24,"x_max":771,"o":"m 771 205 l 652 205 l 652 0 l 447 0 l 447 205 l 24 205 l 24 351 l 458 991 l 652 991 l 652 368 l 771 368 l 771 205 m 447 368 l 447 536 q 450 659 447 578 q 456 751 454 739 l 450 751 q 390 643 425 696 l 208 368 l 447 368 z "},"5":{"ha":793,"x_min":68,"x_max":730,"o":"m 416 633 q 645 553 560 633 q 730 332 730 472 q 628 76 730 165 q 335 -14 526 -14 q 68 40 170 -14 l 68 221 q 193 175 121 193 q 328 157 264 157 q 519 314 519 157 q 321 464 519 464 q 241 457 285 464 q 171 441 198 450 l 87 486 l 125 991 l 663 991 l 663 814 l 309 814 l 290 619 l 314 624 q 416 633 355 633 z "},"6":{"ha":793,"x_min":49,"x_max":749,"o":"m 49 421 q 173 859 49 715 q 546 1003 298 1003 q 679 993 631 1003 l 679 825 q 559 839 618 839 q 384 806 452 839 q 281 710 315 774 q 241 529 248 646 l 250 529 q 465 644 317 644 q 673 561 598 644 q 749 330 749 477 q 659 79 749 172 q 411 -14 570 -14 q 219 37 301 -14 q 93 186 138 88 q 49 421 49 283 m 407 154 q 510 199 474 154 q 546 328 546 244 q 512 442 546 400 q 411 484 479 484 q 302 442 347 484 q 257 346 257 401 q 299 210 257 265 q 407 154 342 154 z "},"7":{"ha":793,"x_min":37,"x_max":749,"o":"m 154 0 l 526 814 l 37 814 l 37 990 l 749 990 l 749 859 l 374 0 l 154 0 z "},"8":{"ha":793,"x_min":49,"x_max":745,"o":"m 397 1004 q 627 940 540 1004 q 714 765 714 875 q 672 630 714 689 q 536 524 630 570 q 696 399 648 464 q 745 257 745 334 q 649 61 745 135 q 397 -14 553 -14 q 142 56 235 -14 q 49 252 49 125 q 94 402 49 336 q 239 518 139 468 q 117 633 154 572 q 79 766 79 694 q 168 939 79 873 q 397 1004 256 1004 m 243 264 q 283 173 243 205 q 395 140 324 140 q 511 174 473 140 q 550 262 550 208 q 512 348 550 308 q 387 432 473 387 q 243 264 243 366 m 396 851 q 310 824 342 851 q 277 750 277 796 q 303 677 277 709 q 397 611 329 645 q 490 675 464 642 q 517 750 517 707 q 483 824 517 797 q 396 851 449 851 z "},"9":{"ha":793,"x_min":45,"x_max":745,"o":"m 745 568 q 621 131 745 275 q 248 -14 498 -14 q 114 -4 159 -14 l 114 164 q 233 150 171 150 q 406 181 338 150 q 510 278 474 212 q 551 460 546 344 l 543 460 q 452 370 504 396 q 323 345 401 345 q 119 428 194 345 q 45 659 45 511 q 135 910 45 818 q 382 1003 226 1003 q 574 951 492 1003 q 701 802 656 900 q 745 568 745 704 m 386 835 q 284 790 321 835 q 248 661 248 745 q 281 547 248 589 q 382 505 314 505 q 491 547 446 505 q 536 643 536 589 q 494 779 536 724 q 386 835 452 835 z "}," ":{"ha":361,"x_min":0,"x_max":0,"o":""},"!":{"ha":397,"x_min":79,"x_max":317,"o":"m 282 329 l 117 329 l 82 991 l 317 991 l 282 329 m 79 97 q 110 183 79 154 q 199 212 140 212 q 286 182 255 212 q 317 97 317 153 q 286 13 317 43 q 199 -18 254 -18 q 111 12 142 -18 q 79 97 79 42 z "},"\"":{"ha":656,"x_min":90,"x_max":566,"o":"m 279 991 l 252 633 l 118 633 l 90 991 l 279 991 m 566 991 l 538 633 l 404 633 l 376 991 l 566 991 z "},"#":{"ha":897,"x_min":31,"x_max":867,"o":"m 677 572 l 646 415 l 821 415 l 821 275 l 619 275 l 567 0 l 418 0 l 471 275 l 339 275 l 288 0 l 142 0 l 192 275 l 31 275 l 31 415 l 218 415 l 250 572 l 79 572 l 79 714 l 275 714 l 328 990 l 476 990 l 424 714 l 558 714 l 611 990 l 757 990 l 704 714 l 867 714 l 867 572 l 677 572 m 366 415 l 498 415 l 530 572 l 397 572 l 366 415 z "},"$":{"ha":793,"x_min":60,"x_max":741,"o":"m 741 310 q 663 137 741 202 q 444 58 585 71 l 444 -81 l 351 -81 l 351 56 q 61 114 186 59 l 61 293 q 203 241 120 264 q 351 215 286 219 l 351 425 l 306 443 q 116 558 172 496 q 60 711 60 620 q 137 873 60 810 q 351 950 214 937 l 351 1054 l 444 1054 l 444 953 q 725 890 600 946 l 661 732 q 444 785 555 775 l 444 585 q 632 496 576 534 q 714 414 688 459 q 741 310 741 370 m 536 300 q 513 348 536 328 q 444 389 490 368 l 444 220 q 536 300 536 235 m 264 711 q 284 662 264 682 q 351 623 305 643 l 351 782 q 264 711 264 769 z "},"%":{"ha":1251,"x_min":43,"x_max":1208,"o":"m 214 694 q 229 566 214 608 q 278 524 244 524 q 343 694 343 524 q 278 864 343 864 q 229 822 244 864 q 214 694 214 781 m 514 696 q 454 461 514 540 q 277 383 393 383 q 104 464 165 383 q 43 696 43 544 q 277 1006 43 1006 q 453 925 391 1006 q 514 696 514 845 m 981 991 l 431 0 l 268 0 l 818 991 l 981 991 m 908 298 q 923 170 908 212 q 972 127 939 127 q 1038 298 1038 127 q 972 468 1038 468 q 923 426 939 468 q 908 298 908 385 m 1208 300 q 1148 66 1208 144 q 971 -12 1088 -12 q 798 68 859 -12 q 737 300 737 149 q 971 610 737 610 q 1147 529 1086 610 q 1208 300 1208 449 z "},"&":{"ha":1042,"x_min":56,"x_max":1042,"o":"m 1042 0 l 786 0 l 708 77 q 415 -14 578 -14 q 153 62 250 -14 q 56 268 56 138 q 97 426 56 361 q 237 549 138 492 q 163 660 186 607 q 140 777 140 713 q 219 943 140 880 q 431 1006 298 1006 q 632 947 557 1006 q 708 790 708 888 q 661 643 708 709 q 510 515 614 576 l 703 328 q 786 532 751 407 l 1002 532 q 935 353 977 440 q 838 199 892 266 l 1042 0 m 273 288 q 317 195 273 229 q 429 160 361 160 q 583 201 515 160 l 358 425 q 296 363 319 395 q 273 288 273 330 m 517 768 q 492 825 517 804 q 429 846 468 846 q 358 824 384 846 q 332 762 332 802 q 396 631 332 703 q 486 695 454 663 q 517 768 517 726 z "},"'":{"ha":370,"x_min":90,"x_max":279,"o":"m 279 991 l 252 633 l 118 633 l 90 991 l 279 991 z "},"(":{"ha":471,"x_min":56,"x_max":429,"o":"m 56 380 q 108 717 56 560 q 260 991 161 873 l 429 991 q 285 704 334 861 q 236 382 236 547 q 286 61 236 216 q 428 -220 336 -94 l 260 -220 q 108 50 160 -104 q 56 380 56 203 z "},")":{"ha":471,"x_min":41,"x_max":415,"o":"m 415 380 q 362 48 415 202 q 211 -220 310 -106 l 43 -220 q 184 60 134 -95 q 235 382 235 215 q 186 704 235 547 q 41 991 137 861 l 211 991 q 363 716 311 873 q 415 380 415 559 z "},"*":{"ha":757,"x_min":43,"x_max":714,"o":"m 467 1055 l 439 806 l 692 876 l 714 705 l 484 689 l 635 488 l 481 406 l 375 618 l 282 407 l 122 488 l 272 689 l 43 707 l 69 876 l 317 806 l 289 1055 l 467 1055 z "},"+":{"ha":793,"x_min":60,"x_max":733,"o":"m 322 415 l 60 415 l 60 564 l 322 564 l 322 828 l 471 828 l 471 564 l 733 564 l 733 415 l 471 415 l 471 154 l 322 154 l 322 415 z "},",":{"ha":403,"x_min":43,"x_max":311,"o":"m 311 146 q 192 -179 276 9 l 43 -179 q 111 161 87 1 l 301 161 l 311 146 z "},"-":{"ha":447,"x_min":41,"x_max":406,"o":"m 41 288 l 41 457 l 406 457 l 406 288 l 41 288 z "},".":{"ha":396,"x_min":79,"x_max":317,"o":"m 79 97 q 110 183 79 154 q 199 212 140 212 q 286 182 255 212 q 317 97 317 153 q 286 13 317 43 q 199 -18 254 -18 q 111 12 142 -18 q 79 97 79 42 z "},"/":{"ha":574,"x_min":9,"x_max":567,"o":"m 567 991 l 197 0 l 9 0 l 379 991 l 567 991 z "},":":{"ha":396,"x_min":79,"x_max":317,"o":"m 79 97 q 110 183 79 154 q 199 212 140 212 q 286 182 255 212 q 317 97 317 153 q 286 13 317 43 q 199 -18 254 -18 q 111 12 142 -18 q 79 97 79 42 m 79 657 q 110 743 79 714 q 199 772 140 772 q 286 743 255 772 q 317 657 317 713 q 285 572 317 602 q 199 542 254 542 q 111 572 142 542 q 79 657 79 602 z "},";":{"ha":403,"x_min":43,"x_max":317,"o":"m 301 161 l 311 146 q 192 -179 276 9 l 43 -179 q 111 161 87 1 l 301 161 m 79 657 q 110 743 79 714 q 199 772 140 772 q 286 743 255 772 q 317 657 317 713 q 285 572 317 602 q 199 542 254 542 q 111 572 142 542 q 79 657 79 602 z "},"<":{"ha":793,"x_min":60,"x_max":733,"o":"m 733 138 l 60 435 l 60 532 l 733 868 l 733 705 l 269 490 l 733 300 l 733 138 z "},"=":{"ha":793,"x_min":60,"x_max":733,"o":"m 60 546 l 60 694 l 733 694 l 733 546 l 60 546 m 60 283 l 60 432 l 733 432 l 733 283 l 60 283 z "},">":{"ha":793,"x_min":60,"x_max":733,"o":"m 60 300 l 524 490 l 60 705 l 60 868 l 733 532 l 733 435 l 60 138 l 60 300 z "},"?":{"ha":663,"x_min":4,"x_max":629,"o":"m 187 329 l 187 379 q 215 492 187 444 q 317 595 243 541 q 411 677 388 646 q 433 749 433 709 q 401 816 433 793 q 310 839 368 839 q 78 772 208 839 l 4 921 q 325 1006 155 1006 q 547 939 465 1006 q 629 760 629 871 q 595 631 629 685 q 467 509 562 576 q 384 435 401 460 q 367 370 367 410 l 367 329 l 187 329 m 165 97 q 196 183 165 154 q 285 212 227 212 q 372 182 341 212 q 403 97 403 153 q 372 13 403 43 q 285 -18 340 -18 q 197 12 228 -18 q 165 97 165 42 z "},"@":{"ha":1246,"x_min":69,"x_max":1177,"o":"m 1177 510 q 1145 331 1177 412 q 1057 204 1114 250 q 925 158 1000 158 q 836 182 875 158 q 781 245 798 206 l 770 245 q 583 158 696 158 q 394 230 463 158 q 325 428 325 302 q 416 659 325 571 q 653 746 507 746 q 782 735 711 746 q 897 708 852 724 l 882 376 q 933 282 882 282 q 1002 346 977 282 q 1028 511 1028 409 q 983 704 1028 621 q 855 832 937 788 q 667 876 772 876 q 429 820 530 876 q 274 657 328 764 q 220 412 220 551 q 320 125 220 225 q 610 25 420 25 q 768 41 682 25 q 937 87 854 57 l 937 -43 q 615 -104 792 -104 q 213 31 357 -104 q 69 408 69 167 q 143 712 69 576 q 352 927 216 849 q 665 1004 488 1004 q 932 943 814 1004 q 1113 770 1049 882 q 1177 510 1177 657 m 482 425 q 599 282 482 282 q 692 325 660 282 q 730 465 724 368 l 739 615 q 661 623 705 623 q 529 570 576 623 q 482 425 482 517 z "},"A":{"ha":958,"x_min":0,"x_max":958,"o":"m 732 0 l 660 236 l 298 236 l 227 0 l 0 0 l 350 996 l 607 996 l 958 0 l 732 0 m 610 412 q 497 775 510 733 q 479 842 485 817 q 351 412 457 755 l 610 412 z "},"B":{"ha":933,"x_min":125,"x_max":860,"o":"m 125 991 l 433 991 q 740 931 644 991 q 835 741 835 871 q 793 595 835 652 q 682 526 751 538 l 682 519 q 818 441 777 498 q 860 288 860 383 q 762 76 860 152 q 496 0 664 0 l 125 0 l 125 991 m 335 599 l 457 599 q 581 625 543 599 q 619 713 619 652 q 577 794 619 770 q 446 819 536 819 l 335 819 l 335 599 m 335 432 l 335 174 l 472 174 q 600 207 559 174 q 642 309 642 240 q 465 432 642 432 l 335 432 z "},"C":{"ha":885,"x_min":81,"x_max":836,"o":"m 546 831 q 362 742 427 831 q 297 493 297 652 q 546 161 297 161 q 799 214 650 161 l 799 37 q 526 -14 677 -14 q 195 118 310 -14 q 81 494 81 249 q 137 765 81 649 q 299 944 193 882 q 546 1006 404 1006 q 836 936 690 1006 l 768 765 q 656 811 713 791 q 546 831 600 831 z "},"D":{"ha":1028,"x_min":125,"x_max":947,"o":"m 947 505 q 808 130 947 260 q 406 0 669 0 l 125 0 l 125 991 l 436 991 q 813 863 679 991 q 947 505 947 735 m 729 500 q 447 819 729 819 l 335 819 l 335 174 l 425 174 q 729 500 729 174 z "},"E":{"ha":778,"x_min":125,"x_max":696,"o":"m 696 0 l 125 0 l 125 991 l 696 991 l 696 819 l 335 819 l 335 602 l 671 602 l 671 429 l 335 429 l 335 174 l 696 174 l 696 0 z "},"F":{"ha":762,"x_min":125,"x_max":693,"o":"m 332 0 l 125 0 l 125 991 l 693 991 l 693 819 l 332 819 l 332 564 l 668 564 l 668 392 l 332 392 l 332 0 z "},"G":{"ha":1006,"x_min":81,"x_max":895,"o":"m 501 557 l 895 557 l 895 43 q 714 -1 799 12 q 542 -14 630 -14 q 199 118 317 -14 q 81 497 81 250 q 218 871 81 737 q 599 1006 355 1006 q 893 945 751 1006 l 823 777 q 597 831 715 831 q 379 739 461 831 q 297 493 297 648 q 363 247 297 332 q 555 161 429 161 q 689 175 621 161 l 689 382 l 501 382 l 501 557 z "},"H":{"ha":1063,"x_min":125,"x_max":937,"o":"m 937 0 l 728 0 l 728 428 l 335 428 l 335 0 l 125 0 l 125 991 l 335 991 l 335 603 l 728 603 l 728 991 l 937 991 l 937 0 z "},"J":{"ha":460,"x_min":-103,"x_max":335,"o":"m 21 -292 q -103 -277 -50 -292 l -103 -102 q -4 -115 -49 -115 q 95 -72 65 -115 q 125 62 125 -29 l 125 991 l 335 991 l 335 64 q 256 -201 335 -110 q 21 -292 176 -292 z "},"K":{"ha":922,"x_min":125,"x_max":922,"o":"m 922 0 l 684 0 l 424 418 l 335 354 l 335 0 l 125 0 l 125 991 l 335 991 l 335 538 l 418 654 l 686 991 l 920 991 l 574 553 l 922 0 z "},"L":{"ha":785,"x_min":125,"x_max":737,"o":"m 125 0 l 125 991 l 335 991 l 335 174 l 737 174 l 737 0 l 125 0 z "},"M":{"ha":1310,"x_min":125,"x_max":1185,"o":"m 545 0 l 306 778 l 300 778 q 313 461 313 541 l 313 0 l 125 0 l 125 991 l 411 991 l 646 233 l 650 233 l 899 991 l 1185 991 l 1185 0 l 989 0 l 989 469 q 990 546 989 503 q 999 777 991 589 l 993 777 l 737 0 l 545 0 z "},"N":{"ha":1129,"x_min":125,"x_max":1004,"o":"m 1004 0 l 737 0 l 306 750 l 300 750 q 313 467 313 551 l 313 0 l 125 0 l 125 991 l 390 991 l 821 249 l 825 249 q 815 522 815 442 l 815 991 l 1004 991 l 1004 0 z "},"O":{"ha":1105,"x_min":81,"x_max":1025,"o":"m 1025 497 q 903 119 1025 251 q 553 -14 781 -14 q 203 119 325 -14 q 81 498 81 251 q 203 877 81 746 q 554 1007 326 1007 q 904 876 783 1007 q 1025 497 1025 744 m 301 497 q 364 247 301 331 q 553 163 427 163 q 804 497 804 163 q 554 832 804 832 q 365 748 429 832 q 301 497 301 663 z "},"P":{"ha":872,"x_min":125,"x_max":810,"o":"m 335 525 l 404 525 q 549 563 501 525 q 597 675 597 602 q 557 784 597 749 q 431 819 517 819 l 335 819 l 335 525 m 810 682 q 710 437 810 522 q 425 353 610 353 l 335 353 l 335 0 l 125 0 l 125 991 l 441 991 q 716 914 622 991 q 810 682 810 836 z "},"Q":{"ha":1105,"x_min":81,"x_max":1025,"o":"m 1025 497 q 963 204 1025 322 q 781 31 901 85 l 1019 -236 l 750 -236 l 568 -14 l 553 -14 q 203 119 325 -14 q 81 498 81 251 q 203 877 81 746 q 554 1007 326 1007 q 904 876 783 1007 q 1025 497 1025 744 m 301 497 q 364 247 301 331 q 553 163 427 163 q 804 497 804 163 q 554 832 804 832 q 365 748 429 832 q 301 497 301 663 z "},"R":{"ha":917,"x_min":125,"x_max":917,"o":"m 335 551 l 403 551 q 550 585 503 551 q 597 689 597 618 q 549 789 597 760 q 399 819 500 819 l 335 819 l 335 551 m 335 380 l 335 0 l 125 0 l 125 991 l 414 991 q 713 918 616 991 q 810 694 810 844 q 762 539 810 607 q 625 432 713 471 q 917 0 849 98 l 684 0 l 447 380 l 335 380 z "},"S":{"ha":765,"x_min":64,"x_max":710,"o":"m 710 275 q 613 64 710 141 q 345 -14 517 -14 q 64 46 186 -14 l 64 241 q 234 178 164 197 q 361 160 303 160 q 467 186 430 160 q 504 265 504 213 q 488 317 504 294 q 440 361 471 340 q 311 428 408 382 q 175 510 220 471 q 102 602 130 549 q 75 724 75 654 q 164 930 75 855 q 411 1006 254 1006 q 558 987 488 1006 q 705 936 629 969 l 637 772 q 506 818 558 805 q 404 831 454 831 q 313 803 345 831 q 281 730 281 775 q 294 682 281 703 q 335 642 307 661 q 468 572 363 623 q 659 439 607 506 q 710 275 710 372 z "},"T":{"ha":804,"x_min":28,"x_max":777,"o":"m 507 0 l 297 0 l 297 817 l 28 817 l 28 991 l 777 991 l 777 817 l 507 817 l 507 0 z "},"U":{"ha":1050,"x_min":118,"x_max":932,"o":"m 932 991 l 932 350 q 883 157 932 240 q 741 31 833 75 q 521 -14 648 -14 q 224 84 330 -14 q 118 353 118 182 l 118 991 l 328 991 l 328 385 q 374 216 328 270 q 526 163 420 163 q 676 217 629 163 q 722 386 722 271 l 722 991 l 932 991 z "},"V":{"ha":903,"x_min":0,"x_max":903,"o":"m 690 991 l 903 991 l 566 0 l 336 0 l 0 991 l 212 991 l 399 401 q 431 280 414 349 q 452 183 448 210 q 503 401 459 245 l 690 991 z "},"W":{"ha":1343,"x_min":0,"x_max":1343,"o":"m 1090 0 l 851 0 l 717 521 q 691 636 709 549 q 671 753 673 723 q 650 635 667 716 q 625 519 634 554 l 492 0 l 253 0 l 0 991 l 207 991 l 334 450 q 382 191 367 300 q 400 310 386 229 q 428 436 415 391 l 572 991 l 771 991 l 916 436 q 939 322 925 399 q 961 191 954 245 q 983 322 968 243 q 1010 450 998 401 l 1136 991 l 1343 991 l 1090 0 z "},"X":{"ha":926,"x_min":0,"x_max":926,"o":"m 926 0 l 686 0 l 456 375 l 225 0 l 0 0 l 329 511 l 21 991 l 253 991 l 467 635 l 676 991 l 903 991 l 591 500 l 926 0 z "},"Y":{"ha":867,"x_min":0,"x_max":867,"o":"m 433 583 l 640 991 l 867 991 l 538 386 l 538 0 l 329 0 l 329 379 l 0 991 l 228 991 l 433 583 z "},"Z":{"ha":804,"x_min":33,"x_max":771,"o":"m 771 0 l 33 0 l 33 136 l 509 818 l 46 818 l 46 991 l 758 991 l 758 856 l 283 174 l 771 174 l 771 0 z "},"[":{"ha":460,"x_min":97,"x_max":425,"o":"m 425 -220 l 97 -220 l 97 991 l 425 991 l 425 848 l 273 848 l 273 -77 l 425 -77 l 425 -220 z "},"\\":{"ha":574,"x_min":8,"x_max":566,"o":"m 196 991 l 566 0 l 378 0 l 8 991 l 196 991 z "},"]":{"ha":460,"x_min":35,"x_max":363,"o":"m 35 -77 l 186 -77 l 186 848 l 35 848 l 35 991 l 363 991 l 363 -220 l 35 -220 l 35 -77 z "},"^":{"ha":739,"x_min":5,"x_max":736,"o":"m 5 353 l 302 997 l 400 997 l 736 353 l 574 353 l 355 789 l 165 353 l 5 353 z "},"_":{"ha":571,"x_min":-3,"x_max":574,"o":"m 574 -220 l -3 -220 l -3 -125 l 574 -125 l 574 -220 z "},"`":{"ha":843,"x_min":225,"x_max":616,"o":"m 479 842 q 354 938 437 871 q 225 1050 271 1005 l 225 1064 l 457 1064 q 616 860 500 996 l 616 842 l 479 842 z "},"a":{"ha":839,"x_min":58,"x_max":734,"o":"m 590 0 l 550 103 l 545 103 q 437 12 492 37 q 293 -14 382 -14 q 121 49 184 -14 q 58 227 58 111 q 143 405 58 347 q 397 468 227 462 l 529 472 l 529 505 q 411 621 529 621 q 197 566 320 621 l 129 705 q 419 774 260 774 q 653 707 572 774 q 734 505 734 641 l 734 0 l 590 0 m 529 351 l 449 349 q 315 316 359 346 q 271 225 271 286 q 371 138 271 138 q 486 179 443 138 q 529 289 529 220 l 529 351 z "},"b":{"ha":879,"x_min":109,"x_max":817,"o":"m 530 772 q 741 668 665 772 q 817 380 817 563 q 738 90 817 193 q 525 -14 660 -14 q 315 83 391 -14 l 301 83 l 267 0 l 109 0 l 109 1055 l 315 1055 l 315 810 q 307 660 315 763 l 315 660 q 530 772 388 772 m 464 607 q 352 560 387 607 q 315 404 317 513 l 315 382 q 352 207 315 260 q 467 154 388 154 q 568 213 530 154 q 606 383 606 271 q 568 551 606 495 q 464 607 530 607 z "},"c":{"ha":714,"x_min":62,"x_max":671,"o":"m 416 -14 q 62 375 62 -14 q 159 670 62 568 q 435 772 255 772 q 671 721 566 772 l 610 561 q 519 593 561 581 q 435 606 477 606 q 273 376 273 606 q 435 154 273 154 q 545 170 494 154 q 647 220 596 186 l 647 43 q 546 -1 597 11 q 416 -14 494 -14 z "},"d":{"ha":879,"x_min":62,"x_max":771,"o":"m 349 -14 q 139 90 215 -14 q 62 378 62 194 q 140 668 62 564 q 354 772 218 772 q 572 661 497 772 l 579 661 q 564 812 564 746 l 564 1055 l 771 1055 l 771 0 l 612 0 l 572 98 l 564 98 q 349 -14 493 -14 m 421 151 q 537 197 500 151 q 578 354 574 243 l 578 376 q 540 551 578 498 q 418 604 503 604 q 310 546 349 604 q 272 375 272 487 q 311 207 272 263 q 421 151 349 151 z "},"e":{"ha":821,"x_min":62,"x_max":761,"o":"m 422 625 q 319 584 357 625 q 277 465 282 542 l 567 465 q 527 584 566 542 q 422 625 488 625 m 452 -14 q 165 87 269 -14 q 62 374 62 189 q 158 668 62 564 q 421 772 253 772 q 671 681 582 772 q 761 428 761 589 l 761 328 l 272 328 q 324 190 275 239 q 461 140 373 140 q 591 155 530 140 q 718 200 652 169 l 718 40 q 602 0 664 13 q 452 -14 541 -14 z "},"f":{"ha":538,"x_min":28,"x_max":600,"o":"m 528 603 l 349 603 l 349 0 l 142 0 l 142 603 l 28 603 l 28 703 l 142 758 l 142 814 q 205 1003 142 943 q 410 1063 269 1063 q 600 1031 517 1063 l 547 879 q 432 899 485 899 q 368 872 388 899 q 349 806 349 846 l 349 758 l 528 758 l 528 603 z "},"g":{"ha":785,"x_min":4,"x_max":768,"o":"m 768 758 l 768 653 l 650 623 q 682 509 682 572 q 597 318 682 387 q 361 250 512 250 l 323 252 l 293 256 q 261 201 261 231 q 375 157 261 157 l 504 157 q 694 103 629 157 q 760 -54 760 50 q 649 -260 760 -187 q 330 -334 538 -334 q 88 -278 172 -334 q 4 -123 4 -223 q 47 -9 4 -55 q 172 57 90 37 q 117 101 140 71 q 93 167 93 132 q 118 239 93 210 q 191 296 143 268 q 96 378 131 321 q 61 513 61 435 q 142 705 61 637 q 372 772 222 772 q 448 767 404 772 q 504 758 492 761 l 768 758 m 183 -107 q 224 -174 183 -150 q 339 -199 265 -199 q 513 -168 450 -199 q 576 -85 576 -138 q 539 -26 576 -42 q 424 -9 502 -9 l 317 -9 q 221 -36 260 -9 q 183 -107 183 -63 m 258 510 q 287 412 258 448 q 372 376 315 376 q 458 412 431 376 q 485 510 485 448 q 372 647 485 647 q 258 510 258 647 z "},"h":{"ha":913,"x_min":109,"x_max":808,"o":"m 808 0 l 602 0 l 602 443 q 479 607 602 607 q 354 548 393 607 q 315 357 315 489 l 315 0 l 109 0 l 109 1055 l 315 1055 l 315 840 q 311 722 315 815 l 306 661 l 317 661 q 536 772 386 772 q 739 701 670 772 q 808 494 808 629 l 808 0 z "},"i":{"ha":424,"x_min":100,"x_max":325,"o":"m 100 954 q 212 1055 100 1055 q 325 954 325 1055 q 297 879 325 906 q 212 852 269 852 q 100 954 100 852 m 315 0 l 109 0 l 109 758 l 315 758 l 315 0 z "},"j":{"ha":424,"x_min":-89,"x_max":325,"o":"m 47 -334 q -89 -317 -32 -334 l -89 -154 q 8 -167 -41 -167 q 84 -138 60 -167 q 109 -52 109 -109 l 109 758 l 315 758 l 315 -82 q 245 -268 315 -203 q 47 -334 176 -334 m 100 954 q 212 1055 100 1055 q 325 954 325 1055 q 297 879 325 906 q 212 852 269 852 q 100 954 100 852 z "},"k":{"ha":861,"x_min":109,"x_max":861,"o":"m 307 412 l 397 528 l 610 758 l 843 758 l 542 429 l 861 0 l 623 0 l 404 307 l 315 236 l 315 0 l 109 0 l 109 1055 l 315 1055 l 315 585 l 304 412 l 307 412 z "},"l":{"ha":424,"x_min":109,"x_max":315,"o":"m 315 0 l 109 0 l 109 1055 l 315 1055 l 315 0 z "},"m":{"ha":1364,"x_min":109,"x_max":1260,"o":"m 787 0 l 581 0 l 581 443 q 553 566 581 525 q 467 607 526 607 q 351 549 387 607 q 315 357 315 490 l 315 0 l 109 0 l 109 758 l 267 758 l 294 661 l 306 661 q 394 743 336 713 q 526 772 452 772 q 757 661 696 772 l 775 661 q 865 743 806 714 q 999 772 924 772 q 1194 706 1128 772 q 1260 494 1260 640 l 1260 0 l 1053 0 l 1053 443 q 1025 566 1053 525 q 939 607 998 607 q 825 553 863 607 q 787 380 787 498 l 787 0 z "},"n":{"ha":913,"x_min":109,"x_max":808,"o":"m 808 0 l 602 0 l 602 443 q 572 566 602 525 q 479 607 543 607 q 354 549 393 607 q 315 357 315 491 l 315 0 l 109 0 l 109 758 l 267 758 l 294 661 l 306 661 q 401 744 340 716 q 539 772 462 772 q 740 701 671 772 q 808 494 808 629 l 808 0 z "},"o":{"ha":860,"x_min":62,"x_max":798,"o":"m 273 380 q 310 210 273 268 q 431 153 347 153 q 550 210 513 153 q 586 380 586 267 q 549 549 586 493 q 429 606 513 606 q 310 550 347 606 q 273 380 273 494 m 798 380 q 700 91 798 195 q 428 -14 602 -14 q 235 34 319 -14 q 107 172 152 82 q 62 380 62 261 q 159 669 62 566 q 432 772 256 772 q 625 725 541 772 q 753 589 708 677 q 798 380 798 500 z "},"p":{"ha":879,"x_min":109,"x_max":817,"o":"m 525 -14 q 315 83 391 -14 l 304 83 q 315 -26 315 -12 l 315 -334 l 109 -334 l 109 758 l 277 758 l 306 660 l 315 660 q 530 772 388 772 q 741 669 665 772 q 817 380 817 565 q 781 170 817 259 q 680 33 745 80 q 525 -14 614 -14 m 464 607 q 352 560 387 607 q 315 404 317 513 l 315 382 q 352 207 315 260 q 467 154 388 154 q 606 383 606 154 q 571 551 606 495 q 464 607 537 607 z "},"q":{"ha":879,"x_min":62,"x_max":771,"o":"m 422 149 q 538 194 501 149 q 578 351 574 239 l 578 376 q 540 551 578 498 q 419 604 503 604 q 273 375 273 604 q 310 205 273 261 q 422 149 346 149 m 349 -14 q 138 90 214 -14 q 62 378 62 193 q 140 668 62 564 q 353 772 218 772 q 478 745 425 772 q 572 661 532 718 l 578 661 l 596 758 l 771 758 l 771 -334 l 564 -334 l 564 -16 q 572 98 564 26 l 564 98 q 475 15 530 43 q 349 -14 420 -14 z "},"r":{"ha":631,"x_min":109,"x_max":602,"o":"m 532 772 q 602 766 574 772 l 586 572 q 525 579 561 579 q 371 528 426 579 q 315 386 315 477 l 315 0 l 109 0 l 109 758 l 265 758 l 296 631 l 306 631 q 401 733 341 694 q 532 772 461 772 z "},"s":{"ha":690,"x_min":62,"x_max":637,"o":"m 637 225 q 556 47 637 109 q 314 -14 475 -14 q 173 -2 231 -14 q 64 31 115 9 l 64 201 q 194 156 121 174 q 321 138 266 138 q 433 203 433 138 q 418 242 433 227 q 367 277 404 258 q 269 322 330 296 q 141 390 182 359 q 81 461 100 421 q 62 561 62 502 q 141 717 62 662 q 363 772 219 772 q 629 713 500 772 l 567 564 q 460 604 510 588 q 359 619 411 619 q 268 570 268 619 q 297 522 268 542 q 427 461 327 501 q 557 394 515 425 q 618 322 598 363 q 637 225 637 281 z "},"t":{"ha":603,"x_min":32,"x_max":558,"o":"m 428 151 q 558 175 482 151 l 558 21 q 368 -14 481 -14 q 188 49 244 -14 q 131 237 131 112 l 131 603 l 32 603 l 32 690 l 146 760 l 205 920 l 338 920 l 338 758 l 550 758 l 550 603 l 338 603 l 338 237 q 362 172 338 193 q 428 151 387 151 z "},"u":{"ha":913,"x_min":104,"x_max":804,"o":"m 646 0 l 618 97 l 607 97 q 513 15 574 44 q 374 -14 452 -14 q 172 58 240 -14 q 104 264 104 130 l 104 758 l 311 758 l 311 315 q 340 192 311 233 q 433 151 370 151 q 559 209 520 151 q 597 401 597 267 l 597 758 l 804 758 l 804 0 l 646 0 z "},"v":{"ha":790,"x_min":0,"x_max":790,"o":"m 289 0 l 0 758 l 216 758 l 363 326 q 393 171 387 244 l 397 171 q 428 326 401 236 l 574 758 l 790 758 l 501 0 l 289 0 z "},"w":{"ha":1189,"x_min":14,"x_max":1175,"o":"m 732 0 l 673 265 l 595 600 l 590 600 l 452 0 l 229 0 l 14 758 l 220 758 l 307 422 q 350 174 328 332 l 354 174 q 378 337 357 225 l 389 395 l 482 758 l 710 758 l 799 395 q 807 351 802 380 q 819 289 813 321 q 828 224 824 256 q 833 174 833 193 l 838 174 q 859 308 844 222 q 882 422 875 393 l 972 758 l 1175 758 l 957 0 l 732 0 z "},"x":{"ha":803,"x_min":7,"x_max":796,"o":"m 264 387 l 20 758 l 254 758 l 401 517 l 550 758 l 785 758 l 538 387 l 796 0 l 561 0 l 401 260 l 241 0 l 7 0 l 264 387 z "},"y":{"ha":790,"x_min":0,"x_max":790,"o":"m 0 758 l 227 758 l 370 332 q 395 200 388 276 l 399 200 q 428 332 406 270 l 568 758 l 790 758 l 469 -97 q 343 -275 425 -216 q 153 -334 262 -334 q 47 -322 99 -334 l 47 -158 q 129 -167 85 -167 q 225 -133 184 -167 q 289 -32 266 -100 l 301 5 l 0 758 z "},"z":{"ha":677,"x_min":37,"x_max":636,"o":"m 636 0 l 37 0 l 37 122 l 389 600 l 58 600 l 58 758 l 624 758 l 624 624 l 282 158 l 636 158 l 636 0 z "},"{":{"ha":547,"x_min":21,"x_max":492,"o":"m 195 183 q 150 273 195 242 q 21 304 106 304 l 21 467 q 151 496 106 467 q 195 582 195 526 l 195 587 l 195 803 q 260 949 195 907 q 492 991 326 991 l 492 839 q 399 813 425 837 q 374 743 374 789 l 374 541 q 215 390 370 413 l 215 382 q 374 238 374 358 l 374 232 l 374 29 q 399 -41 374 -17 q 492 -66 424 -64 l 492 -220 q 260 -177 326 -220 q 195 -31 195 -135 l 195 183 z "},"|":{"ha":765,"x_min":309,"x_max":457,"o":"m 309 1051 l 457 1051 l 457 -315 l 309 -315 l 309 1051 z "},"}":{"ha":547,"x_min":56,"x_max":526,"o":"m 353 -31 q 325 -145 353 -106 q 233 -202 297 -184 q 56 -220 169 -220 l 56 -66 q 148 -42 123 -65 q 174 29 174 -19 l 174 232 l 174 239 q 214 334 174 298 q 332 382 254 370 l 332 390 q 174 541 178 413 l 174 743 q 149 814 174 791 q 56 839 123 837 l 56 991 q 233 974 169 991 q 325 917 298 956 q 353 803 353 878 l 353 587 l 353 581 q 394 495 353 524 q 526 467 436 467 l 526 304 q 397 277 441 304 q 353 183 353 249 l 353 -31 z "},"~":{"ha":793,"x_min":60,"x_max":733,"o":"m 218 456 q 139 433 181 456 q 60 374 96 410 l 60 530 q 233 604 130 604 q 327 593 283 604 q 421 561 370 583 q 575 524 509 524 q 654 545 611 524 q 733 606 696 567 l 733 449 q 559 375 665 375 q 474 384 515 375 q 372 418 433 393 q 218 456 283 456 z "}," ":{"ha":361,"x_min":0,"x_max":0,"o":""},"¡":{"ha":397,"x_min":79,"x_max":317,"o":"m 114 411 l 279 411 l 314 -250 l 79 -250 l 114 411 m 317 643 q 286 557 317 586 q 197 528 256 528 q 110 557 141 528 q 79 643 79 587 q 111 728 79 698 q 197 758 142 758 q 286 728 254 758 q 317 643 317 699 z "},"¢":{"ha":793,"x_min":97,"x_max":705,"o":"m 382 119 q 97 503 97 159 q 168 776 97 680 q 382 893 239 872 l 382 1006 l 503 1006 l 503 899 q 705 848 615 892 l 644 689 q 553 721 595 709 q 469 733 511 733 q 348 676 387 733 q 309 504 309 620 q 469 282 309 282 q 570 293 525 282 q 682 334 614 303 l 682 161 q 503 114 596 120 l 503 -14 l 382 -14 l 382 119 z "},"£":{"ha":793,"x_min":56,"x_max":766,"o":"m 475 1006 q 739 950 607 1006 l 676 794 q 492 838 570 838 q 410 807 439 838 q 382 721 382 777 l 382 590 l 636 590 l 636 441 l 382 441 l 382 345 q 279 176 382 229 l 766 176 l 766 0 l 56 0 l 56 168 q 152 237 125 198 q 178 343 178 275 l 178 441 l 57 441 l 57 590 l 178 590 l 178 722 q 255 932 178 859 q 475 1006 333 1006 z "},"¤":{"ha":793,"x_min":77,"x_max":717,"o":"m 127 490 q 164 624 127 559 l 77 710 l 176 810 l 262 724 q 396 760 324 760 q 529 722 467 760 l 615 810 l 717 713 l 629 625 q 665 490 665 565 q 629 355 665 418 l 714 271 l 615 172 l 529 257 q 396 222 465 222 q 261 257 318 222 l 176 174 l 78 272 l 164 357 q 127 490 127 420 m 268 490 q 305 400 268 438 q 396 363 342 363 q 489 400 451 363 q 526 490 526 437 q 488 582 526 545 q 396 619 450 619 q 306 581 343 619 q 268 490 268 543 z "},"¥":{"ha":793,"x_min":4,"x_max":787,"o":"m 396 583 l 575 991 l 787 991 l 528 485 l 660 485 l 660 364 l 493 364 l 493 271 l 660 271 l 660 150 l 493 150 l 493 0 l 298 0 l 298 150 l 131 150 l 131 271 l 298 271 l 298 364 l 131 364 l 131 485 l 260 485 l 4 991 l 218 991 l 396 583 z "},"¦":{"ha":765,"x_min":309,"x_max":457,"o":"m 309 1051 l 457 1051 l 457 498 l 309 498 l 309 1051 m 309 237 l 457 237 l 457 -315 l 309 -315 l 309 237 z "},"§":{"ha":675,"x_min":72,"x_max":607,"o":"m 82 546 q 106 644 82 600 q 172 715 131 688 q 82 873 82 772 q 158 1016 82 962 q 357 1069 233 1069 q 603 1013 472 1069 l 547 884 q 453 923 501 905 q 353 940 406 940 q 273 924 298 940 q 248 876 248 909 q 281 818 248 843 q 392 762 315 793 q 555 662 503 719 q 607 530 607 604 q 522 354 607 410 q 586 291 564 327 q 607 205 607 256 q 526 46 607 105 q 309 -14 445 -14 q 72 40 171 -14 l 72 180 q 194 133 127 153 q 309 114 261 114 q 440 193 440 114 q 428 236 440 220 q 385 270 415 252 q 300 310 354 287 q 129 413 176 360 q 82 546 82 467 m 233 561 q 277 480 233 515 q 400 414 321 445 q 453 513 453 452 q 419 591 453 559 q 294 656 385 623 q 251 620 269 646 q 233 561 233 593 z "},"¨":{"ha":843,"x_min":189,"x_max":654,"o":"m 189 953 q 215 1021 189 997 q 283 1044 240 1044 q 354 1019 328 1044 q 379 953 379 994 q 353 887 379 912 q 283 863 328 863 q 215 886 240 863 q 189 953 189 910 m 463 953 q 490 1022 463 1000 q 558 1044 517 1044 q 628 1020 602 1044 q 654 953 654 996 q 628 887 654 911 q 558 863 602 863 q 490 885 517 863 q 463 953 463 907 z "},"©":{"ha":1156,"x_min":68,"x_max":1088,"o":"m 607 685 q 505 635 541 685 q 469 496 469 585 q 607 306 469 306 q 690 316 646 306 q 774 346 735 326 l 774 216 q 603 178 692 178 q 389 262 465 178 q 313 497 313 347 q 388 729 313 646 q 597 812 463 812 q 804 760 699 812 l 754 646 q 607 685 677 685 m 68 496 q 136 750 68 631 q 322 937 203 869 q 578 1006 441 1006 q 832 938 713 1006 q 1019 751 951 870 q 1088 496 1088 633 q 1022 245 1088 362 q 838 57 956 127 q 578 -14 719 -14 q 319 57 437 -14 q 134 244 200 127 q 68 496 68 361 m 164 496 q 220 289 164 385 q 372 137 275 193 q 578 82 468 82 q 785 138 689 82 q 936 290 881 193 q 991 496 991 386 q 936 703 991 607 q 784 854 880 799 q 578 909 688 909 q 371 854 467 909 q 219 702 275 798 q 164 496 164 606 z "},"ª":{"ha":532,"x_min":32,"x_max":472,"o":"m 380 518 l 359 593 q 288 532 330 553 q 196 510 246 510 q 74 550 117 510 q 32 661 32 589 q 88 772 32 735 q 269 815 144 809 l 336 818 q 250 897 336 897 q 103 856 195 897 l 58 947 q 157 986 103 969 q 278 1003 211 1003 q 421 955 371 1003 q 472 818 472 907 l 472 518 l 380 518 m 171 663 q 186 625 171 637 q 224 612 202 612 q 306 641 276 612 q 336 713 336 669 l 336 737 l 269 733 q 171 663 171 726 z "},"«":{"ha":854,"x_min":56,"x_max":799,"o":"m 56 389 l 307 697 l 456 616 l 267 380 l 456 144 l 307 64 l 56 371 l 56 389 m 399 389 l 650 697 l 799 616 l 610 380 l 799 144 l 650 64 l 399 371 l 399 389 z "},"¬":{"ha":793,"x_min":60,"x_max":733,"o":"m 733 168 l 585 168 l 585 415 l 60 415 l 60 564 l 733 564 l 733 168 z "},"­":{"ha":447,"x_min":41,"x_max":406,"o":"m 41 288 l 41 457 l 406 457 l 406 288 l 41 288 z "},"®":{"ha":1156,"x_min":68,"x_max":1088,"o":"m 785 614 q 688 456 785 498 l 848 184 l 676 184 l 555 414 l 524 414 l 524 184 l 368 184 l 368 806 l 547 806 q 727 758 670 806 q 785 614 785 711 m 524 528 l 545 528 q 609 547 589 528 q 628 611 628 566 q 609 673 628 655 q 543 692 590 692 l 524 692 l 524 528 m 68 496 q 136 750 68 631 q 322 937 203 869 q 578 1006 441 1006 q 832 938 713 1006 q 1019 751 951 870 q 1088 496 1088 633 q 1022 245 1088 362 q 838 57 956 127 q 578 -14 719 -14 q 319 57 437 -14 q 134 244 200 127 q 68 496 68 361 m 164 496 q 220 289 164 385 q 372 137 275 193 q 578 82 468 82 q 785 138 689 82 q 936 290 881 193 q 991 496 991 386 q 936 703 991 607 q 784 854 880 799 q 578 909 688 909 q 371 854 467 909 q 219 702 275 798 q 164 496 164 606 z "},"¯":{"ha":694,"x_min":-4,"x_max":699,"o":"m 699 1055 l -4 1055 l -4 1192 l 699 1192 l 699 1055 z "},"°":{"ha":595,"x_min":62,"x_max":532,"o":"m 62 771 q 94 888 62 833 q 179 974 125 942 q 297 1006 233 1006 q 414 975 359 1006 q 500 888 469 943 q 532 771 532 833 q 500 653 532 708 q 414 568 469 599 q 297 538 360 538 q 131 605 199 538 q 62 771 62 673 m 192 771 q 222 697 192 728 q 297 667 252 667 q 372 698 342 667 q 403 771 403 729 q 372 846 403 814 q 297 878 341 878 q 223 846 254 878 q 192 771 192 815 z "},"±":{"ha":793,"x_min":60,"x_max":733,"o":"m 322 457 l 60 457 l 60 606 l 322 606 l 322 869 l 471 869 l 471 606 l 733 606 l 733 457 l 471 457 l 471 196 l 322 196 l 322 457 m 60 0 l 60 149 l 733 149 l 733 0 l 60 0 z "},"²":{"ha":526,"x_min":32,"x_max":476,"o":"m 476 397 l 37 397 l 37 511 l 189 660 q 278 758 258 728 q 297 822 297 788 q 281 861 297 848 q 237 875 264 875 q 115 815 182 875 l 32 918 q 260 1006 132 1006 q 406 961 353 1006 q 460 836 460 916 q 428 728 460 779 q 309 597 396 677 l 237 533 l 476 533 l 476 397 z "},"³":{"ha":526,"x_min":40,"x_max":471,"o":"m 452 847 q 336 713 452 750 l 336 704 q 435 653 400 690 q 471 562 471 616 q 411 433 471 480 q 225 386 351 386 q 40 433 128 386 l 40 562 q 224 501 140 501 q 321 574 321 501 q 291 628 321 610 q 208 646 261 646 l 132 646 l 132 754 l 195 754 q 278 772 251 754 q 306 828 306 789 q 289 871 306 854 q 237 888 272 888 q 177 875 205 888 q 110 835 149 862 l 41 930 q 135 983 83 962 q 256 1004 186 1004 q 397 961 342 1004 q 452 847 452 918 z "},"´":{"ha":843,"x_min":225,"x_max":616,"o":"m 225 842 l 225 860 q 385 1064 342 996 l 616 1064 l 616 1050 q 496 945 581 1015 q 363 842 411 876 l 225 842 z "},"µ":{"ha":917,"x_min":109,"x_max":808,"o":"m 315 315 q 345 192 315 233 q 439 151 375 151 q 563 210 524 151 q 602 401 602 269 l 602 758 l 808 758 l 808 0 l 652 0 l 623 102 l 612 102 q 543 15 584 44 q 443 -14 503 -14 q 366 2 401 -14 q 309 47 330 18 l 312 -10 l 315 -117 l 315 -334 l 109 -334 l 109 758 l 315 758 l 315 315 z "},"¶":{"ha":909,"x_min":77,"x_max":791,"o":"m 791 -176 l 682 -176 l 682 920 l 570 920 l 570 -176 l 460 -176 l 460 379 q 361 367 418 367 q 145 452 214 367 q 77 707 77 536 q 151 969 77 883 q 382 1055 224 1055 l 791 1055 l 791 -176 z "},"·":{"ha":396,"x_min":79,"x_max":317,"o":"m 79 490 q 110 576 79 547 q 199 606 140 606 q 286 576 255 606 q 317 490 317 546 q 285 405 317 435 q 199 375 254 375 q 111 405 142 375 q 79 490 79 435 z "},"¸":{"ha":285,"x_min":-25,"x_max":283,"o":"m 283 -170 q 232 -295 283 -256 q 74 -334 181 -334 q -25 -319 21 -334 l -25 -205 q 24 -215 -7 -210 q 72 -220 55 -220 q 121 -178 121 -220 q 8 -104 121 -121 l 61 0 l 192 0 l 174 -41 q 254 -92 224 -58 q 283 -170 283 -126 z "},"¹":{"ha":526,"x_min":62,"x_max":396,"o":"m 396 397 l 235 397 l 235 700 l 237 776 l 240 840 q 189 787 222 816 l 136 746 l 62 832 l 267 991 l 396 991 l 396 397 z "},"º":{"ha":539,"x_min":39,"x_max":500,"o":"m 500 757 q 438 575 500 641 q 268 510 376 510 q 101 577 164 510 q 39 757 39 644 q 99 937 39 871 q 271 1003 160 1003 q 437 936 374 1003 q 500 757 500 869 m 176 757 q 198 655 176 689 q 269 621 220 621 q 339 655 318 621 q 361 757 361 689 q 339 858 361 825 q 269 892 318 892 q 198 858 220 892 q 176 757 176 825 z "},"»":{"ha":854,"x_min":56,"x_max":799,"o":"m 799 371 l 547 64 l 399 144 l 587 380 l 399 616 l 547 697 l 799 389 l 799 371 m 456 371 l 204 64 l 56 144 l 244 380 l 56 616 l 204 697 l 456 389 l 456 371 z "},"¼":{"ha":1223,"x_min":31,"x_max":1141,"o":"m 365 397 l 203 397 l 203 700 l 205 776 l 209 840 q 158 787 191 816 l 105 746 l 31 832 l 235 991 l 365 991 l 365 397 m 929 991 l 379 0 l 217 0 l 767 991 l 929 991 m 1141 103 l 1056 103 l 1056 1 l 895 1 l 895 103 l 635 103 l 635 208 l 896 599 l 1056 599 l 1056 217 l 1141 217 l 1141 103 m 895 217 l 895 328 q 899 453 895 387 q 874 399 892 435 q 846 347 857 362 l 760 217 l 895 217 z "},"½":{"ha":1223,"x_min":31,"x_max":1164,"o":"m 365 397 l 203 397 l 203 700 l 205 776 l 209 840 q 158 787 191 816 l 105 746 l 31 832 l 235 991 l 365 991 l 365 397 m 929 991 l 379 0 l 217 0 l 767 991 l 929 991 m 1164 1 l 725 1 l 725 115 l 877 263 q 965 361 946 331 q 985 425 985 391 q 968 465 985 451 q 925 478 952 478 q 803 418 870 478 l 720 522 q 947 609 819 609 q 1094 564 1040 609 q 1147 439 1147 519 q 1116 331 1147 382 q 996 201 1084 280 l 925 136 l 1164 136 l 1164 1 z "},"¾":{"ha":1223,"x_min":61,"x_max":1161,"o":"m 473 847 q 357 713 473 750 l 357 704 q 456 653 421 690 q 492 562 492 616 q 432 433 492 480 q 246 386 372 386 q 61 433 149 386 l 61 562 q 245 501 161 501 q 342 574 342 501 q 312 628 342 610 q 229 646 282 646 l 153 646 l 153 754 l 216 754 q 299 772 272 754 q 327 828 327 789 q 310 871 327 854 q 258 888 293 888 q 198 875 227 888 q 131 835 170 862 l 62 930 q 156 983 104 962 q 277 1004 207 1004 q 418 961 363 1004 q 473 847 473 918 m 977 991 l 427 0 l 265 0 l 815 991 l 977 991 m 1161 103 l 1076 103 l 1076 1 l 915 1 l 915 103 l 655 103 l 655 208 l 916 599 l 1076 599 l 1076 217 l 1161 217 l 1161 103 m 915 217 l 915 328 q 919 453 915 387 q 895 399 913 435 q 867 347 877 362 l 781 217 l 915 217 z "},"¿":{"ha":663,"x_min":41,"x_max":667,"o":"m 484 411 l 484 361 q 453 246 484 294 q 350 146 423 198 q 257 63 276 93 q 237 -9 237 33 q 267 -73 237 -48 q 357 -98 296 -98 q 471 -79 410 -98 q 597 -31 532 -59 l 667 -180 q 516 -242 600 -218 q 361 -265 433 -265 q 126 -200 212 -265 q 41 -20 41 -134 q 74 107 41 54 q 204 232 107 161 q 287 304 269 279 q 304 371 304 330 l 304 411 l 484 411 m 505 643 q 475 557 505 586 q 386 528 444 528 q 299 557 330 528 q 268 643 268 587 q 299 728 268 698 q 386 758 331 758 q 474 728 443 758 q 505 643 505 699 z "},"À":{"ha":958,"x_min":0,"x_max":958,"o":"m 732 0 l 660 236 l 298 236 l 227 0 l 0 0 l 350 996 l 607 996 l 958 0 l 732 0 m 610 412 q 497 775 510 733 q 479 842 485 817 q 351 412 457 755 l 610 412 m 484 1071 q 358 1167 441 1101 q 229 1279 275 1234 l 229 1293 l 461 1293 q 621 1089 504 1225 l 621 1071 l 484 1071 z "},"Á":{"ha":958,"x_min":0,"x_max":958,"o":"m 732 0 l 660 236 l 298 236 l 227 0 l 0 0 l 350 996 l 607 996 l 958 0 l 732 0 m 610 412 q 497 775 510 733 q 479 842 485 817 q 351 412 457 755 l 610 412 m 367 1071 l 367 1089 q 526 1293 484 1225 l 758 1293 l 758 1279 q 638 1174 723 1244 q 505 1071 553 1105 l 367 1071 z "},"Â":{"ha":958,"x_min":0,"x_max":958,"o":"m 732 0 l 660 236 l 298 236 l 227 0 l 0 0 l 350 996 l 607 996 l 958 0 l 732 0 m 610 412 q 497 775 510 733 q 479 842 485 817 q 351 412 457 755 l 610 412 m 636 1071 q 477 1190 530 1134 q 322 1071 425 1135 l 184 1071 l 184 1089 q 358 1293 313 1217 l 600 1293 q 673 1197 621 1258 q 774 1089 725 1137 l 774 1071 l 636 1071 z "},"Ã":{"ha":958,"x_min":0,"x_max":958,"o":"m 732 0 l 660 236 l 298 236 l 227 0 l 0 0 l 350 996 l 607 996 l 958 0 l 732 0 m 610 412 q 497 775 510 733 q 479 842 485 817 q 351 412 457 755 l 610 412 m 368 1142 q 328 1124 347 1142 q 300 1069 309 1106 l 199 1069 q 255 1223 206 1168 q 383 1279 303 1279 q 438 1268 411 1279 q 491 1243 465 1257 q 542 1219 517 1230 q 591 1208 567 1208 q 632 1226 612 1208 q 660 1280 651 1244 l 761 1280 q 704 1126 753 1182 q 576 1071 655 1071 q 522 1082 549 1071 q 469 1106 495 1093 q 418 1131 443 1120 q 368 1142 393 1142 z "},"Ä":{"ha":958,"x_min":0,"x_max":958,"o":"m 732 0 l 660 236 l 298 236 l 227 0 l 0 0 l 350 996 l 607 996 l 958 0 l 732 0 m 610 412 q 497 775 510 733 q 479 842 485 817 q 351 412 457 755 l 610 412 m 248 1182 q 273 1250 248 1226 q 342 1274 298 1274 q 412 1249 387 1274 q 437 1182 437 1223 q 412 1117 437 1141 q 342 1092 386 1092 q 273 1116 298 1092 q 248 1182 248 1139 m 521 1182 q 548 1252 521 1230 q 616 1274 576 1274 q 687 1249 661 1274 q 713 1182 713 1225 q 686 1116 713 1141 q 616 1092 660 1092 q 548 1114 576 1092 q 521 1182 521 1136 z "},"Å":{"ha":958,"x_min":0,"x_max":958,"o":"m 732 0 l 660 236 l 298 236 l 227 0 l 0 0 l 350 996 l 607 996 l 958 0 l 732 0 m 610 412 q 497 775 510 733 q 479 842 485 817 q 351 412 457 755 l 610 412 m 650 1063 q 602 945 650 989 q 478 900 554 900 q 356 943 402 900 q 310 1061 310 987 q 356 1178 310 1135 q 478 1222 401 1222 q 602 1177 553 1222 q 650 1063 650 1133 m 543 1061 q 525 1109 543 1092 q 478 1126 507 1126 q 431 1109 450 1126 q 413 1061 413 1092 q 429 1013 413 1031 q 478 996 446 996 q 525 1013 507 996 q 543 1061 543 1031 z "},"Æ":{"ha":1322,"x_min":0,"x_max":1240,"o":"m 1240 0 l 648 0 l 648 236 l 315 236 l 214 0 l 0 0 l 444 991 l 1240 991 l 1240 819 l 859 819 l 859 602 l 1215 602 l 1215 429 l 859 429 l 859 174 l 1240 174 l 1240 0 m 392 412 l 648 412 l 648 812 l 562 812 l 392 412 z "},"Ç":{"ha":885,"x_min":81,"x_max":836,"o":"m 546 831 q 362 742 427 831 q 297 493 297 652 q 546 161 297 161 q 799 214 650 161 l 799 37 q 526 -14 677 -14 q 195 118 310 -14 q 81 494 81 249 q 137 765 81 649 q 299 944 193 882 q 546 1006 404 1006 q 836 936 690 1006 l 768 765 q 656 811 713 791 q 546 831 600 831 m 650 -170 q 599 -295 650 -256 q 441 -334 548 -334 q 342 -319 388 -334 l 342 -205 q 391 -215 360 -210 q 439 -220 422 -220 q 488 -178 488 -220 q 375 -104 488 -121 l 428 0 l 559 0 l 541 -41 q 621 -92 591 -58 q 650 -170 650 -126 z "},"È":{"ha":778,"x_min":125,"x_max":696,"o":"m 696 0 l 125 0 l 125 991 l 696 991 l 696 819 l 335 819 l 335 602 l 671 602 l 671 429 l 335 429 l 335 174 l 696 174 l 696 0 m 430 1071 q 304 1167 387 1101 q 176 1279 222 1234 l 176 1293 l 408 1293 q 567 1089 450 1225 l 567 1071 l 430 1071 z "},"É":{"ha":778,"x_min":125,"x_max":696,"o":"m 696 0 l 125 0 l 125 991 l 696 991 l 696 819 l 335 819 l 335 602 l 671 602 l 671 429 l 335 429 l 335 174 l 696 174 l 696 0 m 288 1071 l 288 1089 q 447 1293 404 1225 l 679 1293 l 679 1279 q 558 1174 644 1244 q 425 1071 473 1105 l 288 1071 z "},"Ê":{"ha":778,"x_min":119,"x_max":708,"o":"m 696 0 l 125 0 l 125 991 l 696 991 l 696 819 l 335 819 l 335 602 l 671 602 l 671 429 l 335 429 l 335 174 l 696 174 l 696 0 m 570 1071 q 412 1190 464 1134 q 256 1071 359 1135 l 119 1071 l 119 1089 q 292 1293 247 1217 l 534 1293 q 607 1197 555 1258 q 708 1089 659 1137 l 708 1071 l 570 1071 z "},"Ë":{"ha":778,"x_min":125,"x_max":696,"o":"m 696 0 l 125 0 l 125 991 l 696 991 l 696 819 l 335 819 l 335 602 l 671 602 l 671 429 l 335 429 l 335 174 l 696 174 l 696 0 m 184 1182 q 210 1250 184 1226 q 279 1274 235 1274 q 349 1249 323 1274 q 374 1182 374 1223 q 349 1117 374 1141 q 279 1092 323 1092 q 210 1116 235 1092 q 184 1182 184 1139 m 458 1182 q 485 1252 458 1230 q 553 1274 513 1274 q 624 1249 597 1274 q 650 1182 650 1225 q 623 1116 650 1141 q 553 1092 597 1092 q 485 1114 513 1092 q 458 1182 458 1136 z "},"Ð":{"ha":1028,"x_min":32,"x_max":947,"o":"m 32 576 l 125 576 l 125 991 l 436 991 q 813 863 679 991 q 947 505 947 735 q 808 130 947 260 q 406 0 669 0 l 125 0 l 125 404 l 32 404 l 32 576 m 729 500 q 659 738 729 657 q 446 819 588 819 l 335 819 l 335 576 l 496 576 l 496 404 l 335 404 l 335 174 l 424 174 q 729 500 729 174 z "},"Ñ":{"ha":1129,"x_min":125,"x_max":1004,"o":"m 1004 0 l 737 0 l 306 750 l 300 750 q 313 467 313 551 l 313 0 l 125 0 l 125 991 l 390 991 l 821 249 l 825 249 q 815 522 815 442 l 815 991 l 1004 991 l 1004 0 m 453 1142 q 413 1124 432 1142 q 385 1069 393 1106 l 283 1069 q 339 1223 291 1168 q 468 1279 388 1279 q 523 1268 496 1279 q 575 1243 549 1257 q 627 1219 602 1230 q 676 1208 652 1208 q 716 1226 697 1208 q 745 1280 736 1244 l 846 1280 q 789 1126 838 1182 q 661 1071 740 1071 q 607 1082 633 1071 q 554 1106 580 1093 q 503 1131 528 1120 q 453 1142 477 1142 z "},"Ò":{"ha":1105,"x_min":81,"x_max":1025,"o":"m 1025 497 q 903 119 1025 251 q 553 -14 781 -14 q 203 119 325 -14 q 81 498 81 251 q 203 877 81 746 q 554 1007 326 1007 q 904 876 783 1007 q 1025 497 1025 744 m 301 497 q 364 247 301 331 q 553 163 427 163 q 804 497 804 163 q 554 832 804 832 q 365 748 429 832 q 301 497 301 663 m 559 1071 q 433 1167 516 1101 q 304 1279 351 1234 l 304 1293 l 536 1293 q 696 1089 579 1225 l 696 1071 l 559 1071 z "},"Ó":{"ha":1105,"x_min":81,"x_max":1025,"o":"m 1025 497 q 903 119 1025 251 q 553 -14 781 -14 q 203 119 325 -14 q 81 498 81 251 q 203 877 81 746 q 554 1007 326 1007 q 904 876 783 1007 q 1025 497 1025 744 m 301 497 q 364 247 301 331 q 553 163 427 163 q 804 497 804 163 q 554 832 804 832 q 365 748 429 832 q 301 497 301 663 m 446 1071 l 446 1089 q 606 1293 563 1225 l 838 1293 l 838 1279 q 717 1174 802 1244 q 584 1071 632 1105 l 446 1071 z "},"Ô":{"ha":1105,"x_min":81,"x_max":1025,"o":"m 1025 497 q 903 119 1025 251 q 553 -14 781 -14 q 203 119 325 -14 q 81 498 81 251 q 203 877 81 746 q 554 1007 326 1007 q 904 876 783 1007 q 1025 497 1025 744 m 301 497 q 364 247 301 331 q 553 163 427 163 q 804 497 804 163 q 554 832 804 832 q 365 748 429 832 q 301 497 301 663 m 710 1071 q 551 1190 604 1134 q 396 1071 498 1135 l 258 1071 l 258 1089 q 432 1293 387 1217 l 674 1293 q 747 1197 695 1258 q 848 1089 799 1137 l 848 1071 l 710 1071 z "},"Õ":{"ha":1105,"x_min":81,"x_max":1025,"o":"m 1025 497 q 903 119 1025 251 q 553 -14 781 -14 q 203 119 325 -14 q 81 498 81 251 q 203 877 81 746 q 554 1007 326 1007 q 904 876 783 1007 q 1025 497 1025 744 m 301 497 q 364 247 301 331 q 553 163 427 163 q 804 497 804 163 q 554 832 804 832 q 365 748 429 832 q 301 497 301 663 m 442 1142 q 402 1124 421 1142 q 374 1069 382 1106 l 273 1069 q 329 1223 280 1168 q 457 1279 377 1279 q 512 1268 485 1279 q 565 1243 538 1257 q 616 1219 591 1230 q 665 1208 641 1208 q 706 1226 686 1208 q 734 1280 725 1244 l 835 1280 q 778 1126 827 1182 q 650 1071 729 1071 q 596 1082 623 1071 q 543 1106 569 1093 q 492 1131 517 1120 q 442 1142 467 1142 z "},"Ö":{"ha":1105,"x_min":81,"x_max":1025,"o":"m 1025 497 q 903 119 1025 251 q 553 -14 781 -14 q 203 119 325 -14 q 81 498 81 251 q 203 877 81 746 q 554 1007 326 1007 q 904 876 783 1007 q 1025 497 1025 744 m 301 497 q 364 247 301 331 q 553 163 427 163 q 804 497 804 163 q 554 832 804 832 q 365 748 429 832 q 301 497 301 663 m 321 1182 q 347 1250 321 1226 q 416 1274 372 1274 q 486 1249 460 1274 q 511 1182 511 1223 q 486 1117 511 1141 q 416 1092 460 1092 q 347 1116 372 1092 q 321 1182 321 1139 m 595 1182 q 622 1252 595 1230 q 690 1274 650 1274 q 761 1249 734 1274 q 787 1182 787 1225 q 760 1116 787 1141 q 690 1092 734 1092 q 622 1114 650 1092 q 595 1182 595 1136 z "},"×":{"ha":793,"x_min":87,"x_max":705,"o":"m 290 490 l 87 694 l 191 799 l 395 596 l 602 799 l 705 697 l 498 490 l 703 285 l 602 182 l 395 386 l 191 183 l 89 286 l 290 490 z "},"Ø":{"ha":1105,"x_min":81,"x_max":1025,"o":"m 1025 497 q 903 119 1025 251 q 553 -14 781 -14 q 325 31 419 -14 l 264 -61 l 154 12 l 215 104 q 81 498 81 236 q 203 877 81 746 q 554 1007 326 1007 q 787 960 688 1007 l 844 1044 l 953 974 l 893 885 q 1025 497 1025 753 m 301 497 q 339 289 301 368 l 682 802 q 554 832 625 832 q 365 748 429 832 q 301 497 301 663 m 804 497 q 770 699 804 619 l 431 189 q 553 163 482 163 q 804 497 804 163 z "},"Ù":{"ha":1050,"x_min":118,"x_max":932,"o":"m 932 991 l 932 350 q 883 157 932 240 q 741 31 833 75 q 521 -14 648 -14 q 224 84 330 -14 q 118 353 118 182 l 118 991 l 328 991 l 328 385 q 374 216 328 270 q 526 163 420 163 q 676 217 629 163 q 722 386 722 271 l 722 991 l 932 991 m 509 1071 q 383 1167 466 1101 q 254 1279 300 1234 l 254 1293 l 486 1293 q 646 1089 529 1225 l 646 1071 l 509 1071 z "},"Ú":{"ha":1050,"x_min":118,"x_max":932,"o":"m 932 991 l 932 350 q 883 157 932 240 q 741 31 833 75 q 521 -14 648 -14 q 224 84 330 -14 q 118 353 118 182 l 118 991 l 328 991 l 328 385 q 374 216 328 270 q 526 163 420 163 q 676 217 629 163 q 722 386 722 271 l 722 991 l 932 991 m 408 1071 l 408 1089 q 568 1293 525 1225 l 800 1293 l 800 1279 q 679 1174 764 1244 q 546 1071 594 1105 l 408 1071 z "},"Û":{"ha":1050,"x_min":118,"x_max":932,"o":"m 932 991 l 932 350 q 883 157 932 240 q 741 31 833 75 q 521 -14 648 -14 q 224 84 330 -14 q 118 353 118 182 l 118 991 l 328 991 l 328 385 q 374 216 328 270 q 526 163 420 163 q 676 217 629 163 q 722 386 722 271 l 722 991 l 932 991 m 682 1071 q 524 1190 576 1134 q 368 1071 471 1135 l 231 1071 l 231 1089 q 404 1293 359 1217 l 646 1293 q 719 1197 667 1258 q 820 1089 771 1137 l 820 1071 l 682 1071 z "},"Ü":{"ha":1050,"x_min":118,"x_max":932,"o":"m 932 991 l 932 350 q 883 157 932 240 q 741 31 833 75 q 521 -14 648 -14 q 224 84 330 -14 q 118 353 118 182 l 118 991 l 328 991 l 328 385 q 374 216 328 270 q 526 163 420 163 q 676 217 629 163 q 722 386 722 271 l 722 991 l 932 991 m 294 1182 q 319 1250 294 1226 q 388 1274 345 1274 q 458 1249 433 1274 q 484 1182 484 1223 q 458 1117 484 1141 q 388 1092 432 1092 q 319 1116 345 1092 q 294 1182 294 1139 m 567 1182 q 594 1252 567 1230 q 663 1274 622 1274 q 733 1249 707 1274 q 759 1182 759 1225 q 732 1116 759 1141 q 663 1092 706 1092 q 594 1114 622 1092 q 567 1182 567 1136 z "},"Ý":{"ha":867,"x_min":0,"x_max":867,"o":"m 433 583 l 640 991 l 867 991 l 538 386 l 538 0 l 329 0 l 329 379 l 0 991 l 228 991 l 433 583 m 313 1071 l 313 1089 q 472 1293 429 1225 l 704 1293 l 704 1279 q 584 1174 669 1244 q 450 1071 498 1105 l 313 1071 z "},"Þ":{"ha":872,"x_min":125,"x_max":810,"o":"m 810 522 q 713 283 810 367 q 439 199 616 199 l 335 199 l 335 0 l 125 0 l 125 991 l 335 991 l 335 836 l 456 836 q 719 755 628 836 q 810 522 810 675 m 335 368 l 403 368 q 549 404 501 368 q 597 522 597 439 q 554 630 597 595 q 419 665 511 665 l 335 665 l 335 368 z "},"ß":{"ha":987,"x_min":109,"x_max":939,"o":"m 847 842 q 833 765 847 798 q 797 707 819 732 q 750 661 775 681 q 703 625 725 642 q 667 595 682 609 q 653 566 653 581 q 671 530 653 547 q 734 485 689 512 q 868 390 833 423 q 921 315 904 357 q 939 221 939 274 q 860 45 939 104 q 627 -14 781 -14 q 511 -4 559 -14 q 421 29 462 6 l 421 193 q 513 152 457 169 q 612 135 569 135 q 726 218 726 135 q 715 263 726 246 q 677 301 705 281 q 599 350 649 321 q 480 439 513 399 q 447 534 447 479 q 471 614 447 578 q 542 683 494 650 q 615 747 594 720 q 636 806 636 774 q 593 874 636 846 q 482 901 550 901 q 359 866 404 901 q 315 765 315 830 l 315 0 l 109 0 l 109 772 q 208 986 109 909 q 482 1063 307 1063 q 747 1003 648 1063 q 847 842 847 943 z "},"à":{"ha":839,"x_min":58,"x_max":734,"o":"m 590 0 l 550 103 l 545 103 q 437 12 492 37 q 293 -14 382 -14 q 121 49 184 -14 q 58 227 58 111 q 143 405 58 347 q 397 468 227 462 l 529 472 l 529 505 q 411 621 529 621 q 197 566 320 621 l 129 705 q 419 774 260 774 q 653 707 572 774 q 734 505 734 641 l 734 0 l 590 0 m 529 351 l 449 349 q 315 316 359 346 q 271 225 271 286 q 371 138 271 138 q 486 179 443 138 q 529 289 529 220 l 529 351 m 416 842 q 291 938 374 871 q 162 1050 208 1005 l 162 1064 l 394 1064 q 553 860 437 996 l 553 842 l 416 842 z "},"á":{"ha":839,"x_min":58,"x_max":734,"o":"m 590 0 l 550 103 l 545 103 q 437 12 492 37 q 293 -14 382 -14 q 121 49 184 -14 q 58 227 58 111 q 143 405 58 347 q 397 468 227 462 l 529 472 l 529 505 q 411 621 529 621 q 197 566 320 621 l 129 705 q 419 774 260 774 q 653 707 572 774 q 734 505 734 641 l 734 0 l 590 0 m 529 351 l 449 349 q 315 316 359 346 q 271 225 271 286 q 371 138 271 138 q 486 179 443 138 q 529 289 529 220 l 529 351 m 299 842 l 299 860 q 458 1064 416 996 l 690 1064 l 690 1050 q 570 945 655 1015 q 437 842 485 876 l 299 842 z "},"â":{"ha":839,"x_min":58,"x_max":734,"o":"m 590 0 l 550 103 l 545 103 q 437 12 492 37 q 293 -14 382 -14 q 121 49 184 -14 q 58 227 58 111 q 143 405 58 347 q 397 468 227 462 l 529 472 l 529 505 q 411 621 529 621 q 197 566 320 621 l 129 705 q 419 774 260 774 q 653 707 572 774 q 734 505 734 641 l 734 0 l 590 0 m 529 351 l 449 349 q 315 316 359 346 q 271 225 271 286 q 371 138 271 138 q 486 179 443 138 q 529 289 529 220 l 529 351 m 572 841 q 413 960 465 904 q 258 841 360 905 l 120 841 l 120 859 q 294 1063 248 987 l 536 1063 q 609 967 557 1028 q 709 859 661 907 l 709 841 l 572 841 z "},"ã":{"ha":839,"x_min":58,"x_max":734,"o":"m 590 0 l 550 103 l 545 103 q 437 12 492 37 q 293 -14 382 -14 q 121 49 184 -14 q 58 227 58 111 q 143 405 58 347 q 397 468 227 462 l 529 472 l 529 505 q 411 621 529 621 q 197 566 320 621 l 129 705 q 419 774 260 774 q 653 707 572 774 q 734 505 734 641 l 734 0 l 590 0 m 529 351 l 449 349 q 315 316 359 346 q 271 225 271 286 q 371 138 271 138 q 486 179 443 138 q 529 289 529 220 l 529 351 m 317 913 q 276 895 296 913 q 248 840 257 877 l 147 840 q 203 994 155 939 q 332 1050 252 1050 q 386 1039 359 1050 q 439 1014 413 1027 q 490 990 465 1001 q 540 979 515 979 q 580 997 561 979 q 608 1051 600 1015 l 709 1051 q 653 897 702 953 q 525 842 604 842 q 470 853 497 842 q 417 877 444 864 q 366 902 391 890 q 317 913 341 913 z "},"ä":{"ha":839,"x_min":58,"x_max":734,"o":"m 590 0 l 550 103 l 545 103 q 437 12 492 37 q 293 -14 382 -14 q 121 49 184 -14 q 58 227 58 111 q 143 405 58 347 q 397 468 227 462 l 529 472 l 529 505 q 411 621 529 621 q 197 566 320 621 l 129 705 q 419 774 260 774 q 653 707 572 774 q 734 505 734 641 l 734 0 l 590 0 m 529 351 l 449 349 q 315 316 359 346 q 271 225 271 286 q 371 138 271 138 q 486 179 443 138 q 529 289 529 220 l 529 351 m 193 953 q 219 1021 193 997 q 288 1044 244 1044 q 358 1019 332 1044 q 383 953 383 994 q 357 887 383 912 q 288 863 332 863 q 219 886 244 863 q 193 953 193 910 m 467 953 q 494 1022 467 1000 q 562 1044 522 1044 q 632 1020 606 1044 q 659 953 659 996 q 632 887 659 911 q 562 863 606 863 q 494 885 522 863 q 467 953 467 907 z "},"å":{"ha":839,"x_min":58,"x_max":734,"o":"m 590 0 l 550 103 l 545 103 q 437 12 492 37 q 293 -14 382 -14 q 121 49 184 -14 q 58 227 58 111 q 143 405 58 347 q 397 468 227 462 l 529 472 l 529 505 q 411 621 529 621 q 197 566 320 621 l 129 705 q 419 774 260 774 q 653 707 572 774 q 734 505 734 641 l 734 0 l 590 0 m 529 351 l 449 349 q 315 316 359 346 q 271 225 271 286 q 371 138 271 138 q 486 179 443 138 q 529 289 529 220 l 529 351 m 599 1003 q 551 885 599 930 q 427 840 503 840 q 304 884 351 840 q 258 1002 258 927 q 304 1119 258 1075 q 427 1162 350 1162 q 550 1118 501 1162 q 599 1003 599 1073 m 492 1002 q 473 1049 492 1032 q 427 1067 455 1067 q 380 1049 398 1067 q 361 1002 361 1032 q 378 954 361 971 q 427 936 394 936 q 473 954 455 936 q 492 1002 492 971 z "},"æ":{"ha":1274,"x_min":58,"x_max":1214,"o":"m 901 -14 q 732 21 808 -14 q 607 126 656 55 q 474 17 541 47 q 300 -14 407 -14 q 124 51 191 -14 q 58 227 58 115 q 140 405 58 347 q 386 468 222 462 l 515 472 l 515 529 q 485 598 515 576 q 403 621 455 621 q 196 568 308 621 l 129 705 q 415 774 257 774 q 647 685 569 774 q 750 750 692 728 q 890 772 809 772 q 1127 679 1040 772 q 1214 428 1214 586 l 1214 328 l 724 328 q 776 190 727 239 q 913 140 825 140 q 1171 200 1046 140 l 1171 40 q 1055 0 1117 14 q 901 -14 992 -14 m 515 351 l 439 349 q 313 316 355 346 q 271 225 271 287 q 366 138 271 138 q 475 179 434 138 q 515 289 515 220 l 515 351 m 886 625 q 728 465 739 625 l 1019 465 q 982 583 1018 541 q 886 625 946 625 z "},"ç":{"ha":714,"x_min":62,"x_max":671,"o":"m 416 -14 q 62 375 62 -14 q 159 670 62 568 q 435 772 255 772 q 671 721 566 772 l 610 561 q 519 593 561 581 q 435 606 477 606 q 273 376 273 606 q 435 154 273 154 q 545 170 494 154 q 647 220 596 186 l 647 43 q 546 -1 597 11 q 416 -14 494 -14 m 546 -170 q 495 -295 546 -256 q 336 -334 444 -334 q 237 -319 283 -334 l 237 -205 q 287 -215 256 -210 q 334 -220 317 -220 q 383 -178 383 -220 q 271 -104 383 -121 l 323 0 l 454 0 l 436 -41 q 516 -92 486 -58 q 546 -170 546 -126 z "},"è":{"ha":821,"x_min":62,"x_max":761,"o":"m 422 625 q 319 584 357 625 q 277 465 282 542 l 567 465 q 527 584 566 542 q 422 625 488 625 m 452 -14 q 165 87 269 -14 q 62 374 62 189 q 158 668 62 564 q 421 772 253 772 q 671 681 582 772 q 761 428 761 589 l 761 328 l 272 328 q 324 190 275 239 q 461 140 373 140 q 591 155 530 140 q 718 200 652 169 l 718 40 q 602 0 664 13 q 452 -14 541 -14 m 420 842 q 295 938 378 871 q 166 1050 212 1005 l 166 1064 l 398 1064 q 557 860 441 996 l 557 842 l 420 842 z "},"é":{"ha":821,"x_min":62,"x_max":761,"o":"m 422 625 q 319 584 357 625 q 277 465 282 542 l 567 465 q 527 584 566 542 q 422 625 488 625 m 452 -14 q 165 87 269 -14 q 62 374 62 189 q 158 668 62 564 q 421 772 253 772 q 671 681 582 772 q 761 428 761 589 l 761 328 l 272 328 q 324 190 275 239 q 461 140 373 140 q 591 155 530 140 q 718 200 652 169 l 718 40 q 602 0 664 13 q 452 -14 541 -14 m 303 842 l 303 860 q 463 1064 420 996 l 694 1064 l 694 1050 q 574 945 659 1015 q 441 842 489 876 l 303 842 z "},"ê":{"ha":821,"x_min":62,"x_max":761,"o":"m 422 625 q 319 584 357 625 q 277 465 282 542 l 567 465 q 527 584 566 542 q 422 625 488 625 m 452 -14 q 165 87 269 -14 q 62 374 62 189 q 158 668 62 564 q 421 772 253 772 q 671 681 582 772 q 761 428 761 589 l 761 328 l 272 328 q 324 190 275 239 q 461 140 373 140 q 591 155 530 140 q 718 200 652 169 l 718 40 q 602 0 664 13 q 452 -14 541 -14 m 583 842 q 425 961 477 905 q 269 842 372 906 l 132 842 l 132 860 q 305 1064 260 988 l 547 1064 q 620 968 568 1029 q 721 860 672 907 l 721 842 l 583 842 z "},"ë":{"ha":821,"x_min":62,"x_max":761,"o":"m 422 625 q 319 584 357 625 q 277 465 282 542 l 567 465 q 527 584 566 542 q 422 625 488 625 m 452 -14 q 165 87 269 -14 q 62 374 62 189 q 158 668 62 564 q 421 772 253 772 q 671 681 582 772 q 761 428 761 589 l 761 328 l 272 328 q 324 190 275 239 q 461 140 373 140 q 591 155 530 140 q 718 200 652 169 l 718 40 q 602 0 664 13 q 452 -14 541 -14 m 201 953 q 227 1021 201 997 q 296 1044 252 1044 q 366 1019 340 1044 q 391 953 391 994 q 366 887 391 912 q 296 863 340 863 q 227 886 252 863 q 201 953 201 910 m 475 953 q 502 1022 475 1000 q 570 1044 530 1044 q 641 1020 614 1044 q 667 953 667 996 q 640 887 667 911 q 570 863 614 863 q 502 885 530 863 q 475 953 475 907 z "},"ì":{"ha":424,"x_min":-68,"x_max":323,"o":"m 315 0 l 109 0 l 109 758 l 315 758 l 315 0 m 186 842 q 60 938 143 871 q -68 1050 -22 1005 l -68 1064 l 163 1064 q 323 860 206 996 l 323 842 l 186 842 z "},"í":{"ha":424,"x_min":98,"x_max":490,"o":"m 315 0 l 109 0 l 109 758 l 315 758 l 315 0 m 98 842 l 98 860 q 258 1064 215 996 l 490 1064 l 490 1050 q 369 945 454 1015 q 236 842 284 876 l 98 842 z "},"î":{"ha":424,"x_min":-83,"x_max":507,"o":"m 315 0 l 109 0 l 109 758 l 315 758 l 315 0 m 369 842 q 210 961 262 905 q 55 842 157 906 l -83 842 l -83 860 q 91 1064 45 988 l 333 1064 q 406 968 354 1029 q 507 860 458 907 l 507 842 l 369 842 z "},"ï":{"ha":424,"x_min":-20,"x_max":446,"o":"m 315 0 l 109 0 l 109 758 l 315 758 l 315 0 m -20 953 q 6 1021 -20 997 q 75 1044 31 1044 q 145 1019 119 1044 q 170 953 170 994 q 144 887 170 912 q 75 863 119 863 q 6 886 31 863 q -20 953 -20 910 m 254 953 q 281 1022 254 1000 q 349 1044 309 1044 q 419 1020 393 1044 q 446 953 446 996 q 419 887 446 911 q 349 863 393 863 q 281 885 309 863 q 254 953 254 907 z "},"ð":{"ha":860,"x_min":62,"x_max":798,"o":"m 346 884 q 243 946 292 920 l 311 1065 q 486 970 409 1021 l 639 1064 l 707 960 l 591 889 q 747 669 697 792 q 798 389 798 546 q 699 93 798 199 q 428 -14 601 -14 q 162 79 262 -14 q 62 332 62 172 q 151 582 62 490 q 389 675 239 675 q 575 608 528 675 l 581 611 q 450 802 535 721 l 294 705 l 227 811 l 346 884 m 586 361 q 545 478 586 434 q 431 522 503 522 q 311 476 349 522 q 273 330 273 429 q 314 187 273 235 q 431 139 355 139 q 550 195 514 139 q 586 361 586 250 z "},"ñ":{"ha":913,"x_min":109,"x_max":808,"o":"m 808 0 l 602 0 l 602 443 q 572 566 602 525 q 479 607 543 607 q 354 549 393 607 q 315 357 315 491 l 315 0 l 109 0 l 109 758 l 267 758 l 294 661 l 306 661 q 401 744 340 716 q 539 772 462 772 q 740 701 671 772 q 808 494 808 629 l 808 0 m 345 913 q 304 895 323 913 q 276 840 285 877 l 175 840 q 231 994 182 939 q 359 1050 279 1050 q 414 1039 387 1050 q 467 1014 441 1027 q 518 990 493 1001 q 568 979 543 979 q 608 997 589 979 q 636 1051 627 1015 l 737 1051 q 681 897 730 953 q 553 842 631 842 q 498 853 525 842 q 445 877 471 864 q 394 902 419 890 q 345 913 369 913 z "},"ò":{"ha":860,"x_min":62,"x_max":798,"o":"m 273 380 q 310 210 273 268 q 431 153 347 153 q 550 210 513 153 q 586 380 586 267 q 549 549 586 493 q 429 606 513 606 q 310 550 347 606 q 273 380 273 494 m 798 380 q 700 91 798 195 q 428 -14 602 -14 q 235 34 319 -14 q 107 172 152 82 q 62 380 62 261 q 159 669 62 566 q 432 772 256 772 q 625 725 541 772 q 753 589 708 677 q 798 380 798 500 m 415 842 q 290 938 372 871 q 161 1050 207 1005 l 161 1064 l 393 1064 q 552 860 435 996 l 552 842 l 415 842 z "},"ó":{"ha":860,"x_min":62,"x_max":798,"o":"m 273 380 q 310 210 273 268 q 431 153 347 153 q 550 210 513 153 q 586 380 586 267 q 549 549 586 493 q 429 606 513 606 q 310 550 347 606 q 273 380 273 494 m 798 380 q 700 91 798 195 q 428 -14 602 -14 q 235 34 319 -14 q 107 172 152 82 q 62 380 62 261 q 159 669 62 566 q 432 772 256 772 q 625 725 541 772 q 753 589 708 677 q 798 380 798 500 m 317 842 l 317 860 q 476 1064 433 996 l 708 1064 l 708 1050 q 588 945 673 1015 q 454 842 503 876 l 317 842 z "},"ô":{"ha":860,"x_min":62,"x_max":798,"o":"m 273 380 q 310 210 273 268 q 431 153 347 153 q 550 210 513 153 q 586 380 586 267 q 549 549 586 493 q 429 606 513 606 q 310 550 347 606 q 273 380 273 494 m 798 380 q 700 91 798 195 q 428 -14 602 -14 q 235 34 319 -14 q 107 172 152 82 q 62 380 62 261 q 159 669 62 566 q 432 772 256 772 q 625 725 541 772 q 753 589 708 677 q 798 380 798 500 m 586 842 q 427 961 479 905 q 272 842 374 906 l 134 842 l 134 860 q 308 1064 262 988 l 550 1064 q 623 968 571 1029 q 724 860 675 907 l 724 842 l 586 842 z "},"õ":{"ha":860,"x_min":62,"x_max":798,"o":"m 273 380 q 310 210 273 268 q 431 153 347 153 q 550 210 513 153 q 586 380 586 267 q 549 549 586 493 q 429 606 513 606 q 310 550 347 606 q 273 380 273 494 m 798 380 q 700 91 798 195 q 428 -14 602 -14 q 235 34 319 -14 q 107 172 152 82 q 62 380 62 261 q 159 669 62 566 q 432 772 256 772 q 625 725 541 772 q 753 589 708 677 q 798 380 798 500 m 318 913 q 278 895 297 913 q 250 840 258 877 l 149 840 q 204 994 156 939 q 333 1050 253 1050 q 388 1039 361 1050 q 440 1014 414 1027 q 492 990 467 1001 q 541 979 517 979 q 582 997 562 979 q 610 1051 601 1015 l 711 1051 q 654 897 703 953 q 526 842 605 842 q 472 853 498 842 q 419 877 445 864 q 368 902 393 890 q 318 913 342 913 z "},"ö":{"ha":860,"x_min":62,"x_max":798,"o":"m 273 380 q 310 210 273 268 q 431 153 347 153 q 550 210 513 153 q 586 380 586 267 q 549 549 586 493 q 429 606 513 606 q 310 550 347 606 q 273 380 273 494 m 798 380 q 700 91 798 195 q 428 -14 602 -14 q 235 34 319 -14 q 107 172 152 82 q 62 380 62 261 q 159 669 62 566 q 432 772 256 772 q 625 725 541 772 q 753 589 708 677 q 798 380 798 500 m 197 953 q 223 1021 197 997 q 292 1044 248 1044 q 362 1019 336 1044 q 387 953 387 994 q 361 887 387 912 q 292 863 336 863 q 223 886 248 863 q 197 953 197 910 m 471 953 q 498 1022 471 1000 q 566 1044 526 1044 q 636 1020 610 1044 q 663 953 663 996 q 636 887 663 911 q 566 863 610 863 q 498 885 526 863 q 471 953 471 907 z "},"÷":{"ha":793,"x_min":60,"x_max":733,"o":"m 60 415 l 60 564 l 733 564 l 733 415 l 60 415 m 301 253 q 326 330 301 304 q 396 355 351 355 q 466 329 441 355 q 490 253 490 302 q 465 178 490 205 q 396 150 440 150 q 327 176 352 150 q 301 253 301 203 m 301 726 q 326 803 301 777 q 396 829 351 829 q 466 802 441 829 q 490 726 490 774 q 465 651 490 679 q 396 624 440 624 q 327 650 352 624 q 301 726 301 677 z "},"ø":{"ha":860,"x_min":62,"x_max":798,"o":"m 798 380 q 700 91 798 195 q 428 -14 602 -14 q 269 17 342 -14 l 224 -52 l 119 20 l 165 87 q 62 380 62 193 q 159 669 62 566 q 432 772 256 772 q 600 737 522 772 l 637 793 l 741 720 l 701 663 q 798 380 798 557 m 273 380 q 286 268 273 317 l 501 590 q 429 606 472 606 q 310 550 347 606 q 273 380 273 494 m 586 380 q 578 476 586 435 l 368 163 q 431 153 394 153 q 550 210 513 153 q 586 380 586 267 z "},"ù":{"ha":913,"x_min":104,"x_max":804,"o":"m 646 0 l 618 97 l 607 97 q 513 15 574 44 q 374 -14 452 -14 q 172 58 240 -14 q 104 264 104 130 l 104 758 l 311 758 l 311 315 q 340 192 311 233 q 433 151 370 151 q 559 209 520 151 q 597 401 597 267 l 597 758 l 804 758 l 804 0 l 646 0 m 420 842 q 295 938 378 871 q 166 1050 212 1005 l 166 1064 l 398 1064 q 557 860 441 996 l 557 842 l 420 842 z "},"ú":{"ha":913,"x_min":104,"x_max":804,"o":"m 646 0 l 618 97 l 607 97 q 513 15 574 44 q 374 -14 452 -14 q 172 58 240 -14 q 104 264 104 130 l 104 758 l 311 758 l 311 315 q 340 192 311 233 q 433 151 370 151 q 559 209 520 151 q 597 401 597 267 l 597 758 l 804 758 l 804 0 l 646 0 m 338 842 l 338 860 q 497 1064 454 996 l 729 1064 l 729 1050 q 609 945 694 1015 q 475 842 524 876 l 338 842 z "},"û":{"ha":913,"x_min":104,"x_max":804,"o":"m 646 0 l 618 97 l 607 97 q 513 15 574 44 q 374 -14 452 -14 q 172 58 240 -14 q 104 264 104 130 l 104 758 l 311 758 l 311 315 q 340 192 311 233 q 433 151 370 151 q 559 209 520 151 q 597 401 597 267 l 597 758 l 804 758 l 804 0 l 646 0 m 611 842 q 452 961 505 905 q 297 842 399 906 l 159 842 l 159 860 q 333 1064 288 988 l 575 1064 q 648 968 596 1029 q 749 860 700 907 l 749 842 l 611 842 z "},"ü":{"ha":913,"x_min":104,"x_max":804,"o":"m 646 0 l 618 97 l 607 97 q 513 15 574 44 q 374 -14 452 -14 q 172 58 240 -14 q 104 264 104 130 l 104 758 l 311 758 l 311 315 q 340 192 311 233 q 433 151 370 151 q 559 209 520 151 q 597 401 597 267 l 597 758 l 804 758 l 804 0 l 646 0 m 221 953 q 247 1021 221 997 q 315 1044 272 1044 q 386 1019 360 1044 q 411 953 411 994 q 385 887 411 912 q 315 863 359 863 q 247 886 272 863 q 221 953 221 910 m 494 953 q 522 1022 494 1000 q 590 1044 549 1044 q 660 1020 634 1044 q 686 953 686 996 q 660 887 686 911 q 590 863 633 863 q 522 885 549 863 q 494 953 494 907 z "},"ý":{"ha":790,"x_min":0,"x_max":790,"o":"m 0 758 l 227 758 l 370 332 q 395 200 388 276 l 399 200 q 428 332 406 270 l 568 758 l 790 758 l 469 -97 q 343 -275 425 -216 q 153 -334 262 -334 q 47 -322 99 -334 l 47 -158 q 129 -167 85 -167 q 225 -133 184 -167 q 289 -32 266 -100 l 301 5 l 0 758 m 267 842 l 267 860 q 426 1064 383 996 l 658 1064 l 658 1050 q 537 945 623 1015 q 404 842 452 876 l 267 842 z "},"þ":{"ha":879,"x_min":109,"x_max":817,"o":"m 315 660 q 404 744 349 715 q 530 772 459 772 q 741 668 665 772 q 817 380 817 563 q 741 91 817 195 q 530 -14 665 -14 q 315 79 386 -14 l 306 79 l 311 37 l 315 -26 l 315 -334 l 109 -334 l 109 1055 l 315 1055 l 315 790 l 311 709 l 306 660 l 315 660 m 464 607 q 352 560 387 607 q 315 404 317 513 l 315 382 q 352 207 315 260 q 467 154 388 154 q 606 383 606 154 q 571 551 606 495 q 464 607 537 607 z "},"ÿ":{"ha":790,"x_min":0,"x_max":790,"o":"m 0 758 l 227 758 l 370 332 q 395 200 388 276 l 399 200 q 428 332 406 270 l 568 758 l 790 758 l 469 -97 q 343 -275 425 -216 q 153 -334 262 -334 q 47 -322 99 -334 l 47 -158 q 129 -167 85 -167 q 225 -133 184 -167 q 289 -32 266 -100 l 301 5 l 0 758 m 165 953 q 190 1021 165 997 q 259 1044 216 1044 q 329 1019 304 1044 q 355 953 355 994 q 329 887 355 912 q 259 863 303 863 q 190 886 216 863 q 165 953 165 910 m 438 953 q 466 1022 438 1000 q 534 1044 493 1044 q 604 1020 578 1044 q 630 953 630 996 q 604 887 630 911 q 534 863 577 863 q 466 885 493 863 q 438 953 438 907 z "},"Ā":{"ha":958,"x_min":0,"x_max":958,"o":"m 732 0 l 660 236 l 298 236 l 227 0 l 0 0 l 350 996 l 607 996 l 958 0 l 732 0 m 610 412 q 497 775 510 733 q 479 842 485 817 q 351 412 457 755 l 610 412 m 252 1214 l 711 1214 l 711 1071 l 252 1071 l 252 1214 z "},"ā":{"ha":839,"x_min":58,"x_max":734,"o":"m 590 0 l 550 103 l 545 103 q 437 12 492 37 q 293 -14 382 -14 q 121 49 184 -14 q 58 227 58 111 q 143 405 58 347 q 397 468 227 462 l 529 472 l 529 505 q 411 621 529 621 q 197 566 320 621 l 129 705 q 419 774 260 774 q 653 707 572 774 q 734 505 734 641 l 734 0 l 590 0 m 529 351 l 449 349 q 315 316 359 346 q 271 225 271 286 q 371 138 271 138 q 486 179 443 138 q 529 289 529 220 l 529 351 m 199 985 l 659 985 l 659 842 l 199 842 l 199 985 z "},"Ă":{"ha":958,"x_min":0,"x_max":958,"o":"m 732 0 l 660 236 l 298 236 l 227 0 l 0 0 l 350 996 l 607 996 l 958 0 l 732 0 m 610 412 q 497 775 510 733 q 479 842 485 817 q 351 412 457 755 l 610 412 m 746 1300 q 663 1133 738 1196 q 476 1071 589 1071 q 288 1133 358 1071 q 212 1300 218 1194 l 328 1300 q 346 1250 330 1268 q 391 1223 362 1232 q 477 1215 420 1215 q 628 1300 617 1215 l 746 1300 z "},"ă":{"ha":839,"x_min":58,"x_max":734,"o":"m 590 0 l 550 103 l 545 103 q 437 12 492 37 q 293 -14 382 -14 q 121 49 184 -14 q 58 227 58 111 q 143 405 58 347 q 397 468 227 462 l 529 472 l 529 505 q 411 621 529 621 q 197 566 320 621 l 129 705 q 419 774 260 774 q 653 707 572 774 q 734 505 734 641 l 734 0 l 590 0 m 529 351 l 449 349 q 315 316 359 346 q 271 225 271 286 q 371 138 271 138 q 486 179 443 138 q 529 289 529 220 l 529 351 m 696 1071 q 613 904 688 966 q 426 842 538 842 q 238 903 308 842 q 162 1071 168 965 l 277 1071 q 296 1021 280 1039 q 341 994 312 1002 q 427 986 370 986 q 578 1071 567 986 l 696 1071 z "},"Ą":{"ha":958,"x_min":0,"x_max":958,"o":"m 732 0 l 660 236 l 298 236 l 227 0 l 0 0 l 350 996 l 607 996 l 958 0 l 732 0 m 610 412 q 497 775 510 733 q 479 842 485 817 q 351 412 457 755 l 610 412 m 754 -154 q 769 -196 754 -182 q 808 -210 785 -210 q 886 -197 846 -210 l 886 -318 q 781 -334 831 -334 q 657 -291 704 -334 q 611 -178 611 -248 q 637 -92 611 -132 q 733 0 663 -52 l 854 0 q 781 -82 807 -45 q 754 -154 754 -119 z "},"ą":{"ha":839,"x_min":58,"x_max":746,"o":"m 590 0 l 550 103 l 545 103 q 437 12 492 37 q 293 -14 382 -14 q 121 49 184 -14 q 58 227 58 111 q 143 405 58 347 q 397 468 227 462 l 529 472 l 529 505 q 411 621 529 621 q 197 566 320 621 l 129 705 q 419 774 260 774 q 653 707 572 774 q 734 505 734 641 l 734 0 l 590 0 m 529 351 l 449 349 q 315 316 359 346 q 271 225 271 286 q 371 138 271 138 q 486 179 443 138 q 529 289 529 220 l 529 351 m 614 -154 q 629 -196 614 -182 q 668 -210 644 -210 q 746 -197 705 -210 l 746 -318 q 640 -334 690 -334 q 517 -291 564 -334 q 471 -178 471 -248 q 496 -92 471 -132 q 593 0 522 -52 l 714 0 q 640 -82 667 -45 q 614 -154 614 -119 z "},"Ć":{"ha":885,"x_min":81,"x_max":836,"o":"m 546 831 q 362 742 427 831 q 297 493 297 652 q 546 161 297 161 q 799 214 650 161 l 799 37 q 526 -14 677 -14 q 195 118 310 -14 q 81 494 81 249 q 137 765 81 649 q 299 944 193 882 q 546 1006 404 1006 q 836 936 690 1006 l 768 765 q 656 811 713 791 q 546 831 600 831 m 406 1071 l 406 1089 q 565 1293 522 1225 l 797 1293 l 797 1279 q 676 1174 762 1244 q 543 1071 591 1105 l 406 1071 z "},"ć":{"ha":714,"x_min":62,"x_max":692,"o":"m 416 -14 q 62 375 62 -14 q 159 670 62 568 q 435 772 255 772 q 671 721 566 772 l 610 561 q 519 593 561 581 q 435 606 477 606 q 273 376 273 606 q 435 154 273 154 q 545 170 494 154 q 647 220 596 186 l 647 43 q 546 -1 597 11 q 416 -14 494 -14 m 300 842 l 300 860 q 460 1064 417 996 l 692 1064 l 692 1050 q 571 945 656 1015 q 438 842 486 876 l 300 842 z "},"Ĉ":{"ha":885,"x_min":81,"x_max":836,"o":"m 546 831 q 362 742 427 831 q 297 493 297 652 q 546 161 297 161 q 799 214 650 161 l 799 37 q 526 -14 677 -14 q 195 118 310 -14 q 81 494 81 249 q 137 765 81 649 q 299 944 193 882 q 546 1006 404 1006 q 836 936 690 1006 l 768 765 q 656 811 713 791 q 546 831 600 831 m 693 1071 q 534 1190 587 1134 q 379 1071 481 1135 l 241 1071 l 241 1089 q 415 1293 370 1217 l 657 1293 q 730 1197 678 1258 q 831 1089 782 1137 l 831 1071 l 693 1071 z "},"ĉ":{"ha":714,"x_min":62,"x_max":704,"o":"m 416 -14 q 62 375 62 -14 q 159 670 62 568 q 435 772 255 772 q 671 721 566 772 l 610 561 q 519 593 561 581 q 435 606 477 606 q 273 376 273 606 q 435 154 273 154 q 545 170 494 154 q 647 220 596 186 l 647 43 q 546 -1 597 11 q 416 -14 494 -14 m 566 842 q 408 961 460 905 q 252 842 355 906 l 115 842 l 115 860 q 288 1064 243 988 l 530 1064 q 603 968 551 1029 q 704 860 655 907 l 704 842 l 566 842 z "},"Ċ":{"ha":885,"x_min":81,"x_max":836,"o":"m 546 831 q 362 742 427 831 q 297 493 297 652 q 546 161 297 161 q 799 214 650 161 l 799 37 q 526 -14 677 -14 q 195 118 310 -14 q 81 494 81 249 q 137 765 81 649 q 299 944 193 882 q 546 1006 404 1006 q 836 936 690 1006 l 768 765 q 656 811 713 791 q 546 831 600 831 m 420 1183 q 533 1284 420 1284 q 646 1183 646 1284 q 617 1108 646 1135 q 533 1082 589 1082 q 420 1183 420 1082 z "},"ċ":{"ha":714,"x_min":62,"x_max":671,"o":"m 416 -14 q 62 375 62 -14 q 159 670 62 568 q 435 772 255 772 q 671 721 566 772 l 610 561 q 519 593 561 581 q 435 606 477 606 q 273 376 273 606 q 435 154 273 154 q 545 170 494 154 q 647 220 596 186 l 647 43 q 546 -1 597 11 q 416 -14 494 -14 m 313 954 q 426 1055 313 1055 q 538 954 538 1055 q 510 879 538 906 q 426 852 482 852 q 313 954 313 852 z "},"Č":{"ha":885,"x_min":81,"x_max":836,"o":"m 546 831 q 362 742 427 831 q 297 493 297 652 q 546 161 297 161 q 799 214 650 161 l 799 37 q 526 -14 677 -14 q 195 118 310 -14 q 81 494 81 249 q 137 765 81 649 q 299 944 193 882 q 546 1006 404 1006 q 836 936 690 1006 l 768 765 q 656 811 713 791 q 546 831 600 831 m 832 1293 l 832 1275 q 727 1161 775 1218 q 659 1071 680 1105 l 416 1071 q 360 1147 397 1103 q 243 1275 323 1192 l 243 1293 l 380 1293 q 536 1174 480 1230 q 694 1293 593 1233 l 832 1293 z "},"č":{"ha":714,"x_min":62,"x_max":715,"o":"m 416 -14 q 62 375 62 -14 q 159 670 62 568 q 435 772 255 772 q 671 721 566 772 l 610 561 q 519 593 561 581 q 435 606 477 606 q 273 376 273 606 q 435 154 273 154 q 545 170 494 154 q 647 220 596 186 l 647 43 q 546 -1 597 11 q 416 -14 494 -14 m 715 1064 l 715 1046 q 611 932 659 989 q 542 842 563 876 l 300 842 q 243 918 280 873 q 126 1046 207 962 l 126 1064 l 264 1064 q 419 945 363 1001 q 578 1064 476 1004 l 715 1064 z "},"Ď":{"ha":1028,"x_min":125,"x_max":947,"o":"m 947 505 q 808 130 947 260 q 406 0 669 0 l 125 0 l 125 991 l 436 991 q 813 863 679 991 q 947 505 947 735 m 729 500 q 447 819 729 819 l 335 819 l 335 174 l 425 174 q 729 500 729 174 m 786 1293 l 786 1275 q 681 1161 729 1218 q 612 1071 633 1105 l 370 1071 q 314 1147 351 1103 q 197 1275 277 1192 l 197 1293 l 334 1293 q 490 1174 434 1230 q 648 1293 547 1233 l 786 1293 z "},"ď":{"ha":879,"x_min":62,"x_max":1067,"o":"m 349 -14 q 139 90 215 -14 q 62 378 62 194 q 140 668 62 564 q 354 772 218 772 q 572 661 497 772 l 579 661 q 564 812 564 746 l 564 1055 l 771 1055 l 771 0 l 612 0 l 572 98 l 564 98 q 349 -14 493 -14 m 421 151 q 537 197 500 151 q 578 354 574 243 l 578 376 q 540 551 578 498 q 418 604 503 604 q 310 546 349 604 q 272 375 272 487 q 311 207 272 263 q 421 151 349 151 m 833 851 q 857 948 844 884 q 876 1055 870 1012 l 1067 1055 l 1067 1042 q 954 833 1013 922 l 833 833 l 833 851 z "},"Đ":{"ha":1028,"x_min":32,"x_max":947,"o":"m 32 576 l 125 576 l 125 991 l 436 991 q 813 863 679 991 q 947 505 947 735 q 808 130 947 260 q 406 0 669 0 l 125 0 l 125 404 l 32 404 l 32 576 m 729 500 q 659 738 729 657 q 446 819 588 819 l 335 819 l 335 576 l 496 576 l 496 404 l 335 404 l 335 174 l 424 174 q 729 500 729 174 z "},"đ":{"ha":901,"x_min":62,"x_max":876,"o":"m 342 -14 q 137 84 212 -14 q 62 357 62 182 q 130 639 62 548 q 349 730 197 730 q 479 702 422 730 q 572 619 536 673 l 579 619 q 564 777 564 708 l 564 811 l 350 811 l 350 946 l 564 946 l 564 1055 l 771 1055 l 771 946 l 876 946 l 876 811 l 771 811 l 771 0 l 603 0 l 559 98 l 551 98 q 342 -14 481 -14 m 429 151 q 539 193 504 151 q 578 336 575 235 l 578 355 q 544 518 578 475 q 419 562 509 562 q 316 515 344 562 q 288 354 288 469 q 321 202 288 253 q 429 151 355 151 z "},"Ē":{"ha":778,"x_min":125,"x_max":696,"o":"m 696 0 l 125 0 l 125 991 l 696 991 l 696 819 l 335 819 l 335 602 l 671 602 l 671 429 l 335 429 l 335 174 l 696 174 l 696 0 m 186 1214 l 646 1214 l 646 1071 l 186 1071 l 186 1214 z "},"ē":{"ha":821,"x_min":62,"x_max":761,"o":"m 422 625 q 319 584 357 625 q 277 465 282 542 l 567 465 q 527 584 566 542 q 422 625 488 625 m 452 -14 q 165 87 269 -14 q 62 374 62 189 q 158 668 62 564 q 421 772 253 772 q 671 681 582 772 q 761 428 761 589 l 761 328 l 272 328 q 324 190 275 239 q 461 140 373 140 q 591 155 530 140 q 718 200 652 169 l 718 40 q 602 0 664 13 q 452 -14 541 -14 m 189 985 l 648 985 l 648 842 l 189 842 l 189 985 z "},"Ĕ":{"ha":778,"x_min":125,"x_max":696,"o":"m 696 0 l 125 0 l 125 991 l 696 991 l 696 819 l 335 819 l 335 602 l 671 602 l 671 429 l 335 429 l 335 174 l 696 174 l 696 0 m 673 1300 q 590 1133 665 1196 q 403 1071 515 1071 q 215 1133 285 1071 q 139 1300 144 1194 l 254 1300 q 273 1250 257 1268 q 318 1223 289 1232 q 404 1215 347 1215 q 555 1300 544 1215 l 673 1300 z "},"ĕ":{"ha":821,"x_min":62,"x_max":761,"o":"m 422 625 q 319 584 357 625 q 277 465 282 542 l 567 465 q 527 584 566 542 q 422 625 488 625 m 452 -14 q 165 87 269 -14 q 62 374 62 189 q 158 668 62 564 q 421 772 253 772 q 671 681 582 772 q 761 428 761 589 l 761 328 l 272 328 q 324 190 275 239 q 461 140 373 140 q 591 155 530 140 q 718 200 652 169 l 718 40 q 602 0 664 13 q 452 -14 541 -14 m 688 1071 q 605 904 680 966 q 418 842 530 842 q 230 903 300 842 q 154 1071 159 965 l 269 1071 q 288 1021 272 1039 q 333 994 304 1002 q 419 986 361 986 q 570 1071 559 986 l 688 1071 z "},"Ė":{"ha":778,"x_min":125,"x_max":696,"o":"m 696 0 l 125 0 l 125 991 l 696 991 l 696 819 l 335 819 l 335 602 l 671 602 l 671 429 l 335 429 l 335 174 l 696 174 l 696 0 m 305 1164 q 418 1265 305 1265 q 530 1164 530 1265 q 502 1089 530 1116 q 418 1062 474 1062 q 305 1164 305 1062 z "},"ė":{"ha":821,"x_min":62,"x_max":761,"o":"m 422 625 q 319 584 357 625 q 277 465 282 542 l 567 465 q 527 584 566 542 q 422 625 488 625 m 452 -14 q 165 87 269 -14 q 62 374 62 189 q 158 668 62 564 q 421 772 253 772 q 671 681 582 772 q 761 428 761 589 l 761 328 l 272 328 q 324 190 275 239 q 461 140 373 140 q 591 155 530 140 q 718 200 652 169 l 718 40 q 602 0 664 13 q 452 -14 541 -14 m 316 954 q 429 1055 316 1055 q 541 954 541 1055 q 513 879 541 906 q 429 852 485 852 q 316 954 316 852 z "},"Ę":{"ha":778,"x_min":125,"x_max":696,"o":"m 696 0 l 125 0 l 125 991 l 696 991 l 696 819 l 335 819 l 335 602 l 671 602 l 671 429 l 335 429 l 335 174 l 696 174 l 696 0 m 533 -154 q 548 -196 533 -182 q 587 -210 564 -210 q 665 -197 625 -210 l 665 -318 q 559 -334 610 -334 q 436 -291 483 -334 q 390 -178 390 -248 q 416 -92 390 -132 q 512 0 441 -52 l 633 0 q 559 -82 586 -45 q 533 -154 533 -119 z "},"ę":{"ha":821,"x_min":62,"x_max":761,"o":"m 422 625 q 319 584 357 625 q 277 465 282 542 l 567 465 q 527 584 566 542 q 422 625 488 625 m 452 -14 q 165 87 269 -14 q 62 374 62 189 q 158 668 62 564 q 421 772 253 772 q 671 681 582 772 q 761 428 761 589 l 761 328 l 272 328 q 324 190 275 239 q 461 140 373 140 q 591 155 530 140 q 718 200 652 169 l 718 40 q 602 0 664 13 q 452 -14 541 -14 m 540 -140 q 555 -182 540 -169 q 594 -196 570 -196 q 672 -184 631 -196 l 672 -304 q 566 -320 616 -320 q 443 -277 490 -320 q 397 -164 397 -234 q 422 -79 397 -119 q 519 14 448 -39 l 640 14 q 566 -68 593 -31 q 540 -140 540 -105 z "},"Ě":{"ha":778,"x_min":119,"x_max":708,"o":"m 696 0 l 125 0 l 125 991 l 696 991 l 696 819 l 335 819 l 335 602 l 671 602 l 671 429 l 335 429 l 335 174 l 696 174 l 696 0 m 708 1293 l 708 1275 q 603 1161 651 1218 q 534 1071 555 1105 l 292 1071 q 236 1147 273 1103 q 119 1275 199 1192 l 119 1293 l 256 1293 q 412 1174 356 1230 q 570 1293 469 1233 l 708 1293 z "},"ě":{"ha":821,"x_min":62,"x_max":761,"o":"m 422 625 q 319 584 357 625 q 277 465 282 542 l 567 465 q 527 584 566 542 q 422 625 488 625 m 452 -14 q 165 87 269 -14 q 62 374 62 189 q 158 668 62 564 q 421 772 253 772 q 671 681 582 772 q 761 428 761 589 l 761 328 l 272 328 q 324 190 275 239 q 461 140 373 140 q 591 155 530 140 q 718 200 652 169 l 718 40 q 602 0 664 13 q 452 -14 541 -14 m 717 1064 l 717 1046 q 612 932 660 989 q 543 842 564 876 l 301 842 q 245 918 281 873 q 127 1046 208 962 l 127 1064 l 265 1064 q 420 945 365 1001 q 579 1064 477 1004 l 717 1064 z "},"Ĝ":{"ha":1006,"x_min":81,"x_max":895,"o":"m 501 557 l 895 557 l 895 43 q 714 -1 799 12 q 542 -14 630 -14 q 199 118 317 -14 q 81 497 81 250 q 218 871 81 737 q 599 1006 355 1006 q 893 945 751 1006 l 823 777 q 597 831 715 831 q 379 739 461 831 q 297 493 297 648 q 363 247 297 332 q 555 161 429 161 q 689 175 621 161 l 689 382 l 501 382 l 501 557 m 703 1071 q 544 1190 596 1134 q 389 1071 491 1135 l 251 1071 l 251 1089 q 425 1293 379 1217 l 667 1293 q 740 1197 688 1258 q 840 1089 791 1137 l 840 1071 l 703 1071 z "},"ĝ":{"ha":785,"x_min":4,"x_max":768,"o":"m 768 758 l 768 653 l 650 623 q 682 509 682 572 q 597 318 682 387 q 361 250 512 250 l 323 252 l 293 256 q 261 201 261 231 q 375 157 261 157 l 504 157 q 694 103 629 157 q 760 -54 760 50 q 649 -260 760 -187 q 330 -334 538 -334 q 88 -278 172 -334 q 4 -123 4 -223 q 47 -9 4 -55 q 172 57 90 37 q 117 101 140 71 q 93 167 93 132 q 118 239 93 210 q 191 296 143 268 q 96 378 131 321 q 61 513 61 435 q 142 705 61 637 q 372 772 222 772 q 448 767 404 772 q 504 758 492 761 l 768 758 m 183 -107 q 224 -174 183 -150 q 339 -199 265 -199 q 513 -168 450 -199 q 576 -85 576 -138 q 539 -26 576 -42 q 424 -9 502 -9 l 317 -9 q 221 -36 260 -9 q 183 -107 183 -63 m 258 510 q 287 412 258 448 q 372 376 315 376 q 458 412 431 376 q 485 510 485 448 q 372 647 485 647 q 258 510 258 647 m 553 842 q 395 961 447 905 q 239 842 342 906 l 102 842 l 102 860 q 275 1064 230 988 l 517 1064 q 590 968 538 1029 q 691 860 642 907 l 691 842 l 553 842 z "},"Ğ":{"ha":1006,"x_min":81,"x_max":895,"o":"m 501 557 l 895 557 l 895 43 q 714 -1 799 12 q 542 -14 630 -14 q 199 118 317 -14 q 81 497 81 250 q 218 871 81 737 q 599 1006 355 1006 q 893 945 751 1006 l 823 777 q 597 831 715 831 q 379 739 461 831 q 297 493 297 648 q 363 247 297 332 q 555 161 429 161 q 689 175 621 161 l 689 382 l 501 382 l 501 557 m 817 1300 q 734 1133 808 1196 q 547 1071 659 1071 q 358 1133 429 1071 q 283 1300 288 1194 l 398 1300 q 417 1250 401 1268 q 461 1223 433 1232 q 548 1215 490 1215 q 699 1300 688 1215 l 817 1300 z "},"ğ":{"ha":785,"x_min":4,"x_max":768,"o":"m 768 758 l 768 653 l 650 623 q 682 509 682 572 q 597 318 682 387 q 361 250 512 250 l 323 252 l 293 256 q 261 201 261 231 q 375 157 261 157 l 504 157 q 694 103 629 157 q 760 -54 760 50 q 649 -260 760 -187 q 330 -334 538 -334 q 88 -278 172 -334 q 4 -123 4 -223 q 47 -9 4 -55 q 172 57 90 37 q 117 101 140 71 q 93 167 93 132 q 118 239 93 210 q 191 296 143 268 q 96 378 131 321 q 61 513 61 435 q 142 705 61 637 q 372 772 222 772 q 448 767 404 772 q 504 758 492 761 l 768 758 m 183 -107 q 224 -174 183 -150 q 339 -199 265 -199 q 513 -168 450 -199 q 576 -85 576 -138 q 539 -26 576 -42 q 424 -9 502 -9 l 317 -9 q 221 -36 260 -9 q 183 -107 183 -63 m 258 510 q 287 412 258 448 q 372 376 315 376 q 458 412 431 376 q 485 510 485 448 q 372 647 485 647 q 258 510 258 647 m 667 1071 q 585 904 659 966 q 397 842 510 842 q 209 903 279 842 q 134 1071 139 965 l 249 1071 q 268 1021 252 1039 q 312 994 283 1002 q 399 986 341 986 q 549 1071 538 986 l 667 1071 z "},"Ġ":{"ha":1006,"x_min":81,"x_max":895,"o":"m 501 557 l 895 557 l 895 43 q 714 -1 799 12 q 542 -14 630 -14 q 199 118 317 -14 q 81 497 81 250 q 218 871 81 737 q 599 1006 355 1006 q 893 945 751 1006 l 823 777 q 597 831 715 831 q 379 739 461 831 q 297 493 297 648 q 363 247 297 332 q 555 161 429 161 q 689 175 621 161 l 689 382 l 501 382 l 501 557 m 444 1183 q 557 1284 444 1284 q 669 1183 669 1284 q 641 1108 669 1135 q 557 1082 613 1082 q 444 1183 444 1082 z "},"ġ":{"ha":785,"x_min":4,"x_max":768,"o":"m 768 758 l 768 653 l 650 623 q 682 509 682 572 q 597 318 682 387 q 361 250 512 250 l 323 252 l 293 256 q 261 201 261 231 q 375 157 261 157 l 504 157 q 694 103 629 157 q 760 -54 760 50 q 649 -260 760 -187 q 330 -334 538 -334 q 88 -278 172 -334 q 4 -123 4 -223 q 47 -9 4 -55 q 172 57 90 37 q 117 101 140 71 q 93 167 93 132 q 118 239 93 210 q 191 296 143 268 q 96 378 131 321 q 61 513 61 435 q 142 705 61 637 q 372 772 222 772 q 448 767 404 772 q 504 758 492 761 l 768 758 m 183 -107 q 224 -174 183 -150 q 339 -199 265 -199 q 513 -168 450 -199 q 576 -85 576 -138 q 539 -26 576 -42 q 424 -9 502 -9 l 317 -9 q 221 -36 260 -9 q 183 -107 183 -63 m 258 510 q 287 412 258 448 q 372 376 315 376 q 458 412 431 376 q 485 510 485 448 q 372 647 485 647 q 258 510 258 647 m 279 954 q 391 1055 279 1055 q 504 954 504 1055 q 476 879 504 906 q 391 852 448 852 q 279 954 279 852 z "},"Ģ":{"ha":1006,"x_min":81,"x_max":895,"o":"m 501 557 l 895 557 l 895 43 q 714 -1 799 12 q 542 -14 630 -14 q 199 118 317 -14 q 81 497 81 250 q 218 871 81 737 q 599 1006 355 1006 q 893 945 751 1006 l 823 777 q 597 831 715 831 q 379 739 461 831 q 297 493 297 648 q 363 247 297 332 q 555 161 429 161 q 689 175 621 161 l 689 382 l 501 382 l 501 557 m 427 -289 q 450 -192 437 -256 q 469 -85 463 -128 l 660 -85 l 660 -98 q 547 -307 609 -212 l 427 -307 l 427 -289 z "},"ģ":{"ha":785,"x_min":4,"x_max":768,"o":"m 768 758 l 768 653 l 650 623 q 682 509 682 572 q 597 318 682 387 q 361 250 512 250 l 323 252 l 293 256 q 261 201 261 231 q 375 157 261 157 l 504 157 q 694 103 629 157 q 760 -54 760 50 q 649 -260 760 -187 q 330 -334 538 -334 q 88 -278 172 -334 q 4 -123 4 -223 q 47 -9 4 -55 q 172 57 90 37 q 117 101 140 71 q 93 167 93 132 q 118 239 93 210 q 191 296 143 268 q 96 378 131 321 q 61 513 61 435 q 142 705 61 637 q 372 772 222 772 q 448 767 404 772 q 504 758 492 761 l 768 758 m 183 -107 q 224 -174 183 -150 q 339 -199 265 -199 q 513 -168 450 -199 q 576 -85 576 -138 q 539 -26 576 -42 q 424 -9 502 -9 l 317 -9 q 221 -36 260 -9 q 183 -107 183 -63 m 258 510 q 287 412 258 448 q 372 376 315 376 q 458 412 431 376 q 485 510 485 448 q 372 647 485 647 q 258 510 258 647 m 521 1046 q 497 949 511 1013 q 479 842 484 885 l 288 842 l 288 856 q 400 1064 340 971 l 521 1064 l 521 1046 z "},"Ĥ":{"ha":1063,"x_min":125,"x_max":937,"o":"m 937 0 l 728 0 l 728 428 l 335 428 l 335 0 l 125 0 l 125 991 l 335 991 l 335 603 l 728 603 l 728 991 l 937 991 l 937 0 m 686 1071 q 528 1190 580 1134 q 372 1071 475 1135 l 235 1071 l 235 1089 q 408 1293 363 1217 l 650 1293 q 723 1197 671 1258 q 824 1089 775 1137 l 824 1071 l 686 1071 z "},"ĥ":{"ha":913,"x_min":109,"x_max":808,"o":"m 808 0 l 602 0 l 602 443 q 479 607 602 607 q 354 548 393 607 q 315 357 315 489 l 315 0 l 109 0 l 109 1055 l 315 1055 l 315 840 q 311 722 315 815 l 306 661 l 317 661 q 536 772 386 772 q 739 701 670 772 q 808 494 808 629 l 808 0 m 614 1108 q 455 1227 507 1171 q 300 1108 402 1173 l 162 1108 l 162 1126 q 336 1331 290 1255 l 578 1331 q 651 1235 599 1295 q 751 1126 703 1174 l 751 1108 l 614 1108 z "},"Ħ":{"ha":1063,"x_min":0,"x_max":1063,"o":"m 937 860 l 1063 860 l 1063 725 l 937 725 l 937 0 l 728 0 l 728 428 l 335 428 l 335 0 l 125 0 l 125 725 l 0 725 l 0 860 l 125 860 l 125 991 l 335 991 l 335 860 l 728 860 l 728 991 l 937 991 l 937 860 m 728 603 l 728 725 l 335 725 l 335 603 l 728 603 z "},"ħ":{"ha":913,"x_min":3,"x_max":808,"o":"m 808 0 l 602 0 l 602 401 q 479 566 602 566 q 354 506 393 566 q 315 315 315 447 l 315 0 l 109 0 l 109 811 l 3 811 l 3 946 l 109 946 l 109 1055 l 315 1055 l 315 946 l 529 946 l 529 811 l 315 811 l 315 799 q 306 619 315 743 l 318 619 q 538 730 387 730 q 740 659 671 730 q 808 453 808 588 l 808 0 z "},"ĩ":{"ha":424,"x_min":-68,"x_max":494,"o":"m 315 0 l 109 0 l 109 758 l 315 758 l 315 0 m 101 913 q 61 895 80 913 q 33 840 41 877 l -68 840 q -13 994 -61 939 q 116 1050 36 1050 q 171 1039 144 1050 q 223 1014 197 1027 q 275 990 250 1001 q 324 979 300 979 q 365 997 345 979 q 393 1051 384 1015 l 494 1051 q 437 897 486 953 q 309 842 388 842 q 255 853 281 842 q 202 877 228 864 q 151 902 176 890 q 101 913 125 913 z "},"ī":{"ha":424,"x_min":-16,"x_max":444,"o":"m 315 0 l 109 0 l 109 758 l 315 758 l 315 0 m -16 985 l 444 985 l 444 842 l -16 842 l -16 985 z "},"ĭ":{"ha":424,"x_min":-55,"x_max":479,"o":"m 315 0 l 109 0 l 109 758 l 315 758 l 315 0 m 479 1071 q 396 904 471 966 q 209 842 321 842 q 21 903 91 842 q -55 1071 -50 965 l 60 1071 q 79 1021 63 1039 q 124 994 95 1002 q 210 986 153 986 q 361 1071 350 986 l 479 1071 z "},"į":{"ha":424,"x_min":29,"x_max":325,"o":"m 100 954 q 212 1055 100 1055 q 325 954 325 1055 q 297 879 325 906 q 212 852 269 852 q 100 954 100 852 m 315 0 l 109 0 l 109 758 l 315 758 l 315 0 m 172 -154 q 188 -196 172 -182 q 227 -210 203 -210 q 304 -197 264 -210 l 304 -318 q 199 -334 249 -334 q 76 -291 122 -334 q 29 -178 29 -248 q 55 -92 29 -132 q 151 0 81 -52 l 273 0 q 199 -82 225 -45 q 172 -154 172 -119 z "},"ı":{"ha":424,"x_min":109,"x_max":315,"o":"m 315 0 l 109 0 l 109 758 l 315 758 l 315 0 z "},"ĳ":{"ha":821,"x_min":100,"x_max":722,"o":"m 100 954 q 212 1055 100 1055 q 325 954 325 1055 q 297 879 325 906 q 212 852 269 852 q 100 954 100 852 m 315 0 l 109 0 l 109 758 l 315 758 l 315 0 m 445 -334 q 309 -317 366 -334 l 309 -154 q 406 -167 356 -167 q 482 -138 458 -167 q 506 -52 506 -109 l 506 758 l 713 758 l 713 -82 q 643 -268 713 -203 q 445 -334 573 -334 m 497 954 q 610 1055 497 1055 q 722 954 722 1055 q 694 879 722 906 q 610 852 666 852 q 497 954 497 852 z "},"Ĵ":{"ha":460,"x_min":-103,"x_max":527,"o":"m 21 -292 q -103 -277 -50 -292 l -103 -102 q -4 -115 -49 -115 q 95 -72 65 -115 q 125 62 125 -29 l 125 991 l 335 991 l 335 64 q 256 -201 335 -110 q 21 -292 176 -292 m 389 1071 q 231 1190 283 1134 q 75 1071 178 1135 l -62 1071 l -62 1089 q 111 1293 66 1217 l 353 1293 q 426 1197 374 1258 q 527 1089 478 1137 l 527 1071 l 389 1071 z "},"ĵ":{"ha":424,"x_min":-89,"x_max":504,"o":"m 47 -334 q -89 -317 -32 -334 l -89 -154 q 8 -167 -41 -167 q 84 -138 60 -167 q 109 -52 109 -109 l 109 758 l 315 758 l 315 -82 q 245 -268 315 -203 q 47 -334 176 -334 m 366 842 q 208 961 260 905 q 52 842 155 906 l -85 842 l -85 860 q 88 1064 43 988 l 330 1064 q 403 968 351 1029 q 504 860 455 907 l 504 842 l 366 842 z "},"Ķ":{"ha":922,"x_min":125,"x_max":922,"o":"m 922 0 l 684 0 l 424 418 l 335 354 l 335 0 l 125 0 l 125 991 l 335 991 l 335 538 l 418 654 l 686 991 l 920 991 l 574 553 l 922 0 m 343 -289 q 367 -192 353 -256 q 385 -85 380 -128 l 576 -85 l 576 -98 q 464 -307 526 -212 l 343 -307 l 343 -289 z "},"ķ":{"ha":861,"x_min":109,"x_max":861,"o":"m 307 412 l 397 528 l 610 758 l 843 758 l 542 429 l 861 0 l 623 0 l 404 307 l 315 236 l 315 0 l 109 0 l 109 1055 l 315 1055 l 315 585 l 304 412 l 307 412 m 317 -289 q 340 -192 327 -256 q 359 -85 353 -128 l 550 -85 l 550 -98 q 437 -307 499 -212 l 317 -307 l 317 -289 z "},"ĸ":{"ha":861,"x_min":109,"x_max":861,"o":"m 314 395 l 410 510 l 623 758 l 843 758 l 545 411 l 861 0 l 625 0 l 412 289 l 315 228 l 315 0 l 109 0 l 109 758 l 315 758 l 315 559 l 313 450 l 311 395 l 314 395 z "},"Ĺ":{"ha":785,"x_min":125,"x_max":737,"o":"m 125 0 l 125 991 l 335 991 l 335 174 l 737 174 l 737 0 l 125 0 m 181 1071 l 181 1089 q 340 1293 298 1225 l 572 1293 l 572 1279 q 452 1174 537 1244 q 319 1071 367 1105 l 181 1071 z "},"ĺ":{"ha":424,"x_min":109,"x_max":513,"o":"m 315 0 l 109 0 l 109 1055 l 315 1055 l 315 0 m 121 1109 l 121 1128 q 281 1332 238 1263 l 513 1332 l 513 1318 q 392 1213 477 1282 q 259 1109 307 1143 l 121 1109 z "},"Ļ":{"ha":785,"x_min":125,"x_max":737,"o":"m 125 0 l 125 991 l 335 991 l 335 174 l 737 174 l 737 0 l 125 0 m 288 -289 q 311 -192 298 -256 q 330 -85 324 -128 l 521 -85 l 521 -98 q 408 -307 470 -212 l 288 -307 l 288 -289 z "},"ļ":{"ha":424,"x_min":67,"x_max":315,"o":"m 315 0 l 109 0 l 109 1055 l 315 1055 l 315 0 m 67 -289 q 91 -192 77 -256 q 109 -85 104 -128 l 300 -85 l 300 -98 q 188 -307 250 -212 l 67 -307 l 67 -289 z "},"Ľ":{"ha":785,"x_min":125,"x_max":737,"o":"m 125 0 l 125 991 l 335 991 l 335 174 l 737 174 l 737 0 l 125 0 m 490 788 q 514 885 500 821 q 532 992 527 949 l 724 992 l 724 979 q 611 770 669 859 l 490 770 l 490 788 z "},"ľ":{"ha":424,"x_min":109,"x_max":611,"o":"m 315 0 l 109 0 l 109 1055 l 315 1055 l 315 0 m 378 851 q 401 948 388 884 q 420 1055 414 1012 l 611 1055 l 611 1042 q 498 833 557 922 l 378 833 l 378 851 z "},"Ŀ":{"ha":785,"x_min":125,"x_max":737,"o":"m 125 0 l 125 991 l 335 991 l 335 174 l 737 174 l 737 0 l 125 0 m 479 509 q 591 610 479 610 q 704 509 704 610 q 676 434 704 461 q 591 408 648 408 q 479 509 479 408 z "},"ŀ":{"ha":595,"x_min":109,"x_max":623,"o":"m 315 0 l 109 0 l 109 1055 l 315 1055 l 315 0 m 398 471 q 511 572 398 572 q 623 471 623 572 q 595 396 623 423 q 511 370 567 370 q 398 471 398 370 z "},"Ł":{"ha":785,"x_min":1,"x_max":737,"o":"m 125 0 l 125 334 l 78 306 l 1 439 l 125 514 l 125 991 l 335 991 l 335 642 l 432 701 l 511 568 l 335 461 l 335 174 l 737 174 l 737 0 l 125 0 z "},"ł":{"ha":458,"x_min":0,"x_max":458,"o":"m 332 631 l 379 660 l 458 526 l 332 450 l 332 0 l 125 0 l 125 323 l 77 294 l 0 428 l 125 504 l 125 1055 l 332 1055 l 332 631 z "},"Ń":{"ha":1129,"x_min":125,"x_max":1004,"o":"m 1004 0 l 737 0 l 306 750 l 300 750 q 313 467 313 551 l 313 0 l 125 0 l 125 991 l 390 991 l 821 249 l 825 249 q 815 522 815 442 l 815 991 l 1004 991 l 1004 0 m 445 1071 l 445 1089 q 604 1293 562 1225 l 836 1293 l 836 1279 q 716 1174 801 1244 q 583 1071 631 1105 l 445 1071 z "},"ń":{"ha":913,"x_min":109,"x_max":808,"o":"m 808 0 l 602 0 l 602 443 q 572 566 602 525 q 479 607 543 607 q 354 549 393 607 q 315 357 315 491 l 315 0 l 109 0 l 109 758 l 267 758 l 294 661 l 306 661 q 401 744 340 716 q 539 772 462 772 q 740 701 671 772 q 808 494 808 629 l 808 0 m 340 842 l 340 860 q 500 1064 457 996 l 732 1064 l 732 1050 q 611 945 696 1015 q 478 842 526 876 l 340 842 z "},"Ņ":{"ha":1129,"x_min":125,"x_max":1004,"o":"m 1004 0 l 737 0 l 306 750 l 300 750 q 313 467 313 551 l 313 0 l 125 0 l 125 991 l 390 991 l 821 249 l 825 249 q 815 522 815 442 l 815 991 l 1004 991 l 1004 0 m 406 -289 q 429 -192 416 -256 q 448 -85 442 -128 l 639 -85 l 639 -98 q 526 -307 588 -212 l 406 -307 l 406 -289 z "},"ņ":{"ha":913,"x_min":109,"x_max":808,"o":"m 808 0 l 602 0 l 602 443 q 572 566 602 525 q 479 607 543 607 q 354 549 393 607 q 315 357 315 491 l 315 0 l 109 0 l 109 758 l 267 758 l 294 661 l 306 661 q 401 744 340 716 q 539 772 462 772 q 740 701 671 772 q 808 494 808 629 l 808 0 m 317 -289 q 340 -192 327 -256 q 359 -85 353 -128 l 550 -85 l 550 -98 q 437 -307 499 -212 l 317 -307 l 317 -289 z "},"Ň":{"ha":1129,"x_min":125,"x_max":1004,"o":"m 1004 0 l 737 0 l 306 750 l 300 750 q 313 467 313 551 l 313 0 l 125 0 l 125 991 l 390 991 l 821 249 l 825 249 q 815 522 815 442 l 815 991 l 1004 991 l 1004 0 m 877 1293 l 877 1275 q 772 1161 820 1218 q 703 1071 724 1105 l 461 1071 q 405 1147 441 1103 q 288 1275 368 1192 l 288 1293 l 425 1293 q 581 1174 525 1230 q 739 1293 637 1233 l 877 1293 z "},"ň":{"ha":913,"x_min":109,"x_max":808,"o":"m 808 0 l 602 0 l 602 443 q 572 566 602 525 q 479 607 543 607 q 354 549 393 607 q 315 357 315 491 l 315 0 l 109 0 l 109 758 l 267 758 l 294 661 l 306 661 q 401 744 340 716 q 539 772 462 772 q 740 701 671 772 q 808 494 808 629 l 808 0 m 768 1064 l 768 1046 q 664 932 711 989 q 595 842 616 876 l 353 842 q 296 918 333 873 q 179 1046 260 962 l 179 1064 l 317 1064 q 472 945 416 1001 q 631 1064 529 1004 l 768 1064 z "},"ŉ":{"ha":1082,"x_min":4,"x_max":978,"o":"m 978 0 l 771 0 l 771 443 q 742 566 771 525 q 649 607 713 607 q 524 549 562 607 q 485 357 485 491 l 485 0 l 278 0 l 278 758 l 436 758 l 464 661 l 475 661 q 571 744 510 716 q 709 772 631 772 q 909 701 841 772 q 978 494 978 629 l 978 0 m 262 991 l 272 977 q 153 652 238 843 l 4 652 q 72 991 51 852 l 262 991 z "},"Ŋ":{"ha":1129,"x_min":125,"x_max":1004,"o":"m 689 -292 q 555 -277 612 -292 l 555 -102 q 668 -115 618 -115 q 782 -84 742 -115 q 828 3 822 -54 l 306 750 l 300 750 q 313 467 313 551 l 313 0 l 125 0 l 125 991 l 390 991 l 821 387 l 825 387 l 820 490 q 815 661 815 564 l 815 991 l 1004 991 l 1004 0 q 923 -216 1004 -140 q 689 -292 841 -292 z "},"ŋ":{"ha":913,"x_min":109,"x_max":808,"o":"m 562 -334 q 437 -317 490 -334 l 437 -154 q 518 -167 477 -167 q 602 -52 602 -167 l 602 458 q 479 607 602 607 q 354 549 393 607 q 315 357 315 491 l 315 0 l 109 0 l 109 758 l 267 758 l 294 661 l 307 661 q 401 744 341 715 q 539 772 460 772 q 740 701 671 772 q 808 494 808 629 l 808 -82 q 745 -269 808 -203 q 562 -334 681 -334 z "},"Ō":{"ha":1105,"x_min":81,"x_max":1025,"o":"m 1025 497 q 903 119 1025 251 q 553 -14 781 -14 q 203 119 325 -14 q 81 498 81 251 q 203 877 81 746 q 554 1007 326 1007 q 904 876 783 1007 q 1025 497 1025 744 m 301 497 q 364 247 301 331 q 553 163 427 163 q 804 497 804 163 q 554 832 804 832 q 365 748 429 832 q 301 497 301 663 m 324 1214 l 784 1214 l 784 1071 l 324 1071 l 324 1214 z "},"ō":{"ha":860,"x_min":62,"x_max":798,"o":"m 273 380 q 310 210 273 268 q 431 153 347 153 q 550 210 513 153 q 586 380 586 267 q 549 549 586 493 q 429 606 513 606 q 310 550 347 606 q 273 380 273 494 m 798 380 q 700 91 798 195 q 428 -14 602 -14 q 235 34 319 -14 q 107 172 152 82 q 62 380 62 261 q 159 669 62 566 q 432 772 256 772 q 625 725 541 772 q 753 589 708 677 q 798 380 798 500 m 200 985 l 660 985 l 660 842 l 200 842 l 200 985 z "},"Ŏ":{"ha":1105,"x_min":81,"x_max":1025,"o":"m 1025 497 q 903 119 1025 251 q 553 -14 781 -14 q 203 119 325 -14 q 81 498 81 251 q 203 877 81 746 q 554 1007 326 1007 q 904 876 783 1007 q 1025 497 1025 744 m 301 497 q 364 247 301 331 q 553 163 427 163 q 804 497 804 163 q 554 832 804 832 q 365 748 429 832 q 301 497 301 663 m 821 1300 q 739 1133 813 1196 q 551 1071 664 1071 q 363 1133 433 1071 q 288 1300 293 1194 l 403 1300 q 421 1250 406 1268 q 466 1223 437 1232 q 553 1215 495 1215 q 703 1300 692 1215 l 821 1300 z "},"ŏ":{"ha":860,"x_min":62,"x_max":798,"o":"m 273 380 q 310 210 273 268 q 431 153 347 153 q 550 210 513 153 q 586 380 586 267 q 549 549 586 493 q 429 606 513 606 q 310 550 347 606 q 273 380 273 494 m 798 380 q 700 91 798 195 q 428 -14 602 -14 q 235 34 319 -14 q 107 172 152 82 q 62 380 62 261 q 159 669 62 566 q 432 772 256 772 q 625 725 541 772 q 753 589 708 677 q 798 380 798 500 m 696 1071 q 613 904 688 966 q 426 842 538 842 q 238 903 308 842 q 162 1071 168 965 l 277 1071 q 296 1021 280 1039 q 341 994 312 1002 q 427 986 370 986 q 578 1071 567 986 l 696 1071 z "},"Ő":{"ha":1105,"x_min":81,"x_max":1025,"o":"m 1025 497 q 903 119 1025 251 q 553 -14 781 -14 q 203 119 325 -14 q 81 498 81 251 q 203 877 81 746 q 554 1007 326 1007 q 904 876 783 1007 q 1025 497 1025 744 m 301 497 q 364 247 301 331 q 553 163 427 163 q 804 497 804 163 q 554 832 804 832 q 365 748 429 832 q 301 497 301 663 m 324 1071 l 324 1089 q 404 1206 366 1147 q 456 1293 441 1265 l 660 1293 l 660 1279 q 561 1175 638 1243 q 433 1071 484 1107 l 324 1071 m 593 1071 l 593 1089 q 726 1293 688 1219 l 930 1293 l 930 1279 q 845 1188 913 1250 q 703 1071 777 1126 l 593 1071 z "},"ő":{"ha":860,"x_min":62,"x_max":798,"o":"m 273 380 q 310 210 273 268 q 431 153 347 153 q 550 210 513 153 q 586 380 586 267 q 549 549 586 493 q 429 606 513 606 q 310 550 347 606 q 273 380 273 494 m 798 380 q 700 91 798 195 q 428 -14 602 -14 q 235 34 319 -14 q 107 172 152 82 q 62 380 62 261 q 159 669 62 566 q 432 772 256 772 q 625 725 541 772 q 753 589 708 677 q 798 380 798 500 m 189 842 l 189 860 q 269 977 231 918 q 321 1064 307 1036 l 525 1064 l 525 1050 q 426 946 503 1014 q 298 842 349 878 l 189 842 m 458 842 l 458 860 q 591 1064 553 990 l 795 1064 l 795 1050 q 710 959 778 1021 q 568 842 642 897 l 458 842 z "},"Œ":{"ha":1352,"x_min":81,"x_max":1270,"o":"m 1270 0 l 677 0 q 604 -10 652 -6 q 525 -14 555 -14 q 195 120 309 -14 q 81 498 81 254 q 196 876 81 745 q 526 1007 311 1007 q 612 1002 568 1007 q 681 991 657 998 l 1270 991 l 1270 819 l 888 819 l 888 602 l 1244 602 l 1244 429 l 888 429 l 888 174 l 1270 174 l 1270 0 m 526 832 q 355 747 414 832 q 297 497 297 662 q 355 247 297 332 q 525 163 414 163 q 610 170 569 163 q 677 189 652 177 l 677 804 q 609 825 654 817 q 526 832 564 832 z "},"œ":{"ha":1358,"x_min":62,"x_max":1299,"o":"m 981 -14 q 696 92 797 -14 q 431 -14 600 -14 q 237 34 321 -14 q 107 171 153 81 q 62 380 62 260 q 158 670 62 568 q 429 772 254 772 q 573 746 505 772 q 689 667 641 719 q 949 772 787 772 q 1206 681 1114 772 q 1299 428 1299 589 l 1299 328 l 793 328 l 793 322 q 848 188 798 236 q 989 140 899 140 q 1124 155 1061 140 q 1255 200 1187 169 l 1255 40 q 1136 0 1200 14 q 981 -14 1072 -14 m 273 380 q 310 210 273 268 q 431 153 347 153 q 550 210 513 153 q 586 380 586 267 q 549 549 586 493 q 429 606 513 606 q 310 550 347 606 q 273 380 273 494 m 953 625 q 847 586 889 625 q 799 465 805 547 l 1104 465 q 1063 583 1103 541 q 953 625 1023 625 z "},"Ŕ":{"ha":917,"x_min":125,"x_max":917,"o":"m 335 551 l 403 551 q 550 585 503 551 q 597 689 597 618 q 549 789 597 760 q 399 819 500 819 l 335 819 l 335 551 m 335 380 l 335 0 l 125 0 l 125 991 l 414 991 q 713 918 616 991 q 810 694 810 844 q 762 539 810 607 q 625 432 713 471 q 917 0 849 98 l 684 0 l 447 380 l 335 380 m 323 1071 l 323 1089 q 483 1293 440 1225 l 715 1293 l 715 1279 q 594 1174 680 1244 q 461 1071 509 1105 l 323 1071 z "},"ŕ":{"ha":631,"x_min":109,"x_max":621,"o":"m 532 772 q 602 766 574 772 l 586 572 q 525 579 561 579 q 371 528 426 579 q 315 386 315 477 l 315 0 l 109 0 l 109 758 l 265 758 l 296 631 l 306 631 q 401 733 341 694 q 532 772 461 772 m 229 842 l 229 860 q 389 1064 346 996 l 621 1064 l 621 1050 q 500 945 585 1015 q 367 842 415 876 l 229 842 z "},"Ŗ":{"ha":917,"x_min":125,"x_max":917,"o":"m 335 551 l 403 551 q 550 585 503 551 q 597 689 597 618 q 549 789 597 760 q 399 819 500 819 l 335 819 l 335 551 m 335 380 l 335 0 l 125 0 l 125 991 l 414 991 q 713 918 616 991 q 810 694 810 844 q 762 539 810 607 q 625 432 713 471 q 917 0 849 98 l 684 0 l 447 380 l 335 380 m 359 -289 q 383 -192 370 -256 q 401 -85 396 -128 l 593 -85 l 593 -98 q 480 -307 542 -212 l 359 -307 l 359 -289 z "},"ŗ":{"ha":631,"x_min":67,"x_max":602,"o":"m 532 772 q 602 766 574 772 l 586 572 q 525 579 561 579 q 371 528 426 579 q 315 386 315 477 l 315 0 l 109 0 l 109 758 l 265 758 l 296 631 l 306 631 q 401 733 341 694 q 532 772 461 772 m 67 -289 q 91 -192 77 -256 q 109 -85 104 -128 l 300 -85 l 300 -98 q 188 -307 250 -212 l 67 -307 l 67 -289 z "},"Ř":{"ha":917,"x_min":125,"x_max":917,"o":"m 335 551 l 403 551 q 550 585 503 551 q 597 689 597 618 q 549 789 597 760 q 399 819 500 819 l 335 819 l 335 551 m 335 380 l 335 0 l 125 0 l 125 991 l 414 991 q 713 918 616 991 q 810 694 810 844 q 762 539 810 607 q 625 432 713 471 q 917 0 849 98 l 684 0 l 447 380 l 335 380 m 750 1293 l 750 1275 q 645 1161 693 1218 q 576 1071 597 1105 l 334 1071 q 278 1147 315 1103 q 161 1275 241 1192 l 161 1293 l 298 1293 q 454 1174 398 1230 q 612 1293 511 1233 l 750 1293 z "},"ř":{"ha":631,"x_min":56,"x_max":646,"o":"m 532 772 q 602 766 574 772 l 586 572 q 525 579 561 579 q 371 528 426 579 q 315 386 315 477 l 315 0 l 109 0 l 109 758 l 265 758 l 296 631 l 306 631 q 401 733 341 694 q 532 772 461 772 m 646 1064 l 646 1046 q 541 932 589 989 q 472 842 493 876 l 230 842 q 174 918 210 873 q 56 1046 137 962 l 56 1064 l 194 1064 q 349 945 294 1001 q 508 1064 406 1004 l 646 1064 z "},"Ś":{"ha":765,"x_min":64,"x_max":710,"o":"m 710 275 q 613 64 710 141 q 345 -14 517 -14 q 64 46 186 -14 l 64 241 q 234 178 164 197 q 361 160 303 160 q 467 186 430 160 q 504 265 504 213 q 488 317 504 294 q 440 361 471 340 q 311 428 408 382 q 175 510 220 471 q 102 602 130 549 q 75 724 75 654 q 164 930 75 855 q 411 1006 254 1006 q 558 987 488 1006 q 705 936 629 969 l 637 772 q 506 818 558 805 q 404 831 454 831 q 313 803 345 831 q 281 730 281 775 q 294 682 281 703 q 335 642 307 661 q 468 572 363 623 q 659 439 607 506 q 710 275 710 372 m 278 1071 l 278 1089 q 437 1293 395 1225 l 669 1293 l 669 1279 q 549 1174 634 1244 q 416 1071 464 1105 l 278 1071 z "},"ś":{"ha":690,"x_min":62,"x_max":637,"o":"m 637 225 q 556 47 637 109 q 314 -14 475 -14 q 173 -2 231 -14 q 64 31 115 9 l 64 201 q 194 156 121 174 q 321 138 266 138 q 433 203 433 138 q 418 242 433 227 q 367 277 404 258 q 269 322 330 296 q 141 390 182 359 q 81 461 100 421 q 62 561 62 502 q 141 717 62 662 q 363 772 219 772 q 629 713 500 772 l 567 564 q 460 604 510 588 q 359 619 411 619 q 268 570 268 619 q 297 522 268 542 q 427 461 327 501 q 557 394 515 425 q 618 322 598 363 q 637 225 637 281 m 232 842 l 232 860 q 391 1064 349 996 l 623 1064 l 623 1050 q 503 945 588 1015 q 370 842 418 876 l 232 842 z "},"Ŝ":{"ha":765,"x_min":64,"x_max":710,"o":"m 710 275 q 613 64 710 141 q 345 -14 517 -14 q 64 46 186 -14 l 64 241 q 234 178 164 197 q 361 160 303 160 q 467 186 430 160 q 504 265 504 213 q 488 317 504 294 q 440 361 471 340 q 311 428 408 382 q 175 510 220 471 q 102 602 130 549 q 75 724 75 654 q 164 930 75 855 q 411 1006 254 1006 q 558 987 488 1006 q 705 936 629 969 l 637 772 q 506 818 558 805 q 404 831 454 831 q 313 803 345 831 q 281 730 281 775 q 294 682 281 703 q 335 642 307 661 q 468 572 363 623 q 659 439 607 506 q 710 275 710 372 m 563 1071 q 404 1190 456 1134 q 249 1071 351 1135 l 111 1071 l 111 1089 q 285 1293 239 1217 l 527 1293 q 600 1197 548 1258 q 701 1089 652 1137 l 701 1071 l 563 1071 z "},"ŝ":{"ha":690,"x_min":62,"x_max":652,"o":"m 637 225 q 556 47 637 109 q 314 -14 475 -14 q 173 -2 231 -14 q 64 31 115 9 l 64 201 q 194 156 121 174 q 321 138 266 138 q 433 203 433 138 q 418 242 433 227 q 367 277 404 258 q 269 322 330 296 q 141 390 182 359 q 81 461 100 421 q 62 561 62 502 q 141 717 62 662 q 363 772 219 772 q 629 713 500 772 l 567 564 q 460 604 510 588 q 359 619 411 619 q 268 570 268 619 q 297 522 268 542 q 427 461 327 501 q 557 394 515 425 q 618 322 598 363 q 637 225 637 281 m 515 842 q 356 961 408 905 q 201 842 303 906 l 63 842 l 63 860 q 237 1064 191 988 l 479 1064 q 552 968 500 1029 q 652 860 604 907 l 652 842 l 515 842 z "},"Ş":{"ha":765,"x_min":64,"x_max":710,"o":"m 710 275 q 613 64 710 141 q 345 -14 517 -14 q 64 46 186 -14 l 64 241 q 234 178 164 197 q 361 160 303 160 q 467 186 430 160 q 504 265 504 213 q 488 317 504 294 q 440 361 471 340 q 311 428 408 382 q 175 510 220 471 q 102 602 130 549 q 75 724 75 654 q 164 930 75 855 q 411 1006 254 1006 q 558 987 488 1006 q 705 936 629 969 l 637 772 q 506 818 558 805 q 404 831 454 831 q 313 803 345 831 q 281 730 281 775 q 294 682 281 703 q 335 642 307 661 q 468 572 363 623 q 659 439 607 506 q 710 275 710 372 m 524 -170 q 472 -295 524 -256 q 314 -334 421 -334 q 215 -319 261 -334 l 215 -205 q 264 -215 233 -210 q 312 -220 295 -220 q 361 -178 361 -220 q 248 -104 361 -121 l 301 0 l 432 0 l 414 -41 q 494 -92 464 -58 q 524 -170 524 -126 z "},"ş":{"ha":690,"x_min":62,"x_max":637,"o":"m 637 225 q 556 47 637 109 q 314 -14 475 -14 q 173 -2 231 -14 q 64 31 115 9 l 64 201 q 194 156 121 174 q 321 138 266 138 q 433 203 433 138 q 418 242 433 227 q 367 277 404 258 q 269 322 330 296 q 141 390 182 359 q 81 461 100 421 q 62 561 62 502 q 141 717 62 662 q 363 772 219 772 q 629 713 500 772 l 567 564 q 460 604 510 588 q 359 619 411 619 q 268 570 268 619 q 297 522 268 542 q 427 461 327 501 q 557 394 515 425 q 618 322 598 363 q 637 225 637 281 m 488 -170 q 436 -295 488 -256 q 278 -334 385 -334 q 179 -319 225 -334 l 179 -205 q 228 -215 197 -210 q 276 -220 259 -220 q 325 -178 325 -220 q 212 -104 325 -121 l 265 0 l 396 0 l 378 -41 q 458 -92 428 -58 q 488 -170 488 -126 z "},"Š":{"ha":765,"x_min":64,"x_max":710,"o":"m 710 275 q 613 64 710 141 q 345 -14 517 -14 q 64 46 186 -14 l 64 241 q 234 178 164 197 q 361 160 303 160 q 467 186 430 160 q 504 265 504 213 q 488 317 504 294 q 440 361 471 340 q 311 428 408 382 q 175 510 220 471 q 102 602 130 549 q 75 724 75 654 q 164 930 75 855 q 411 1006 254 1006 q 558 987 488 1006 q 705 936 629 969 l 637 772 q 506 818 558 805 q 404 831 454 831 q 313 803 345 831 q 281 730 281 775 q 294 682 281 703 q 335 642 307 661 q 468 572 363 623 q 659 439 607 506 q 710 275 710 372 m 701 1293 l 701 1275 q 596 1161 644 1218 q 527 1071 548 1105 l 285 1071 q 229 1147 265 1103 q 111 1275 192 1192 l 111 1293 l 249 1293 q 404 1174 349 1230 q 563 1293 461 1233 l 701 1293 z "},"š":{"ha":690,"x_min":62,"x_max":659,"o":"m 637 225 q 556 47 637 109 q 314 -14 475 -14 q 173 -2 231 -14 q 64 31 115 9 l 64 201 q 194 156 121 174 q 321 138 266 138 q 433 203 433 138 q 418 242 433 227 q 367 277 404 258 q 269 322 330 296 q 141 390 182 359 q 81 461 100 421 q 62 561 62 502 q 141 717 62 662 q 363 772 219 772 q 629 713 500 772 l 567 564 q 460 604 510 588 q 359 619 411 619 q 268 570 268 619 q 297 522 268 542 q 427 461 327 501 q 557 394 515 425 q 618 322 598 363 q 637 225 637 281 m 659 1064 l 659 1046 q 554 932 602 989 q 486 842 507 876 l 243 842 q 187 918 224 873 q 70 1046 151 962 l 70 1064 l 208 1064 q 363 945 307 1001 q 522 1064 420 1004 l 659 1064 z "},"Ț":{"ha":804,"x_min":28,"x_max":777,"o":"m 507 0 l 297 0 l 297 817 l 28 817 l 28 991 l 777 991 l 777 817 l 507 817 l 507 0 m 265 -289 q 289 -192 275 -256 q 307 -85 302 -128 l 498 -85 l 498 -98 q 386 -307 448 -212 l 265 -307 l 265 -289 z "},"ț":{"ha":603,"x_min":32,"x_max":558,"o":"m 428 151 q 558 175 482 151 l 558 21 q 368 -14 481 -14 q 188 49 244 -14 q 131 237 131 112 l 131 603 l 32 603 l 32 690 l 146 760 l 205 920 l 338 920 l 338 758 l 550 758 l 550 603 l 338 603 l 338 237 q 362 172 338 193 q 428 151 387 151 m 203 -289 q 227 -192 214 -256 q 245 -85 240 -128 l 437 -85 l 437 -98 q 324 -307 386 -212 l 203 -307 l 203 -289 z "},"Ť":{"ha":804,"x_min":28,"x_max":777,"o":"m 507 0 l 297 0 l 297 817 l 28 817 l 28 991 l 777 991 l 777 817 l 507 817 l 507 0 m 698 1293 l 698 1275 q 593 1161 641 1218 q 524 1071 545 1105 l 282 1071 q 226 1147 262 1103 q 109 1275 189 1192 l 109 1293 l 246 1293 q 401 1174 346 1230 q 560 1293 458 1233 l 698 1293 z "},"ť":{"ha":603,"x_min":32,"x_max":654,"o":"m 428 151 q 558 175 482 151 l 558 21 q 368 -14 481 -14 q 188 49 244 -14 q 131 237 131 112 l 131 603 l 32 603 l 32 690 l 146 760 l 205 920 l 338 920 l 338 758 l 550 758 l 550 603 l 338 603 l 338 237 q 362 172 338 193 q 428 151 387 151 m 420 865 q 444 962 431 898 q 463 1069 457 1025 l 654 1069 l 654 1055 q 541 847 600 936 l 420 847 l 420 865 z "},"Ŧ":{"ha":804,"x_min":28,"x_max":777,"o":"m 507 0 l 297 0 l 297 404 l 129 404 l 129 576 l 297 576 l 297 817 l 28 817 l 28 991 l 777 991 l 777 817 l 507 817 l 507 576 l 675 576 l 675 404 l 507 404 l 507 0 z "},"ŧ":{"ha":603,"x_min":32,"x_max":558,"o":"m 428 151 q 558 175 482 151 l 558 21 q 472 -5 523 4 q 372 -14 422 -14 q 189 48 246 -14 q 131 237 131 110 l 131 338 l 45 338 l 45 472 l 131 472 l 131 603 l 32 603 l 32 690 l 146 760 l 205 920 l 338 920 l 338 758 l 550 758 l 550 603 l 338 603 l 338 472 l 526 472 l 526 338 l 338 338 l 338 237 q 362 172 338 193 q 428 151 387 151 z "},"Ũ":{"ha":1050,"x_min":118,"x_max":932,"o":"m 932 991 l 932 350 q 883 157 932 240 q 741 31 833 75 q 521 -14 648 -14 q 224 84 330 -14 q 118 353 118 182 l 118 991 l 328 991 l 328 385 q 374 216 328 270 q 526 163 420 163 q 676 217 629 163 q 722 386 722 271 l 722 991 l 932 991 m 416 1142 q 375 1124 395 1142 q 347 1069 356 1106 l 246 1069 q 302 1223 254 1168 q 431 1279 351 1279 q 485 1268 458 1279 q 538 1243 512 1257 q 589 1219 564 1230 q 639 1208 614 1208 q 679 1226 660 1208 q 707 1280 699 1244 l 808 1280 q 752 1126 801 1182 q 624 1071 703 1071 q 569 1082 596 1071 q 516 1106 543 1093 q 465 1131 490 1120 q 416 1142 440 1142 z "},"ũ":{"ha":913,"x_min":104,"x_max":804,"o":"m 646 0 l 618 97 l 607 97 q 513 15 574 44 q 374 -14 452 -14 q 172 58 240 -14 q 104 264 104 130 l 104 758 l 311 758 l 311 315 q 340 192 311 233 q 433 151 370 151 q 559 209 520 151 q 597 401 597 267 l 597 758 l 804 758 l 804 0 l 646 0 m 343 913 q 303 895 322 913 q 275 840 283 877 l 174 840 q 230 994 181 939 q 358 1050 278 1050 q 413 1039 386 1050 q 466 1014 439 1027 q 517 990 492 1001 q 566 979 542 979 q 607 997 587 979 q 635 1051 626 1015 l 736 1051 q 679 897 728 953 q 551 842 630 842 q 497 853 524 842 q 444 877 470 864 q 393 902 418 890 q 343 913 368 913 z "},"Ū":{"ha":1050,"x_min":118,"x_max":932,"o":"m 932 991 l 932 350 q 883 157 932 240 q 741 31 833 75 q 521 -14 648 -14 q 224 84 330 -14 q 118 353 118 182 l 118 991 l 328 991 l 328 385 q 374 216 328 270 q 526 163 420 163 q 676 217 629 163 q 722 386 722 271 l 722 991 l 932 991 m 296 1214 l 756 1214 l 756 1071 l 296 1071 l 296 1214 z "},"ū":{"ha":913,"x_min":104,"x_max":804,"o":"m 646 0 l 618 97 l 607 97 q 513 15 574 44 q 374 -14 452 -14 q 172 58 240 -14 q 104 264 104 130 l 104 758 l 311 758 l 311 315 q 340 192 311 233 q 433 151 370 151 q 559 209 520 151 q 597 401 597 267 l 597 758 l 804 758 l 804 0 l 646 0 m 224 985 l 684 985 l 684 842 l 224 842 l 224 985 z "},"Ŭ":{"ha":1050,"x_min":118,"x_max":932,"o":"m 932 991 l 932 350 q 883 157 932 240 q 741 31 833 75 q 521 -14 648 -14 q 224 84 330 -14 q 118 353 118 182 l 118 991 l 328 991 l 328 385 q 374 216 328 270 q 526 163 420 163 q 676 217 629 163 q 722 386 722 271 l 722 991 l 932 991 m 792 1300 q 709 1133 784 1196 q 522 1071 635 1071 q 334 1133 404 1071 q 258 1300 264 1194 l 374 1300 q 392 1250 376 1268 q 437 1223 408 1232 q 524 1215 466 1215 q 674 1300 663 1215 l 792 1300 z "},"ŭ":{"ha":913,"x_min":104,"x_max":804,"o":"m 646 0 l 618 97 l 607 97 q 513 15 574 44 q 374 -14 452 -14 q 172 58 240 -14 q 104 264 104 130 l 104 758 l 311 758 l 311 315 q 340 192 311 233 q 433 151 370 151 q 559 209 520 151 q 597 401 597 267 l 597 758 l 804 758 l 804 0 l 646 0 m 721 1071 q 638 904 713 966 q 451 842 564 842 q 263 903 333 842 q 187 1071 193 965 l 302 1071 q 321 1021 305 1039 q 366 994 337 1002 q 452 986 395 986 q 603 1071 592 986 l 721 1071 z "},"Ů":{"ha":1050,"x_min":118,"x_max":932,"o":"m 932 991 l 932 350 q 883 157 932 240 q 741 31 833 75 q 521 -14 648 -14 q 224 84 330 -14 q 118 353 118 182 l 118 991 l 328 991 l 328 385 q 374 216 328 270 q 526 163 420 163 q 676 217 629 163 q 722 386 722 271 l 722 991 l 932 991 m 696 1232 q 648 1114 696 1159 q 524 1069 600 1069 q 401 1113 448 1069 q 355 1231 355 1156 q 401 1348 355 1304 q 524 1392 447 1392 q 647 1347 598 1392 q 696 1232 696 1302 m 589 1231 q 570 1279 589 1261 q 524 1296 552 1296 q 477 1279 495 1296 q 458 1231 458 1261 q 475 1183 458 1200 q 524 1165 491 1165 q 570 1183 552 1165 q 589 1231 589 1200 z "},"ů":{"ha":913,"x_min":104,"x_max":804,"o":"m 646 0 l 618 97 l 607 97 q 513 15 574 44 q 374 -14 452 -14 q 172 58 240 -14 q 104 264 104 130 l 104 758 l 311 758 l 311 315 q 340 192 311 233 q 433 151 370 151 q 559 209 520 151 q 597 401 597 267 l 597 758 l 804 758 l 804 0 l 646 0 m 624 1003 q 576 885 624 930 q 452 840 528 840 q 330 884 376 840 q 283 1002 283 927 q 329 1119 283 1075 q 452 1162 375 1162 q 575 1118 526 1162 q 624 1003 624 1073 m 517 1002 q 498 1049 517 1032 q 452 1067 480 1067 q 405 1049 423 1067 q 387 1002 387 1032 q 403 954 387 971 q 452 936 419 936 q 498 954 480 936 q 517 1002 517 971 z "},"Ű":{"ha":1050,"x_min":118,"x_max":932,"o":"m 932 991 l 932 350 q 883 157 932 240 q 741 31 833 75 q 521 -14 648 -14 q 224 84 330 -14 q 118 353 118 182 l 118 991 l 328 991 l 328 385 q 374 216 328 270 q 526 163 420 163 q 676 217 629 163 q 722 386 722 271 l 722 991 l 932 991 m 299 1071 l 299 1089 q 379 1206 341 1147 q 431 1293 416 1265 l 635 1293 l 635 1279 q 536 1175 613 1243 q 408 1071 458 1107 l 299 1071 m 568 1071 l 568 1089 q 701 1293 663 1219 l 905 1293 l 905 1279 q 820 1188 888 1250 q 678 1071 751 1126 l 568 1071 z "},"ű":{"ha":913,"x_min":104,"x_max":839,"o":"m 646 0 l 618 97 l 607 97 q 513 15 574 44 q 374 -14 452 -14 q 172 58 240 -14 q 104 264 104 130 l 104 758 l 311 758 l 311 315 q 340 192 311 233 q 433 151 370 151 q 559 209 520 151 q 597 401 597 267 l 597 758 l 804 758 l 804 0 l 646 0 m 233 842 l 233 860 q 313 977 275 918 q 365 1064 351 1036 l 569 1064 l 569 1050 q 470 946 547 1014 q 342 842 393 878 l 233 842 m 503 842 l 503 860 q 635 1064 597 990 l 839 1064 l 839 1050 q 754 959 822 1021 q 612 842 686 897 l 503 842 z "},"Ų":{"ha":1050,"x_min":118,"x_max":932,"o":"m 932 991 l 932 350 q 883 157 932 240 q 741 31 833 75 q 521 -14 648 -14 q 224 84 330 -14 q 118 353 118 182 l 118 991 l 328 991 l 328 385 q 374 216 328 270 q 526 163 420 163 q 676 217 629 163 q 722 386 722 271 l 722 991 l 932 991 m 546 -154 q 561 -196 546 -182 q 600 -210 576 -210 q 678 -197 637 -210 l 678 -318 q 572 -334 623 -334 q 449 -291 496 -334 q 403 -178 403 -248 q 429 -92 403 -132 q 525 0 454 -52 l 646 0 q 572 -82 599 -45 q 546 -154 546 -119 z "},"ų":{"ha":913,"x_min":104,"x_max":804,"o":"m 646 0 l 618 97 l 607 97 q 513 15 574 44 q 374 -14 452 -14 q 172 58 240 -14 q 104 264 104 130 l 104 758 l 311 758 l 311 315 q 340 192 311 233 q 433 151 370 151 q 559 209 520 151 q 597 401 597 267 l 597 758 l 804 758 l 804 0 l 646 0 m 665 -154 q 681 -196 665 -182 q 720 -210 696 -210 q 798 -197 757 -210 l 798 -318 q 692 -334 742 -334 q 569 -291 615 -334 q 522 -178 522 -248 q 548 -92 522 -132 q 644 0 574 -52 l 766 0 q 692 -82 718 -45 q 665 -154 665 -119 z "},"Ŵ":{"ha":1343,"x_min":0,"x_max":1343,"o":"m 1090 0 l 851 0 l 717 521 q 691 636 709 549 q 671 753 673 723 q 650 635 667 716 q 625 519 634 554 l 492 0 l 253 0 l 0 991 l 207 991 l 334 450 q 382 191 367 300 q 400 310 386 229 q 428 436 415 391 l 572 991 l 771 991 l 916 436 q 939 322 925 399 q 961 191 954 245 q 983 322 968 243 q 1010 450 998 401 l 1136 991 l 1343 991 l 1090 0 m 828 1071 q 669 1190 722 1134 q 514 1071 616 1135 l 376 1071 l 376 1089 q 550 1293 505 1217 l 792 1293 q 865 1197 813 1258 q 966 1089 917 1137 l 966 1071 l 828 1071 z "},"ŵ":{"ha":1189,"x_min":14,"x_max":1175,"o":"m 732 0 l 673 265 l 595 600 l 590 600 l 452 0 l 229 0 l 14 758 l 220 758 l 307 422 q 350 174 328 332 l 354 174 q 378 337 357 225 l 389 395 l 482 758 l 710 758 l 799 395 q 807 351 802 380 q 819 289 813 321 q 828 224 824 256 q 833 174 833 193 l 838 174 q 859 308 844 222 q 882 422 875 393 l 972 758 l 1175 758 l 957 0 l 732 0 m 751 842 q 593 961 645 905 q 437 842 540 906 l 300 842 l 300 860 q 473 1064 428 988 l 715 1064 q 788 968 736 1029 q 889 860 840 907 l 889 842 l 751 842 z "},"Ŷ":{"ha":867,"x_min":0,"x_max":867,"o":"m 433 583 l 640 991 l 867 991 l 538 386 l 538 0 l 329 0 l 329 379 l 0 991 l 228 991 l 433 583 m 591 1071 q 433 1190 485 1134 q 277 1071 380 1135 l 140 1071 l 140 1089 q 313 1293 268 1217 l 555 1293 q 628 1197 576 1258 q 729 1089 680 1137 l 729 1071 l 591 1071 z "},"ŷ":{"ha":790,"x_min":0,"x_max":790,"o":"m 0 758 l 227 758 l 370 332 q 395 200 388 276 l 399 200 q 428 332 406 270 l 568 758 l 790 758 l 469 -97 q 343 -275 425 -216 q 153 -334 262 -334 q 47 -322 99 -334 l 47 -158 q 129 -167 85 -167 q 225 -133 184 -167 q 289 -32 266 -100 l 301 5 l 0 758 m 553 842 q 395 961 447 905 q 239 842 342 906 l 102 842 l 102 860 q 275 1064 230 988 l 517 1064 q 590 968 538 1029 q 691 860 642 907 l 691 842 l 553 842 z "},"Ÿ":{"ha":867,"x_min":0,"x_max":867,"o":"m 433 583 l 640 991 l 867 991 l 538 386 l 538 0 l 329 0 l 329 379 l 0 991 l 228 991 l 433 583 m 201 1182 q 227 1250 201 1226 q 296 1274 252 1274 q 366 1249 340 1274 q 391 1182 391 1223 q 366 1117 391 1141 q 296 1092 340 1092 q 227 1116 252 1092 q 201 1182 201 1139 m 475 1182 q 502 1252 475 1230 q 570 1274 530 1274 q 641 1249 614 1274 q 667 1182 667 1225 q 640 1116 667 1141 q 570 1092 614 1092 q 502 1114 530 1092 q 475 1182 475 1136 z "},"Ź":{"ha":804,"x_min":33,"x_max":771,"o":"m 771 0 l 33 0 l 33 136 l 509 818 l 46 818 l 46 991 l 758 991 l 758 856 l 283 174 l 771 174 l 771 0 m 278 1071 l 278 1089 q 437 1293 395 1225 l 669 1293 l 669 1279 q 549 1174 634 1244 q 416 1071 464 1105 l 278 1071 z "},"ź":{"ha":677,"x_min":37,"x_max":636,"o":"m 636 0 l 37 0 l 37 122 l 389 600 l 58 600 l 58 758 l 624 758 l 624 624 l 282 158 l 636 158 l 636 0 m 239 842 l 239 860 q 398 1064 355 996 l 630 1064 l 630 1050 q 510 945 595 1015 q 376 842 425 876 l 239 842 z "},"Ż":{"ha":804,"x_min":33,"x_max":771,"o":"m 771 0 l 33 0 l 33 136 l 509 818 l 46 818 l 46 991 l 758 991 l 758 856 l 283 174 l 771 174 l 771 0 m 289 1183 q 401 1284 289 1284 q 514 1183 514 1284 q 486 1108 514 1135 q 401 1082 458 1082 q 289 1183 289 1082 z "},"ż":{"ha":677,"x_min":37,"x_max":636,"o":"m 636 0 l 37 0 l 37 122 l 389 600 l 58 600 l 58 758 l 624 758 l 624 624 l 282 158 l 636 158 l 636 0 m 223 954 q 336 1055 223 1055 q 448 954 448 1055 q 420 879 448 906 q 336 852 392 852 q 223 954 223 852 z "},"Ž":{"ha":804,"x_min":33,"x_max":771,"o":"m 771 0 l 33 0 l 33 136 l 509 818 l 46 818 l 46 991 l 758 991 l 758 856 l 283 174 l 771 174 l 771 0 m 705 1293 l 705 1275 q 601 1161 648 1218 q 532 1071 553 1105 l 290 1071 q 233 1147 270 1103 q 116 1275 197 1192 l 116 1293 l 254 1293 q 409 1174 353 1230 q 568 1293 466 1233 l 705 1293 z "},"ž":{"ha":677,"x_min":37,"x_max":646,"o":"m 636 0 l 37 0 l 37 122 l 389 600 l 58 600 l 58 758 l 624 758 l 624 624 l 282 158 l 636 158 l 636 0 m 646 1064 l 646 1046 q 541 932 589 989 q 472 842 493 876 l 230 842 q 174 918 210 873 q 56 1046 137 962 l 56 1064 l 194 1064 q 349 945 294 1001 q 508 1064 406 1004 l 646 1064 z "},"ſ":{"ha":532,"x_min":109,"x_max":564,"o":"m 401 899 q 315 806 315 899 l 315 0 l 109 0 l 109 814 q 172 1003 109 943 q 375 1063 236 1063 q 564 1031 482 1063 l 515 879 q 401 899 453 899 z "},"ƒ":{"ha":793,"x_min":134,"x_max":726,"o":"m 505 -82 q 441 -268 505 -202 q 258 -334 378 -334 q 134 -317 186 -334 l 134 -154 q 214 -167 174 -167 q 298 -52 298 -167 l 298 546 l 184 546 l 184 646 l 298 701 l 298 757 q 358 945 298 885 q 549 1006 417 1006 q 726 974 650 1006 l 677 822 q 579 842 622 842 q 505 749 505 842 l 505 701 l 660 701 l 660 546 l 505 546 l 505 -82 z "},"Ǻ":{"ha":958,"x_min":0,"x_max":958,"o":"m 650 991 q 618 892 650 934 l 958 0 l 733 0 l 661 224 l 298 224 l 225 0 l 0 0 l 339 892 q 310 990 310 931 q 356 1108 310 1065 q 478 1152 402 1152 q 601 1108 552 1152 q 650 991 650 1064 m 616 400 l 547 596 q 479 799 489 752 q 420 618 467 751 l 345 400 l 616 400 m 396 1189 l 396 1200 q 463 1269 427 1228 q 514 1331 499 1310 l 746 1331 l 746 1322 q 668 1265 730 1305 q 533 1189 606 1226 l 396 1189 m 543 990 q 525 1038 543 1021 q 478 1055 507 1055 q 431 1038 450 1055 q 412 990 412 1021 q 471 925 412 928 l 484 925 q 526 944 509 926 q 543 990 543 961 z "},"ǻ":{"ha":839,"x_min":58,"x_max":734,"o":"m 590 0 l 550 103 l 545 103 q 437 12 492 37 q 293 -14 382 -14 q 121 49 184 -14 q 58 227 58 111 q 143 405 58 347 q 397 468 227 462 l 529 472 l 529 505 q 411 621 529 621 q 197 566 320 621 l 129 705 q 419 774 260 774 q 653 707 572 774 q 734 505 734 641 l 734 0 l 590 0 m 529 351 l 449 349 q 315 316 359 346 q 271 225 271 286 q 371 138 271 138 q 486 179 443 138 q 529 289 529 220 l 529 351 m 319 1189 l 319 1200 q 387 1269 351 1228 q 437 1331 422 1310 l 669 1331 l 669 1322 q 600 1271 655 1306 q 457 1189 544 1235 l 319 1189 m 597 975 q 549 857 597 902 q 425 812 501 812 q 303 856 349 812 q 257 974 257 899 q 303 1091 257 1047 q 425 1135 349 1135 q 549 1090 500 1135 q 597 975 597 1045 m 490 974 q 472 1022 490 1004 q 425 1039 454 1039 q 378 1022 397 1039 q 359 974 359 1004 q 376 926 359 943 q 425 908 393 908 q 472 926 454 908 q 490 974 490 943 z "},"Ǽ":{"ha":1322,"x_min":0,"x_max":1240,"o":"m 1240 0 l 648 0 l 648 236 l 315 236 l 214 0 l 0 0 l 444 991 l 1240 991 l 1240 819 l 859 819 l 859 602 l 1215 602 l 1215 429 l 859 429 l 859 174 l 1240 174 l 1240 0 m 392 412 l 648 412 l 648 812 l 562 812 l 392 412 m 681 1071 l 681 1089 q 840 1293 798 1225 l 1072 1293 l 1072 1279 q 952 1174 1037 1244 q 819 1071 867 1105 l 681 1071 z "},"ǽ":{"ha":1274,"x_min":58,"x_max":1214,"o":"m 901 -14 q 732 21 808 -14 q 607 126 656 55 q 474 17 541 47 q 300 -14 407 -14 q 124 51 191 -14 q 58 227 58 115 q 140 405 58 347 q 386 468 222 462 l 515 472 l 515 529 q 485 598 515 576 q 403 621 455 621 q 196 568 308 621 l 129 705 q 415 774 257 774 q 647 685 569 774 q 750 750 692 728 q 890 772 809 772 q 1127 679 1040 772 q 1214 428 1214 586 l 1214 328 l 724 328 q 776 190 727 239 q 913 140 825 140 q 1171 200 1046 140 l 1171 40 q 1055 0 1117 14 q 901 -14 992 -14 m 515 351 l 439 349 q 313 316 355 346 q 271 225 271 287 q 366 138 271 138 q 475 179 434 138 q 515 289 515 220 l 515 351 m 886 625 q 728 465 739 625 l 1019 465 q 982 583 1018 541 q 886 625 946 625 m 541 842 l 541 860 q 700 1064 657 996 l 932 1064 l 932 1050 q 811 945 897 1015 q 678 842 726 876 l 541 842 z "},"Ǿ":{"ha":1105,"x_min":81,"x_max":1025,"o":"m 1025 497 q 903 119 1025 251 q 553 -14 781 -14 q 325 31 419 -14 l 264 -61 l 154 12 l 215 104 q 81 498 81 236 q 203 877 81 746 q 554 1007 326 1007 q 787 960 688 1007 l 844 1044 l 953 974 l 893 885 q 1025 497 1025 753 m 301 497 q 339 289 301 368 l 682 802 q 554 832 625 832 q 365 748 429 832 q 301 497 301 663 m 804 497 q 770 699 804 619 l 431 189 q 553 163 482 163 q 804 497 804 163 m 432 1071 l 432 1089 q 591 1293 549 1225 l 823 1293 l 823 1279 q 703 1174 788 1244 q 570 1071 618 1105 l 432 1071 z "},"ǿ":{"ha":860,"x_min":62,"x_max":798,"o":"m 798 380 q 700 91 798 195 q 428 -14 602 -14 q 269 17 342 -14 l 224 -52 l 119 20 l 165 87 q 62 380 62 193 q 159 669 62 566 q 432 772 256 772 q 600 737 522 772 l 637 793 l 741 720 l 701 663 q 798 380 798 557 m 273 380 q 286 268 273 317 l 501 590 q 429 606 472 606 q 310 550 347 606 q 273 380 273 494 m 586 380 q 578 476 586 435 l 368 163 q 431 153 394 153 q 550 210 513 153 q 586 380 586 267 m 309 842 l 309 860 q 468 1064 425 996 l 700 1064 l 700 1050 q 579 945 665 1015 q 446 842 494 876 l 309 842 z "},"Ș":{"ha":765,"x_min":64,"x_max":710,"o":"m 710 275 q 613 64 710 141 q 345 -14 517 -14 q 64 46 186 -14 l 64 241 q 234 178 164 197 q 361 160 303 160 q 467 186 430 160 q 504 265 504 213 q 488 317 504 294 q 440 361 471 340 q 311 428 408 382 q 175 510 220 471 q 102 602 130 549 q 75 724 75 654 q 164 930 75 855 q 411 1006 254 1006 q 558 987 488 1006 q 705 936 629 969 l 637 772 q 506 818 558 805 q 404 831 454 831 q 313 803 345 831 q 281 730 281 775 q 294 682 281 703 q 335 642 307 661 q 468 572 363 623 q 659 439 607 506 q 710 275 710 372 m 234 -289 q 257 -192 244 -256 q 276 -85 271 -128 l 467 -85 l 467 -98 q 355 -307 416 -212 l 234 -307 l 234 -289 z "},"ș":{"ha":690,"x_min":62,"x_max":637,"o":"m 637 225 q 556 47 637 109 q 314 -14 475 -14 q 173 -2 231 -14 q 64 31 115 9 l 64 201 q 194 156 121 174 q 321 138 266 138 q 433 203 433 138 q 418 242 433 227 q 367 277 404 258 q 269 322 330 296 q 141 390 182 359 q 81 461 100 421 q 62 561 62 502 q 141 717 62 662 q 363 772 219 772 q 629 713 500 772 l 567 564 q 460 604 510 588 q 359 619 411 619 q 268 570 268 619 q 297 522 268 542 q 427 461 327 501 q 557 394 515 425 q 618 322 598 363 q 637 225 637 281 m 199 -289 q 223 -192 210 -256 q 241 -85 236 -128 l 433 -85 l 433 -98 q 320 -307 382 -212 l 199 -307 l 199 -289 z "},"ˆ":{"ha":843,"x_min":126,"x_max":715,"o":"m 578 842 q 419 961 471 905 q 264 842 366 906 l 126 842 l 126 860 q 300 1064 254 988 l 542 1064 q 615 968 563 1029 q 715 860 667 907 l 715 842 l 578 842 z "},"ˇ":{"ha":843,"x_min":126,"x_max":715,"o":"m 715 1064 l 715 1046 q 611 932 659 989 q 542 842 563 876 l 300 842 q 243 918 280 873 q 126 1046 207 962 l 126 1064 l 264 1064 q 419 945 363 1001 q 578 1064 476 1004 l 715 1064 z "},"ˉ":{"ha":843,"x_min":192,"x_max":652,"o":"m 192 985 l 652 985 l 652 842 l 192 842 l 192 985 z "},"˘":{"ha":843,"x_min":154,"x_max":688,"o":"m 688 1071 q 605 904 680 966 q 418 842 530 842 q 230 903 300 842 q 154 1071 159 965 l 269 1071 q 288 1021 272 1039 q 333 994 304 1002 q 419 986 361 986 q 570 1071 559 986 l 688 1071 z "},"˙":{"ha":424,"x_min":100,"x_max":325,"o":"m 100 954 q 212 1055 100 1055 q 325 954 325 1055 q 297 879 325 906 q 212 852 269 852 q 100 954 100 852 z "},"˚":{"ha":802,"x_min":231,"x_max":571,"o":"m 571 1003 q 523 885 571 930 q 399 840 475 840 q 277 884 323 840 q 231 1002 231 927 q 276 1119 231 1075 q 399 1162 322 1162 q 522 1118 473 1162 q 571 1003 571 1073 m 464 1002 q 446 1049 464 1032 q 399 1067 427 1067 q 352 1049 370 1067 q 334 1002 334 1032 q 350 954 334 971 q 399 936 366 936 q 446 954 427 936 q 464 1002 464 971 z "},"˛":{"ha":286,"x_min":7,"x_max":282,"o":"m 150 -154 q 165 -196 150 -182 q 204 -210 180 -210 q 282 -197 241 -210 l 282 -318 q 176 -334 227 -334 q 53 -291 100 -334 q 7 -178 7 -248 q 33 -92 7 -132 q 129 0 58 -52 l 250 0 q 176 -82 203 -45 q 150 -154 150 -119 z "},"˜":{"ha":843,"x_min":140,"x_max":703,"o":"m 310 913 q 270 895 289 913 q 241 840 250 877 l 140 840 q 196 994 148 939 q 325 1050 245 1050 q 379 1039 353 1050 q 432 1014 406 1027 q 484 990 458 1001 q 533 979 509 979 q 573 997 554 979 q 602 1051 593 1015 l 703 1051 q 646 897 695 953 q 518 842 597 842 q 464 853 490 842 q 411 877 437 864 q 359 902 385 890 q 310 913 334 913 z "},"˝":{"ha":817,"x_min":106,"x_max":711,"o":"m 106 842 l 106 860 q 185 977 148 918 q 237 1064 223 1036 l 441 1064 l 441 1050 q 342 946 420 1014 q 215 842 265 878 l 106 842 m 375 842 l 375 860 q 507 1064 469 990 l 711 1064 l 711 1050 q 626 959 694 1021 q 485 842 558 897 l 375 842 z "},"΄":{"ha":802,"x_min":319,"x_max":567,"o":"m 319 863 q 350 974 332 899 q 375 1105 368 1048 l 567 1105 l 567 1089 q 440 842 514 963 l 319 842 l 319 863 z "},"΅":{"ha":802,"x_min":126,"x_max":675,"o":"m 126 953 q 150 1023 126 1001 q 214 1044 174 1044 q 277 1023 252 1044 q 302 953 302 1001 q 277 885 302 907 q 214 863 252 863 q 150 885 174 863 q 126 953 126 907 m 497 953 q 586 1044 497 1044 q 650 1023 625 1044 q 675 953 675 1001 q 650 885 675 907 q 586 863 625 863 q 521 885 545 863 q 497 953 497 907 m 330 960 q 354 1057 340 993 q 372 1164 367 1120 l 550 1164 l 550 1150 q 424 942 511 1063 l 330 942 l 330 960 z "},"Ά":{"ha":958,"x_min":-38,"x_max":958,"o":"m 732 0 l 660 236 l 298 236 l 227 0 l 0 0 l 350 996 l 607 996 l 958 0 l 732 0 m 610 412 q 497 775 510 733 q 479 842 485 817 q 351 412 457 755 l 610 412 m -38 791 q -8 903 -26 828 q 18 1034 10 977 l 210 1034 l 210 1018 q 83 770 157 892 l -38 770 l -38 791 z "},"·":{"ha":396,"x_min":79,"x_max":317,"o":"m 79 489 q 110 575 79 546 q 199 604 140 604 q 286 574 255 604 q 317 489 317 545 q 286 405 317 435 q 199 374 254 374 q 111 404 142 374 q 79 489 79 434 z "},"Έ":{"ha":875,"x_min":-67,"x_max":793,"o":"m 793 0 l 222 0 l 222 991 l 793 991 l 793 819 l 432 819 l 432 602 l 768 602 l 768 429 l 432 429 l 432 174 l 793 174 l 793 0 m -67 791 q -37 903 -55 828 q -12 1034 -19 977 l 180 1034 l 180 1018 q 54 770 127 892 l -67 770 l -67 791 z "},"Ή":{"ha":1160,"x_min":-67,"x_max":1034,"o":"m 1034 0 l 825 0 l 825 428 l 432 428 l 432 0 l 222 0 l 222 991 l 432 991 l 432 603 l 825 603 l 825 991 l 1034 991 l 1034 0 m -67 791 q -37 903 -55 828 q -12 1034 -19 977 l 180 1034 l 180 1018 q 54 770 127 892 l -67 770 l -67 791 z "},"Ό":{"ha":1161,"x_min":-39,"x_max":1080,"o":"m 1080 497 q 958 119 1080 251 q 608 -14 836 -14 q 258 119 380 -14 q 136 498 136 251 q 259 877 136 746 q 610 1007 381 1007 q 959 876 838 1007 q 1080 497 1080 744 m 357 497 q 420 247 357 331 q 608 163 483 163 q 860 497 860 163 q 610 832 860 832 q 420 748 484 832 q 357 497 357 663 m -39 791 q -9 903 -27 828 q 16 1034 9 977 l 208 1034 l 208 1018 q 81 770 155 892 l -39 770 l -39 791 z "},"Ύ":{"ha":1061,"x_min":-81,"x_max":1061,"o":"m 628 583 l 835 991 l 1061 991 l 732 386 l 732 0 l 524 0 l 524 379 l 195 991 l 422 991 l 628 583 m -81 791 q -51 903 -69 828 q -26 1034 -33 977 l 166 1034 l 166 1018 q 39 770 113 892 l -81 770 l -81 791 z "},"Ώ":{"ha":1092,"x_min":-39,"x_max":1115,"o":"m 607 832 q 418 758 484 832 q 351 547 351 683 q 396 324 351 410 q 532 189 441 238 l 532 0 l 98 0 l 98 176 l 350 176 q 191 348 247 239 q 135 591 135 457 q 193 811 135 716 q 358 956 251 905 q 607 1007 465 1007 q 951 894 823 1007 q 1079 590 1079 781 q 1023 349 1079 456 q 861 176 966 241 l 1115 176 l 1115 0 l 679 0 l 679 189 q 818 326 773 238 q 863 549 863 413 q 796 758 863 684 q 607 832 729 832 m -39 791 q -9 903 -27 828 q 16 1034 9 977 l 208 1034 l 208 1018 q 81 770 155 892 l -39 770 l -39 791 z "},"ΐ":{"ha":566,"x_min":-37,"x_max":536,"o":"m 315 758 l 315 237 q 340 172 315 193 q 406 151 365 151 q 536 175 460 151 l 536 21 q 358 -14 463 -14 q 169 49 229 -14 q 109 237 109 112 l 109 758 l 315 758 m -37 953 q -13 1023 -37 1001 q 50 1044 11 1044 q 114 1023 89 1044 q 139 953 139 1001 q 114 885 139 907 q 50 863 89 863 q -13 885 11 863 q -37 953 -37 907 m 334 953 q 422 1044 334 1044 q 486 1023 461 1044 q 511 953 511 1001 q 486 885 511 907 q 422 863 461 863 q 358 885 382 863 q 334 953 334 907 m 167 960 q 190 1057 177 993 q 209 1164 203 1120 l 387 1164 l 387 1150 q 260 942 347 1063 l 167 942 l 167 960 z "},"Α":{"ha":958,"x_min":0,"x_max":958,"o":"m 732 0 l 660 236 l 298 236 l 227 0 l 0 0 l 350 996 l 607 996 l 958 0 l 732 0 m 610 412 q 497 775 510 733 q 479 842 485 817 q 351 412 457 755 l 610 412 z "},"Β":{"ha":933,"x_min":125,"x_max":860,"o":"m 125 991 l 433 991 q 740 931 644 991 q 835 741 835 871 q 793 595 835 652 q 682 526 751 538 l 682 519 q 818 441 777 498 q 860 288 860 383 q 762 76 860 152 q 496 0 664 0 l 125 0 l 125 991 m 335 599 l 457 599 q 581 625 543 599 q 619 713 619 652 q 577 794 619 770 q 446 819 536 819 l 335 819 l 335 599 m 335 432 l 335 174 l 472 174 q 600 207 559 174 q 642 309 642 240 q 465 432 642 432 l 335 432 z "},"Γ":{"ha":779,"x_min":125,"x_max":751,"o":"m 751 991 l 751 818 l 335 818 l 335 0 l 125 0 l 125 991 l 751 991 z "},"Δ":{"ha":914,"x_min":39,"x_max":875,"o":"m 39 121 l 339 996 l 576 996 l 875 119 l 875 0 l 39 0 l 39 121 m 457 823 q 449 784 456 813 q 428 707 441 754 q 253 175 414 661 l 661 175 l 490 696 l 483 722 q 457 823 458 810 z "},"Ε":{"ha":778,"x_min":125,"x_max":696,"o":"m 696 0 l 125 0 l 125 991 l 696 991 l 696 819 l 335 819 l 335 602 l 671 602 l 671 429 l 335 429 l 335 174 l 696 174 l 696 0 z "},"Ζ":{"ha":804,"x_min":33,"x_max":771,"o":"m 771 0 l 33 0 l 33 136 l 509 818 l 46 818 l 46 991 l 758 991 l 758 856 l 283 174 l 771 174 l 771 0 z "},"Η":{"ha":1063,"x_min":125,"x_max":937,"o":"m 937 0 l 728 0 l 728 428 l 335 428 l 335 0 l 125 0 l 125 991 l 335 991 l 335 603 l 728 603 l 728 991 l 937 991 l 937 0 z "},"Θ":{"ha":1105,"x_min":81,"x_max":1025,"o":"m 729 590 l 729 418 l 376 418 l 376 590 l 729 590 m 1025 497 q 903 119 1025 251 q 553 -14 781 -14 q 203 119 325 -14 q 81 498 81 251 q 203 877 81 746 q 554 1007 326 1007 q 904 876 783 1007 q 1025 497 1025 744 m 297 497 q 362 248 297 333 q 553 163 427 163 q 745 248 681 163 q 808 497 808 333 q 745 747 808 661 q 554 832 681 832 q 362 747 427 832 q 297 497 297 662 z "},"Κ":{"ha":922,"x_min":125,"x_max":922,"o":"m 922 0 l 684 0 l 424 418 l 335 354 l 335 0 l 125 0 l 125 991 l 335 991 l 335 538 l 418 654 l 686 991 l 920 991 l 574 553 l 922 0 z "},"Λ":{"ha":903,"x_min":0,"x_max":903,"o":"m 452 815 q 426 698 444 773 q 400 595 409 623 l 212 0 l 0 0 l 336 991 l 566 991 l 903 0 l 690 0 l 505 596 q 478 697 498 616 q 452 815 458 779 z "},"Μ":{"ha":1310,"x_min":125,"x_max":1185,"o":"m 545 0 l 306 778 l 300 778 q 313 461 313 541 l 313 0 l 125 0 l 125 991 l 411 991 l 646 233 l 650 233 l 899 991 l 1185 991 l 1185 0 l 989 0 l 989 469 q 990 546 989 503 q 999 777 991 589 l 993 777 l 737 0 l 545 0 z "},"Ν":{"ha":1129,"x_min":125,"x_max":1004,"o":"m 1004 0 l 737 0 l 306 750 l 300 750 q 313 467 313 551 l 313 0 l 125 0 l 125 991 l 390 991 l 821 249 l 825 249 q 815 522 815 442 l 815 991 l 1004 991 l 1004 0 z "},"Ξ":{"ha":793,"x_min":56,"x_max":737,"o":"m 139 602 l 654 602 l 654 429 l 139 429 l 139 602 m 83 991 l 710 991 l 710 819 l 83 819 l 83 991 m 737 174 l 737 0 l 56 0 l 56 174 l 737 174 z "},"Ο":{"ha":1105,"x_min":81,"x_max":1025,"o":"m 1025 497 q 903 119 1025 251 q 553 -14 781 -14 q 203 119 325 -14 q 81 498 81 251 q 203 877 81 746 q 554 1007 326 1007 q 904 876 783 1007 q 1025 497 1025 744 m 301 497 q 364 247 301 331 q 553 163 427 163 q 804 497 804 163 q 554 832 804 832 q 365 748 429 832 q 301 497 301 663 z "},"Π":{"ha":1035,"x_min":125,"x_max":909,"o":"m 909 0 l 700 0 l 700 817 l 335 817 l 335 0 l 125 0 l 125 991 l 909 991 l 909 0 z "},"Ρ":{"ha":872,"x_min":125,"x_max":810,"o":"m 335 525 l 404 525 q 549 563 501 525 q 597 675 597 602 q 557 784 597 749 q 431 819 517 819 l 335 819 l 335 525 m 810 682 q 710 437 810 522 q 425 353 610 353 l 335 353 l 335 0 l 125 0 l 125 991 l 441 991 q 716 914 622 991 q 810 682 810 836 z "},"Σ":{"ha":823,"x_min":53,"x_max":777,"o":"m 53 0 l 53 165 l 372 519 l 61 831 l 61 991 l 736 991 l 736 819 l 439 819 q 285 827 404 819 l 593 521 l 269 165 q 463 174 432 174 l 777 174 l 777 0 l 53 0 z "},"Τ":{"ha":804,"x_min":28,"x_max":777,"o":"m 507 0 l 297 0 l 297 817 l 28 817 l 28 991 l 777 991 l 777 817 l 507 817 l 507 0 z "},"Υ":{"ha":867,"x_min":0,"x_max":867,"o":"m 433 583 l 640 991 l 867 991 l 538 386 l 538 0 l 329 0 l 329 379 l 0 991 l 228 991 l 433 583 z "},"Φ":{"ha":1194,"x_min":62,"x_max":1132,"o":"m 692 301 l 701 301 q 872 358 810 301 q 935 515 935 416 q 877 664 935 608 q 720 720 819 720 l 692 720 l 692 301 m 503 -14 l 503 139 l 488 139 q 267 183 361 139 q 117 317 172 228 q 62 514 62 406 q 111 704 62 619 q 251 836 159 788 q 467 884 342 884 l 503 884 l 503 1006 l 692 1006 l 692 884 l 728 884 q 943 836 851 884 q 1083 704 1034 788 q 1132 514 1132 619 q 1077 317 1132 406 q 928 183 1023 228 q 707 139 833 139 l 692 139 l 692 -14 l 503 -14 m 503 720 l 475 720 q 317 664 375 720 q 260 515 260 608 q 321 359 260 418 q 493 301 382 301 l 503 301 l 503 720 z "},"Χ":{"ha":926,"x_min":0,"x_max":926,"o":"m 926 0 l 686 0 l 456 375 l 225 0 l 0 0 l 329 511 l 21 991 l 253 991 l 467 635 l 676 991 l 903 991 l 591 500 l 926 0 z "},"Ψ":{"ha":1217,"x_min":74,"x_max":1143,"o":"m 1143 667 q 1042 386 1143 476 q 737 296 941 296 l 703 296 l 703 0 l 514 0 l 514 296 l 479 296 q 173 386 273 296 q 74 664 74 475 l 74 991 l 271 991 l 271 667 q 321 513 271 560 q 493 465 372 465 l 514 465 l 514 991 l 703 991 l 703 465 l 724 465 q 894 514 842 465 q 946 664 946 564 l 946 991 l 1143 991 l 1143 667 z "},"Ω":{"ha":1092,"x_min":37,"x_max":1054,"o":"m 546 832 q 357 758 423 832 q 290 547 290 683 q 335 324 290 410 q 471 189 380 238 l 471 0 l 37 0 l 37 176 l 289 176 q 130 348 186 239 q 74 591 74 457 q 132 811 74 716 q 297 956 190 905 q 546 1007 404 1007 q 890 894 762 1007 q 1018 590 1018 781 q 962 349 1018 456 q 800 176 905 241 l 1054 176 l 1054 0 l 618 0 l 618 189 q 757 326 712 238 q 802 549 802 413 q 735 758 802 684 q 546 832 668 832 z "},"Ϋ":{"ha":867,"x_min":0,"x_max":867,"o":"m 433 583 l 640 991 l 867 991 l 538 386 l 538 0 l 329 0 l 329 379 l 0 991 l 228 991 l 433 583 m 203 1182 q 228 1250 203 1226 q 297 1274 254 1274 q 367 1249 342 1274 q 393 1182 393 1223 q 367 1117 393 1141 q 297 1092 341 1092 q 228 1116 254 1092 q 203 1182 203 1139 m 476 1182 q 504 1252 476 1230 q 572 1274 531 1274 q 642 1249 616 1274 q 668 1182 668 1225 q 642 1116 668 1141 q 572 1092 615 1092 q 504 1114 531 1092 q 476 1182 476 1136 z "},"ά":{"ha":899,"x_min":62,"x_max":868,"o":"m 422 151 q 539 200 503 151 q 578 370 575 248 l 578 378 q 540 553 578 500 q 419 606 503 606 q 273 375 273 606 q 310 207 273 263 q 422 151 346 151 m 359 -14 q 141 90 220 -14 q 62 376 62 193 q 145 668 62 565 q 375 771 227 771 q 507 743 455 771 q 593 657 559 714 l 603 657 q 648 758 619 721 l 819 758 q 784 607 798 692 q 771 452 771 522 l 771 240 q 828 160 771 160 q 868 167 850 160 l 868 4 q 826 -8 857 -3 q 775 -14 795 -14 q 659 13 699 -14 q 596 100 619 39 l 582 100 q 359 -14 507 -14 m 353 863 q 383 974 365 899 q 408 1105 401 1048 l 600 1105 l 600 1089 q 473 842 547 963 l 353 842 l 353 863 z "},"έ":{"ha":771,"x_min":53,"x_max":720,"o":"m 570 467 l 570 323 l 456 323 q 307 301 357 323 q 257 231 257 279 q 439 146 257 146 q 583 161 509 146 q 718 204 658 176 l 718 39 q 424 -14 602 -14 q 148 42 243 -14 q 53 210 53 98 q 96 328 53 282 q 237 392 140 373 l 237 399 q 93 574 93 432 q 179 721 93 669 q 424 772 265 772 q 581 757 502 772 q 720 715 660 741 l 656 566 q 528 609 575 598 q 429 619 481 619 q 315 602 353 619 q 278 549 278 585 q 323 485 278 504 q 465 467 368 467 l 570 467 m 345 863 q 375 974 357 899 q 400 1105 393 1048 l 592 1105 l 592 1089 q 465 842 539 963 l 345 842 l 345 863 z "},"ή":{"ha":913,"x_min":109,"x_max":808,"o":"m 808 -334 l 602 -334 l 602 443 q 572 566 602 525 q 479 607 543 607 q 354 549 393 607 q 315 357 315 491 l 315 0 l 109 0 l 109 758 l 267 758 l 294 661 l 306 661 q 401 744 340 716 q 539 772 462 772 q 740 701 671 772 q 808 494 808 629 l 808 -334 m 400 863 q 430 974 412 899 q 456 1105 448 1048 l 648 1105 l 648 1089 q 521 842 595 963 l 400 842 l 400 863 z "},"ί":{"ha":566,"x_min":109,"x_max":536,"o":"m 315 758 l 315 237 q 340 172 315 193 q 406 151 365 151 q 536 175 460 151 l 536 21 q 358 -14 463 -14 q 169 49 229 -14 q 109 237 109 112 l 109 758 l 315 758 m 155 863 q 185 974 167 899 q 210 1105 203 1048 l 402 1105 l 402 1089 q 275 842 349 963 l 155 842 l 155 863 z "},"ΰ":{"ha":896,"x_min":97,"x_max":822,"o":"m 446 -12 q 183 76 270 -12 q 97 346 97 163 l 97 758 l 304 758 l 304 339 q 340 196 304 240 q 453 153 376 153 q 576 216 538 153 q 615 416 615 279 q 606 562 615 489 q 567 758 596 634 l 775 758 q 812 571 802 652 q 822 411 822 491 q 729 93 822 198 q 446 -12 637 -12 m 172 953 q 196 1023 172 1001 q 260 1044 220 1044 q 323 1023 298 1044 q 349 953 349 1001 q 323 885 349 907 q 260 863 298 863 q 196 885 220 863 q 172 953 172 907 m 543 953 q 632 1044 543 1044 q 696 1023 671 1044 q 721 953 721 1001 q 696 885 721 907 q 632 863 671 863 q 567 885 591 863 q 543 953 543 907 m 376 960 q 400 1057 387 993 q 418 1164 413 1120 l 596 1164 l 596 1150 q 470 942 557 1063 l 376 942 l 376 960 z "},"α":{"ha":899,"x_min":62,"x_max":868,"o":"m 422 151 q 539 200 503 151 q 578 370 575 248 l 578 378 q 540 553 578 500 q 419 606 503 606 q 273 375 273 606 q 310 207 273 263 q 422 151 346 151 m 359 -14 q 141 90 220 -14 q 62 376 62 193 q 145 668 62 565 q 375 771 227 771 q 507 743 455 771 q 593 657 559 714 l 603 657 q 648 758 619 721 l 819 758 q 784 607 798 692 q 771 452 771 522 l 771 240 q 828 160 771 160 q 868 167 850 160 l 868 4 q 826 -8 857 -3 q 775 -14 795 -14 q 659 13 699 -14 q 596 100 619 39 l 582 100 q 359 -14 507 -14 z "},"β":{"ha":917,"x_min":109,"x_max":868,"o":"m 471 1063 q 722 992 630 1063 q 814 796 814 922 q 762 636 814 695 q 615 562 711 578 l 615 558 q 805 476 743 542 q 868 293 868 411 q 780 68 868 151 q 536 -14 691 -14 q 315 29 401 -14 l 315 -334 l 109 -334 l 109 743 q 203 979 109 895 q 471 1063 298 1063 m 465 901 q 315 724 315 901 l 315 199 q 395 164 348 178 q 484 151 443 151 q 612 193 570 151 q 654 311 654 235 q 609 425 654 386 q 478 464 564 464 l 429 464 l 429 628 l 465 628 q 570 665 532 628 q 607 771 607 702 q 570 867 607 833 q 465 901 532 901 z "},"γ":{"ha":789,"x_min":1,"x_max":789,"o":"m 441 -334 l 222 -334 q 241 -178 222 -275 q 290 8 260 -81 l 1 758 l 216 758 l 328 424 q 364 300 342 382 q 396 168 387 218 l 400 168 q 422 276 403 198 q 463 414 441 353 l 574 758 l 789 758 l 509 12 q 460 -162 478 -66 q 441 -334 441 -257 z "},"δ":{"ha":860,"x_min":62,"x_max":798,"o":"m 329 623 q 168 854 168 725 q 250 1007 168 952 q 476 1063 332 1063 q 622 1047 551 1063 q 789 987 693 1032 l 707 842 q 586 891 644 872 q 468 909 528 909 q 393 891 418 909 q 368 842 368 873 q 415 769 368 805 q 555 686 462 734 q 739 539 680 623 q 798 347 798 456 q 702 79 798 172 q 427 -14 606 -14 q 162 71 261 -14 q 62 297 62 155 q 128 502 62 420 q 329 623 193 583 m 586 334 q 554 448 586 397 q 450 538 522 498 q 321 453 367 514 q 275 306 275 391 q 316 195 275 237 q 428 153 357 153 q 545 199 503 153 q 586 334 586 245 z "},"ε":{"ha":771,"x_min":53,"x_max":720,"o":"m 570 467 l 570 323 l 456 323 q 307 301 357 323 q 257 231 257 279 q 439 146 257 146 q 583 161 509 146 q 718 204 658 176 l 718 39 q 424 -14 602 -14 q 148 42 243 -14 q 53 210 53 98 q 96 328 53 282 q 237 392 140 373 l 237 399 q 93 574 93 432 q 179 721 93 669 q 424 772 265 772 q 581 757 502 772 q 720 715 660 741 l 656 566 q 528 609 575 598 q 429 619 481 619 q 315 602 353 619 q 278 549 278 585 q 323 485 278 504 q 465 467 368 467 l 570 467 z "},"ζ":{"ha":692,"x_min":62,"x_max":685,"o":"m 685 -25 q 591 -257 685 -126 l 383 -257 q 457 -141 430 -194 q 484 -57 484 -89 q 457 -21 484 -35 q 361 5 430 -7 q 62 317 62 58 q 151 602 62 458 q 449 916 240 745 q 381 907 430 911 q 298 904 333 904 l 102 904 l 102 1055 l 681 1055 l 681 932 q 455 718 545 819 q 320 521 366 616 q 275 326 275 426 q 289 245 275 276 q 327 197 302 215 q 386 170 351 179 q 465 151 421 160 q 631 86 578 129 q 685 -25 685 44 z "},"η":{"ha":913,"x_min":109,"x_max":808,"o":"m 808 -334 l 602 -334 l 602 443 q 572 566 602 525 q 479 607 543 607 q 354 549 393 607 q 315 357 315 491 l 315 0 l 109 0 l 109 758 l 267 758 l 294 661 l 306 661 q 401 744 340 716 q 539 772 462 772 q 740 701 671 772 q 808 494 808 629 l 808 -334 z "},"θ":{"ha":859,"x_min":62,"x_max":796,"o":"m 796 529 q 705 120 796 254 q 428 -14 614 -14 q 155 126 248 -14 q 62 529 62 265 q 153 938 62 805 q 428 1071 244 1071 q 702 933 608 1071 q 796 529 796 795 m 428 136 q 544 215 507 136 q 583 456 580 294 l 273 456 q 312 216 276 296 q 428 136 347 136 m 429 921 q 319 849 356 921 q 275 610 281 777 l 583 610 q 542 843 578 766 q 429 921 507 921 z "},"ι":{"ha":566,"x_min":109,"x_max":536,"o":"m 315 758 l 315 237 q 340 172 315 193 q 406 151 365 151 q 536 175 460 151 l 536 21 q 358 -14 463 -14 q 169 49 229 -14 q 109 237 109 112 l 109 758 l 315 758 z "},"κ":{"ha":861,"x_min":109,"x_max":861,"o":"m 314 395 l 410 510 l 623 758 l 843 758 l 545 411 l 861 0 l 625 0 l 412 289 l 315 228 l 315 0 l 109 0 l 109 758 l 315 758 l 315 559 l 313 450 l 311 395 l 314 395 z "},"λ":{"ha":854,"x_min":5,"x_max":847,"o":"m 5 0 l 326 717 l 302 779 q 247 865 278 840 q 151 890 216 890 q 82 882 117 890 l 82 1053 q 195 1064 136 1064 q 328 1040 273 1064 q 422 967 383 1017 q 496 821 461 917 l 686 297 q 737 193 711 227 q 800 160 763 160 q 847 167 823 160 l 847 7 q 793 -7 831 -1 q 728 -14 754 -14 q 606 23 653 -14 q 530 140 558 60 q 438 405 453 359 q 415 485 424 450 l 411 485 q 359 329 380 380 l 220 0 l 5 0 z "},"μ":{"ha":917,"x_min":109,"x_max":808,"o":"m 315 315 q 345 192 315 233 q 439 151 375 151 q 563 210 524 151 q 602 401 602 269 l 602 758 l 808 758 l 808 0 l 652 0 l 623 102 l 612 102 q 543 15 584 44 q 443 -14 503 -14 q 366 2 401 -14 q 309 47 330 18 l 312 -10 l 315 -117 l 315 -334 l 109 -334 l 109 758 l 315 758 l 315 315 z "},"ν":{"ha":827,"x_min":4,"x_max":772,"o":"m 4 758 l 216 758 l 364 338 l 411 183 l 416 183 q 529 421 494 287 q 564 758 564 555 l 772 758 q 743 459 772 585 q 648 221 713 333 q 475 0 583 109 l 289 0 l 4 758 z "},"ξ":{"ha":692,"x_min":62,"x_max":685,"o":"m 62 297 q 112 447 62 382 q 254 549 161 512 l 254 555 q 106 728 106 591 q 152 844 106 800 q 301 913 197 888 q 117 904 162 904 l 102 904 l 102 1055 l 647 1055 l 647 913 l 596 913 q 391 866 471 913 q 311 741 311 820 q 355 648 311 676 q 498 621 399 621 l 611 621 l 611 478 l 497 478 q 328 436 380 478 q 275 311 275 395 q 291 234 275 263 q 340 188 307 205 q 465 151 373 170 q 631 86 578 129 q 685 -25 685 44 q 591 -257 685 -126 l 383 -257 q 457 -141 430 -194 q 484 -57 484 -89 q 457 -21 484 -35 q 361 5 430 -7 q 138 105 214 31 q 62 297 62 179 z "},"ο":{"ha":860,"x_min":62,"x_max":798,"o":"m 273 380 q 310 210 273 268 q 431 153 347 153 q 550 210 513 153 q 586 380 586 267 q 549 549 586 493 q 429 606 513 606 q 310 550 347 606 q 273 380 273 494 m 798 380 q 700 91 798 195 q 428 -14 602 -14 q 235 34 319 -14 q 107 172 152 82 q 62 380 62 261 q 159 669 62 566 q 432 772 256 772 q 625 725 541 772 q 753 589 708 677 q 798 380 798 500 z "},"π":{"ha":1026,"x_min":17,"x_max":978,"o":"m 882 149 q 970 172 927 149 l 970 24 q 899 -3 942 7 q 819 -14 856 -14 q 664 42 718 -14 q 611 208 611 98 l 611 600 l 382 600 l 382 0 l 175 0 l 175 600 l 17 600 l 17 689 l 138 758 l 978 758 l 978 600 l 818 600 l 818 216 q 836 165 818 182 q 882 149 854 149 z "},"ρ":{"ha":859,"x_min":82,"x_max":796,"o":"m 796 379 q 713 90 796 194 q 482 -14 630 -14 q 292 39 378 -14 l 279 39 q 290 -143 290 -78 l 290 -334 l 82 -334 l 82 380 q 176 670 82 567 q 443 772 270 772 q 628 725 548 772 q 752 587 708 677 q 796 379 796 498 m 439 606 q 326 554 362 606 q 290 390 290 502 l 290 211 q 359 167 319 182 q 439 153 398 153 q 550 206 516 153 q 583 379 583 259 q 550 552 583 498 q 439 606 517 606 z "},"ς":{"ha":692,"x_min":62,"x_max":685,"o":"m 62 335 q 154 665 62 557 q 441 772 245 772 q 684 718 566 772 l 624 561 q 436 606 507 606 q 312 539 351 606 q 273 340 273 473 q 290 258 273 290 q 341 207 307 227 q 465 168 375 188 q 632 100 578 144 q 685 -16 685 56 q 591 -257 685 -119 l 383 -257 q 484 -46 484 -112 q 456 -7 484 -22 q 361 21 428 7 q 138 129 214 50 q 62 335 62 208 z "},"σ":{"ha":907,"x_min":62,"x_max":879,"o":"m 808 322 q 763 146 808 223 q 632 28 717 69 q 433 -14 547 -14 q 160 89 257 -14 q 62 370 62 191 q 490 760 62 760 l 879 760 l 879 608 l 686 608 q 808 322 808 479 m 275 370 q 316 208 275 264 q 436 153 356 153 q 555 204 515 153 q 596 354 596 256 q 576 491 596 429 q 510 608 556 552 l 476 608 q 321 553 366 608 q 275 370 275 497 z "},"τ":{"ha":747,"x_min":28,"x_max":694,"o":"m 425 603 l 425 237 q 450 172 425 193 q 515 151 475 151 q 646 175 570 151 l 646 21 q 468 -14 573 -14 q 279 49 339 -14 q 218 237 218 112 l 218 603 l 28 603 l 28 689 l 147 758 l 694 758 l 694 603 l 425 603 z "},"υ":{"ha":896,"x_min":97,"x_max":822,"o":"m 446 -12 q 183 76 270 -12 q 97 346 97 163 l 97 758 l 304 758 l 304 339 q 340 196 304 240 q 453 153 376 153 q 576 216 538 153 q 615 416 615 279 q 606 562 615 489 q 567 758 596 634 l 775 758 q 812 571 802 652 q 822 411 822 491 q 729 93 822 198 q 446 -12 637 -12 z "},"φ":{"ha":1100,"x_min":62,"x_max":1038,"o":"m 839 400 q 807 563 839 506 q 714 619 775 619 q 654 592 675 619 q 632 500 632 566 l 632 149 q 782 226 725 157 q 839 400 839 295 m 440 -334 l 440 -8 q 158 111 254 12 q 62 376 62 210 q 100 579 62 481 q 218 775 137 676 l 368 677 q 282 525 307 595 q 257 372 257 454 q 440 149 257 184 l 440 498 q 513 697 440 624 q 711 770 585 770 q 951 671 864 770 q 1038 401 1038 572 q 987 197 1038 286 q 845 56 937 109 q 632 -8 753 3 l 632 -334 l 440 -334 z "},"χ":{"ha":822,"x_min":-33,"x_max":831,"o":"m 163 768 q 262 751 224 768 q 328 695 301 734 q 383 574 355 657 l 433 424 l 623 758 l 831 758 l 522 241 l 654 -81 q 697 -142 673 -124 q 762 -160 721 -160 q 831 -151 795 -160 l 831 -313 q 699 -334 773 -334 q 560 -288 614 -334 q 471 -135 506 -242 l 400 86 l 187 -334 l -33 -334 l 307 267 l 216 505 q 176 574 199 553 q 114 595 152 595 q 36 582 76 595 l 36 747 q 163 768 113 768 z "},"ψ":{"ha":1162,"x_min":97,"x_max":1089,"o":"m 684 1054 l 684 147 q 851 215 803 159 q 899 392 899 271 q 844 758 899 544 l 1036 758 q 1089 390 1089 568 q 987 102 1089 204 q 684 -12 885 -1 l 684 -334 l 492 -334 l 492 -12 q 196 92 295 -6 q 97 376 97 190 l 97 758 l 294 758 l 294 371 q 338 204 294 254 q 492 146 381 154 l 492 1054 l 684 1054 z "},"ω":{"ha":1198,"x_min":74,"x_max":1125,"o":"m 819 -14 q 684 22 736 -14 q 603 129 631 58 l 596 129 q 512 20 565 54 q 379 -14 460 -14 q 154 89 234 -14 q 74 368 74 191 q 90 561 74 473 q 150 758 106 649 l 349 758 q 264 375 264 581 q 297 205 264 264 q 396 147 331 147 q 478 186 452 147 q 504 317 504 226 l 504 517 l 694 517 l 694 317 q 720 186 694 225 q 803 147 746 147 q 901 204 867 147 q 935 372 935 262 q 850 758 935 581 l 1048 758 q 1108 561 1092 648 q 1125 368 1125 473 q 1044 88 1125 190 q 819 -14 964 -14 z "},"ϊ":{"ha":566,"x_min":8,"x_max":536,"o":"m 315 758 l 315 237 q 340 172 315 193 q 406 151 365 151 q 536 175 460 151 l 536 21 q 358 -14 463 -14 q 169 49 229 -14 q 109 237 109 112 l 109 758 l 315 758 m 8 953 q 34 1021 8 997 q 102 1044 59 1044 q 173 1019 147 1044 q 198 953 198 994 q 172 887 198 912 q 102 863 146 863 q 34 886 59 863 q 8 953 8 910 m 281 953 q 309 1022 281 1000 q 377 1044 336 1044 q 447 1020 421 1044 q 473 953 473 996 q 447 887 473 911 q 377 863 420 863 q 309 885 336 863 q 281 953 281 907 z "},"ϋ":{"ha":896,"x_min":97,"x_max":822,"o":"m 446 -12 q 183 76 270 -12 q 97 346 97 163 l 97 758 l 304 758 l 304 339 q 340 196 304 240 q 453 153 376 153 q 576 216 538 153 q 615 416 615 279 q 606 562 615 489 q 567 758 596 634 l 775 758 q 812 571 802 652 q 822 411 822 491 q 729 93 822 198 q 446 -12 637 -12 m 216 953 q 241 1021 216 997 q 310 1044 267 1044 q 380 1019 355 1044 q 406 953 406 994 q 380 887 406 912 q 310 863 354 863 q 241 886 267 863 q 216 953 216 910 m 489 953 q 516 1022 489 1000 q 585 1044 544 1044 q 655 1020 629 1044 q 681 953 681 996 q 654 887 681 911 q 585 863 628 863 q 516 885 544 863 q 489 953 489 907 z "},"ό":{"ha":860,"x_min":62,"x_max":798,"o":"m 273 380 q 310 210 273 268 q 431 153 347 153 q 550 210 513 153 q 586 380 586 267 q 549 549 586 493 q 429 606 513 606 q 310 550 347 606 q 273 380 273 494 m 798 380 q 700 91 798 195 q 428 -14 602 -14 q 235 34 319 -14 q 107 172 152 82 q 62 380 62 261 q 159 669 62 566 q 432 772 256 772 q 625 725 541 772 q 753 589 708 677 q 798 380 798 500 m 364 863 q 394 974 376 899 q 420 1105 412 1048 l 612 1105 l 612 1089 q 485 842 559 963 l 364 842 l 364 863 z "},"ύ":{"ha":896,"x_min":97,"x_max":822,"o":"m 446 -12 q 183 76 270 -12 q 97 346 97 163 l 97 758 l 304 758 l 304 339 q 340 196 304 240 q 453 153 376 153 q 576 216 538 153 q 615 416 615 279 q 606 562 615 489 q 567 758 596 634 l 775 758 q 812 571 802 652 q 822 411 822 491 q 729 93 822 198 q 446 -12 637 -12 m 372 863 q 402 974 385 899 q 428 1105 420 1048 l 620 1105 l 620 1089 q 493 842 567 963 l 372 842 l 372 863 z "},"ώ":{"ha":1198,"x_min":74,"x_max":1125,"o":"m 819 -14 q 684 22 736 -14 q 603 129 631 58 l 596 129 q 512 20 565 54 q 379 -14 460 -14 q 154 89 234 -14 q 74 368 74 191 q 90 561 74 473 q 150 758 106 649 l 349 758 q 264 375 264 581 q 297 205 264 264 q 396 147 331 147 q 478 186 452 147 q 504 317 504 226 l 504 517 l 694 517 l 694 317 q 720 186 694 225 q 803 147 746 147 q 901 204 867 147 q 935 372 935 262 q 850 758 935 581 l 1048 758 q 1108 561 1092 648 q 1125 368 1125 473 q 1044 88 1125 190 q 819 -14 964 -14 m 529 863 q 559 974 541 899 q 585 1105 577 1048 l 777 1105 l 777 1089 q 650 842 724 963 l 529 842 l 529 863 z "},"Ё":{"ha":778,"x_min":125,"x_max":696,"o":"m 696 0 l 125 0 l 125 991 l 696 991 l 696 819 l 335 819 l 335 602 l 671 602 l 671 429 l 335 429 l 335 174 l 696 174 l 696 0 m 179 1182 q 204 1250 179 1226 q 273 1274 230 1274 q 343 1249 318 1274 q 369 1182 369 1223 q 343 1117 369 1141 q 273 1092 317 1092 q 204 1116 230 1092 q 179 1182 179 1139 m 452 1182 q 480 1252 452 1230 q 548 1274 507 1274 q 618 1249 592 1274 q 644 1182 644 1225 q 618 1116 644 1141 q 548 1092 591 1092 q 480 1114 507 1092 q 452 1182 452 1136 z "},"Ђ":{"ha":1118,"x_min":28,"x_max":1044,"o":"m 768 -12 q 631 14 690 -12 l 631 187 q 747 158 698 158 q 801 169 784 158 q 826 202 818 179 q 835 262 835 225 l 835 349 q 807 433 835 409 q 714 457 779 457 l 486 457 l 486 0 l 277 0 l 277 817 l 28 817 l 28 991 l 783 991 l 783 817 l 486 817 l 486 632 l 722 632 q 961 562 877 632 q 1044 364 1044 492 l 1044 277 q 975 61 1044 135 q 768 -12 905 -12 z "},"Ѓ":{"ha":779,"x_min":125,"x_max":751,"o":"m 751 991 l 751 818 l 335 818 l 335 0 l 125 0 l 125 991 l 751 991 m 315 1071 l 315 1089 q 475 1293 432 1225 l 707 1293 l 707 1279 q 586 1174 671 1244 q 453 1071 501 1105 l 315 1071 z "},"Є":{"ha":940,"x_min":81,"x_max":892,"o":"m 571 831 q 383 766 456 831 q 302 586 311 701 l 732 586 l 732 414 l 301 414 q 378 227 310 293 q 574 161 446 161 q 854 214 690 161 l 854 37 q 713 -2 783 10 q 561 -14 644 -14 q 204 118 328 -14 q 81 494 81 249 q 141 765 81 648 q 314 943 201 881 q 581 1006 427 1006 q 744 987 669 1006 q 892 936 819 968 l 817 765 l 758 790 q 571 831 661 831 z "},"Ѕ":{"ha":765,"x_min":64,"x_max":710,"o":"m 710 275 q 613 64 710 141 q 345 -14 517 -14 q 64 46 186 -14 l 64 241 q 234 178 164 197 q 361 160 303 160 q 467 186 430 160 q 504 265 504 213 q 488 317 504 294 q 440 361 471 340 q 311 428 408 382 q 175 510 220 471 q 102 602 130 549 q 75 724 75 654 q 164 930 75 855 q 411 1006 254 1006 q 558 987 488 1006 q 705 936 629 969 l 637 772 q 506 818 558 805 q 404 831 454 831 q 313 803 345 831 q 281 730 281 775 q 294 682 281 703 q 335 642 307 661 q 468 572 363 623 q 659 439 607 506 q 710 275 710 372 z "},"Ј":{"ha":460,"x_min":-103,"x_max":335,"o":"m 21 -292 q -103 -277 -50 -292 l -103 -102 q -4 -115 -49 -115 q 95 -72 65 -115 q 125 62 125 -29 l 125 991 l 335 991 l 335 64 q 256 -201 335 -110 q 21 -292 176 -292 z "},"Љ":{"ha":1388,"x_min":11,"x_max":1325,"o":"m 864 611 l 942 611 q 1225 532 1125 611 q 1325 310 1325 454 q 1225 78 1325 155 q 930 0 1126 0 l 654 0 l 654 817 l 457 817 l 446 726 q 372 239 404 379 q 278 42 340 99 q 111 -14 216 -15 q 11 1 54 -14 l 11 174 q 85 160 50 160 q 142 193 121 160 q 181 315 163 226 q 231 607 200 404 q 283 991 262 810 l 864 991 l 864 611 m 864 172 l 928 172 q 1068 207 1023 172 q 1112 310 1112 241 q 1068 408 1112 377 q 913 439 1023 439 l 864 439 l 864 172 z "},"Њ":{"ha":1392,"x_min":125,"x_max":1329,"o":"m 1329 310 q 1230 78 1329 155 q 935 0 1130 0 l 659 0 l 659 428 l 335 428 l 335 0 l 125 0 l 125 991 l 335 991 l 335 603 l 659 603 l 659 991 l 868 991 l 868 611 l 946 611 q 1229 532 1129 611 q 1329 310 1329 454 m 868 172 l 932 172 q 1072 207 1027 172 q 1117 310 1117 241 q 1071 409 1117 378 q 917 439 1025 439 l 868 439 l 868 172 z "},"Ћ":{"ha":1118,"x_min":28,"x_max":1044,"o":"m 835 0 l 835 349 q 811 433 835 409 q 733 457 787 457 l 486 457 l 486 0 l 277 0 l 277 817 l 28 817 l 28 991 l 783 991 l 783 817 l 486 817 l 486 632 l 747 632 q 966 561 888 632 q 1044 364 1044 490 l 1044 0 l 835 0 z "},"Ќ":{"ha":933,"x_min":125,"x_max":933,"o":"m 933 0 l 694 0 l 335 503 l 335 0 l 125 0 l 125 991 l 335 991 l 335 511 l 690 991 l 914 991 l 553 515 l 933 0 m 393 1071 l 393 1089 q 553 1293 510 1225 l 785 1293 l 785 1279 q 664 1174 749 1244 q 531 1071 579 1105 l 393 1071 z "},"Ў":{"ha":907,"x_min":0,"x_max":907,"o":"m 907 991 l 600 290 q 492 100 543 158 q 372 15 441 43 q 204 -14 303 -14 q 46 7 119 -14 l 46 187 q 195 163 106 163 q 286 189 251 163 q 343 279 320 215 l 0 991 l 222 991 l 467 439 l 473 439 l 486 473 l 690 991 l 907 991 m 793 1314 q 697 1129 780 1187 q 458 1071 614 1071 q 221 1126 298 1071 q 134 1314 144 1182 l 319 1314 q 354 1216 324 1244 q 463 1187 385 1187 q 565 1218 531 1187 q 606 1314 598 1249 l 793 1314 z "},"Џ":{"ha":1035,"x_min":125,"x_max":909,"o":"m 909 0 l 619 0 l 619 -289 l 416 -289 l 416 0 l 125 0 l 125 991 l 335 991 l 335 175 l 700 175 l 700 991 l 909 991 l 909 0 z "},"А":{"ha":958,"x_min":0,"x_max":958,"o":"m 732 0 l 660 236 l 298 236 l 227 0 l 0 0 l 350 996 l 607 996 l 958 0 l 732 0 m 610 412 q 497 775 510 733 q 479 842 485 817 q 351 412 457 755 l 610 412 z "},"Б":{"ha":886,"x_min":125,"x_max":823,"o":"m 335 611 l 418 611 q 718 532 612 611 q 823 310 823 454 q 414 0 823 0 l 125 0 l 125 991 l 751 991 l 751 818 l 335 818 l 335 611 m 335 172 l 406 172 q 562 207 512 172 q 611 310 611 241 q 561 409 611 378 q 389 439 511 439 l 335 439 l 335 172 z "},"В":{"ha":933,"x_min":125,"x_max":860,"o":"m 125 991 l 433 991 q 740 931 644 991 q 835 741 835 871 q 793 595 835 652 q 682 526 751 538 l 682 519 q 818 441 777 498 q 860 288 860 383 q 762 76 860 152 q 496 0 664 0 l 125 0 l 125 991 m 335 599 l 457 599 q 581 625 543 599 q 619 713 619 652 q 577 794 619 770 q 446 819 536 819 l 335 819 l 335 599 m 335 432 l 335 174 l 472 174 q 600 207 559 174 q 642 309 642 240 q 465 432 642 432 l 335 432 z "},"Г":{"ha":779,"x_min":125,"x_max":751,"o":"m 751 991 l 751 818 l 335 818 l 335 0 l 125 0 l 125 991 l 751 991 z "},"Д":{"ha":1061,"x_min":7,"x_max":1034,"o":"m 7 175 l 83 175 q 239 568 182 372 q 323 991 296 764 l 901 991 l 901 175 l 1034 175 l 1034 -289 l 831 -289 l 831 0 l 210 0 l 210 -289 l 7 -289 l 7 175 m 490 817 q 418 488 469 661 q 304 175 368 314 l 692 175 l 692 817 l 490 817 z "},"Е":{"ha":778,"x_min":125,"x_max":696,"o":"m 696 0 l 125 0 l 125 991 l 696 991 l 696 819 l 335 819 l 335 602 l 671 602 l 671 429 l 335 429 l 335 174 l 696 174 l 696 0 z "},"Ж":{"ha":1310,"x_min":0,"x_max":1310,"o":"m 353 515 l 20 991 l 236 991 l 557 511 l 557 991 l 753 991 l 753 511 l 1074 991 l 1291 991 l 957 515 l 1310 0 l 1084 0 l 753 503 l 753 0 l 557 0 l 557 503 l 225 0 l 0 0 l 353 515 z "},"З":{"ha":900,"x_min":64,"x_max":840,"o":"m 810 760 q 742 602 810 664 q 558 522 674 539 l 558 518 q 767 443 694 505 q 840 282 840 381 q 729 66 840 145 q 422 -14 618 -14 q 72 40 204 -14 l 72 216 q 221 169 136 186 q 382 151 307 151 q 632 297 632 151 q 552 398 632 363 q 314 433 471 433 l 221 433 l 221 597 l 304 597 q 534 627 462 597 q 606 726 606 657 q 561 807 606 777 q 425 838 515 838 q 155 757 286 838 l 64 897 q 243 980 149 954 q 454 1006 338 1006 q 713 938 616 1006 q 810 760 810 870 z "},"И":{"ha":1143,"x_min":125,"x_max":1018,"o":"m 125 991 l 314 991 l 314 513 l 311 385 l 304 239 l 309 239 l 766 991 l 1018 991 l 1018 0 l 831 0 l 831 476 q 843 760 831 572 l 838 760 l 378 0 l 125 0 l 125 991 z "},"Й":{"ha":1143,"x_min":125,"x_max":1018,"o":"m 125 991 l 314 991 l 314 513 l 311 385 l 304 239 l 309 239 l 766 991 l 1018 991 l 1018 0 l 831 0 l 831 476 q 843 760 831 572 l 838 760 l 378 0 l 125 0 l 125 991 m 900 1314 q 804 1129 887 1187 q 566 1071 722 1071 q 328 1126 405 1071 q 241 1314 251 1182 l 427 1314 q 461 1216 431 1244 q 570 1187 492 1187 q 672 1218 638 1187 q 713 1314 705 1249 l 900 1314 z "},"К":{"ha":933,"x_min":125,"x_max":933,"o":"m 933 0 l 694 0 l 335 503 l 335 0 l 125 0 l 125 991 l 335 991 l 335 511 l 690 991 l 914 991 l 553 515 l 933 0 z "},"Л":{"ha":1035,"x_min":11,"x_max":909,"o":"m 909 0 l 700 0 l 700 817 l 457 817 l 446 726 q 372 239 404 379 q 278 42 340 99 q 111 -14 216 -15 q 11 1 54 -14 l 11 174 q 85 160 50 160 q 142 193 121 160 q 181 315 163 226 q 231 607 200 404 q 283 991 262 810 l 909 991 l 909 0 z "},"М":{"ha":1310,"x_min":125,"x_max":1185,"o":"m 545 0 l 306 778 l 300 778 q 313 461 313 541 l 313 0 l 125 0 l 125 991 l 411 991 l 646 233 l 650 233 l 899 991 l 1185 991 l 1185 0 l 989 0 l 989 469 q 990 546 989 503 q 999 777 991 589 l 993 777 l 737 0 l 545 0 z "},"Н":{"ha":1063,"x_min":125,"x_max":937,"o":"m 937 0 l 728 0 l 728 428 l 335 428 l 335 0 l 125 0 l 125 991 l 335 991 l 335 603 l 728 603 l 728 991 l 937 991 l 937 0 z "},"О":{"ha":1105,"x_min":81,"x_max":1025,"o":"m 1025 497 q 903 119 1025 251 q 553 -14 781 -14 q 203 119 325 -14 q 81 498 81 251 q 203 877 81 746 q 554 1007 326 1007 q 904 876 783 1007 q 1025 497 1025 744 m 301 497 q 364 247 301 331 q 553 163 427 163 q 804 497 804 163 q 554 832 804 832 q 365 748 429 832 q 301 497 301 663 z "},"П":{"ha":1035,"x_min":125,"x_max":909,"o":"m 909 0 l 700 0 l 700 817 l 335 817 l 335 0 l 125 0 l 125 991 l 909 991 l 909 0 z "},"Р":{"ha":872,"x_min":125,"x_max":810,"o":"m 335 525 l 404 525 q 549 563 501 525 q 597 675 597 602 q 557 784 597 749 q 431 819 517 819 l 335 819 l 335 525 m 810 682 q 710 437 810 522 q 425 353 610 353 l 335 353 l 335 0 l 125 0 l 125 991 l 441 991 q 716 914 622 991 q 810 682 810 836 z "},"С":{"ha":885,"x_min":81,"x_max":836,"o":"m 546 831 q 362 742 427 831 q 297 493 297 652 q 546 161 297 161 q 799 214 650 161 l 799 37 q 526 -14 677 -14 q 195 118 310 -14 q 81 494 81 249 q 137 765 81 649 q 299 944 193 882 q 546 1006 404 1006 q 836 936 690 1006 l 768 765 q 656 811 713 791 q 546 831 600 831 z "},"Т":{"ha":804,"x_min":28,"x_max":777,"o":"m 507 0 l 297 0 l 297 817 l 28 817 l 28 991 l 777 991 l 777 817 l 507 817 l 507 0 z "},"У":{"ha":907,"x_min":0,"x_max":907,"o":"m 907 991 l 600 290 q 492 100 543 158 q 372 15 441 43 q 204 -14 303 -14 q 46 7 119 -14 l 46 187 q 195 163 106 163 q 286 189 251 163 q 343 279 320 215 l 0 991 l 222 991 l 467 439 l 473 439 l 486 473 l 690 991 l 907 991 z "},"Ф":{"ha":1194,"x_min":62,"x_max":1132,"o":"m 692 301 l 701 301 q 872 358 810 301 q 935 515 935 416 q 877 664 935 608 q 720 720 819 720 l 692 720 l 692 301 m 503 -14 l 503 139 l 488 139 q 267 183 361 139 q 117 317 172 228 q 62 514 62 406 q 111 704 62 619 q 251 836 159 788 q 467 884 342 884 l 503 884 l 503 1006 l 692 1006 l 692 884 l 728 884 q 943 836 851 884 q 1083 704 1034 788 q 1132 514 1132 619 q 1077 317 1132 406 q 928 183 1023 228 q 707 139 833 139 l 692 139 l 692 -14 l 503 -14 m 503 720 l 475 720 q 317 664 375 720 q 260 515 260 608 q 321 359 260 418 q 493 301 382 301 l 503 301 l 503 720 z "},"Х":{"ha":926,"x_min":0,"x_max":926,"o":"m 926 0 l 686 0 l 456 375 l 225 0 l 0 0 l 329 511 l 21 991 l 253 991 l 467 635 l 676 991 l 903 991 l 591 500 l 926 0 z "},"Ц":{"ha":1084,"x_min":125,"x_max":1057,"o":"m 909 167 l 1057 167 l 1057 -289 l 854 -289 l 854 0 l 125 0 l 125 991 l 335 991 l 335 175 l 700 175 l 700 991 l 909 991 l 909 167 z "},"Ч":{"ha":1011,"x_min":74,"x_max":886,"o":"m 886 0 l 676 0 l 676 383 q 502 335 572 348 q 370 322 433 322 q 151 390 228 322 q 74 582 74 458 l 74 991 l 283 991 l 283 642 q 317 533 283 570 q 429 497 350 497 q 540 508 485 497 q 676 547 595 519 l 676 991 l 886 991 l 886 0 z "},"Ш":{"ha":1497,"x_min":125,"x_max":1372,"o":"m 854 175 l 1162 175 l 1162 991 l 1372 991 l 1372 0 l 125 0 l 125 991 l 335 991 l 335 175 l 643 175 l 643 991 l 854 991 l 854 175 z "},"Щ":{"ha":1547,"x_min":125,"x_max":1520,"o":"m 854 175 l 1162 175 l 1162 991 l 1372 991 l 1372 167 l 1520 167 l 1520 -289 l 1317 -289 l 1317 0 l 125 0 l 125 991 l 335 991 l 335 175 l 643 175 l 643 991 l 854 991 l 854 175 m 1497 0 z "},"Ъ":{"ha":1010,"x_min":0,"x_max":947,"o":"m 947 310 q 844 78 947 155 q 538 0 741 0 l 249 0 l 249 817 l 0 817 l 0 991 l 458 991 l 458 611 l 542 611 q 842 532 736 611 q 947 310 947 454 m 458 172 l 529 172 q 685 207 635 172 q 734 310 734 241 q 684 409 734 378 q 513 439 634 439 l 458 439 l 458 172 z "},"Ы":{"ha":1258,"x_min":125,"x_max":1133,"o":"m 803 310 q 700 78 803 155 q 396 0 597 0 l 125 0 l 125 991 l 335 991 l 335 611 l 403 611 q 698 532 593 611 q 803 310 803 453 m 335 172 l 390 172 q 542 207 494 172 q 590 310 590 241 q 544 409 590 379 q 380 439 497 439 l 335 439 l 335 172 m 1133 0 l 924 0 l 924 991 l 1133 991 l 1133 0 z "},"Ь":{"ha":886,"x_min":125,"x_max":823,"o":"m 823 310 q 414 0 823 0 l 125 0 l 125 991 l 335 991 l 335 611 l 418 611 q 718 532 612 611 q 823 310 823 454 m 335 172 l 406 172 q 562 207 512 172 q 611 310 611 241 q 561 409 611 378 q 389 439 511 439 l 335 439 l 335 172 z "},"Э":{"ha":921,"x_min":49,"x_max":840,"o":"m 375 831 q 243 812 308 831 q 115 766 178 793 l 49 936 q 379 1006 206 1006 q 720 870 600 1006 q 840 494 840 735 q 716 118 840 249 q 359 -14 593 -14 q 66 37 199 -14 l 66 214 q 347 161 231 161 q 545 224 477 161 q 619 414 613 288 l 189 414 l 189 586 l 618 586 q 549 766 614 701 q 375 831 484 831 z "},"Ю":{"ha":1486,"x_min":125,"x_max":1406,"o":"m 1406 497 q 1292 120 1406 253 q 964 -14 1177 -14 q 655 99 768 -14 q 525 428 543 212 l 335 428 l 335 0 l 125 0 l 125 991 l 335 991 l 335 603 l 529 603 q 664 903 552 799 q 965 1007 775 1007 q 1293 874 1179 1007 q 1406 497 1406 741 m 741 497 q 798 247 741 332 q 964 163 854 163 q 1189 497 1189 163 q 1133 747 1189 663 q 966 832 1077 832 q 798 747 855 832 q 741 497 741 663 z "},"Я":{"ha":924,"x_min":-7,"x_max":799,"o":"m 458 380 l 227 0 l -7 0 l 275 436 q 146 541 191 470 q 102 708 102 612 q 198 918 102 844 q 476 991 295 991 l 799 991 l 799 0 l 589 0 l 589 380 l 458 380 m 589 819 l 485 819 q 359 790 404 819 q 314 693 314 761 q 357 589 314 627 q 490 551 401 551 l 589 551 l 589 819 z "},"а":{"ha":839,"x_min":58,"x_max":734,"o":"m 590 0 l 550 103 l 545 103 q 437 12 492 37 q 293 -14 382 -14 q 121 49 184 -14 q 58 227 58 111 q 143 405 58 347 q 397 468 227 462 l 529 472 l 529 505 q 411 621 529 621 q 197 566 320 621 l 129 705 q 419 774 260 774 q 653 707 572 774 q 734 505 734 641 l 734 0 l 590 0 m 529 351 l 449 349 q 315 316 359 346 q 271 225 271 286 q 371 138 271 138 q 486 179 443 138 q 529 289 529 220 l 529 351 z "},"б":{"ha":864,"x_min":62,"x_max":802,"o":"m 62 454 q 162 851 62 715 q 472 1022 261 986 q 778 1067 574 1040 l 802 886 q 489 843 713 876 q 361 802 404 829 q 299 725 319 775 q 273 591 278 675 l 283 591 q 378 677 319 647 q 505 707 437 707 q 724 621 646 707 q 802 375 802 535 q 703 89 802 191 q 431 -14 604 -14 q 160 111 257 -14 q 62 454 62 235 m 443 154 q 590 357 590 154 q 457 554 590 554 q 384 537 420 554 q 318 493 348 520 q 273 437 288 465 q 317 227 273 300 q 443 154 361 154 z "},"в":{"ha":888,"x_min":109,"x_max":832,"o":"m 808 559 q 770 455 808 498 q 657 400 732 412 l 657 395 q 785 339 738 385 q 832 227 832 294 q 745 58 832 116 q 497 0 659 0 l 109 0 l 109 758 l 497 758 q 731 708 653 758 q 808 559 808 657 m 618 237 q 583 302 618 282 q 479 322 549 322 l 315 322 l 315 143 l 484 143 q 584 168 549 143 q 618 237 618 193 m 599 543 q 489 612 599 612 l 315 612 l 315 463 l 465 463 q 565 481 531 463 q 599 543 599 500 z "},"г":{"ha":664,"x_min":109,"x_max":632,"o":"m 632 758 l 632 603 l 315 603 l 315 0 l 109 0 l 109 758 l 632 758 z "},"д":{"ha":922,"x_min":20,"x_max":901,"o":"m 583 151 l 583 603 l 428 603 q 381 363 411 477 q 300 151 352 250 l 583 151 m 901 -272 l 715 -272 l 715 0 l 205 0 l 205 -272 l 20 -272 l 20 151 l 83 151 q 193 406 149 252 q 254 758 237 560 l 790 758 l 790 151 l 901 151 l 901 -272 z "},"е":{"ha":821,"x_min":62,"x_max":761,"o":"m 422 625 q 319 584 357 625 q 277 465 282 542 l 567 465 q 527 584 566 542 q 422 625 488 625 m 452 -14 q 165 87 269 -14 q 62 374 62 189 q 158 668 62 564 q 421 772 253 772 q 671 681 582 772 q 761 428 761 589 l 761 328 l 272 328 q 324 190 275 239 q 461 140 373 140 q 591 155 530 140 q 718 200 652 169 l 718 40 q 602 0 664 13 q 452 -14 541 -14 z "},"ж":{"ha":1213,"x_min":0,"x_max":1213,"o":"m 510 390 l 510 758 l 703 758 l 703 390 l 972 758 l 1186 758 l 907 395 l 1213 0 l 991 0 l 703 385 l 703 0 l 510 0 l 510 385 l 221 0 l 0 0 l 306 395 l 26 758 l 240 758 l 510 390 z "},"з":{"ha":771,"x_min":53,"x_max":718,"o":"m 297 467 q 464 486 414 467 q 513 546 513 505 q 477 601 513 583 q 358 619 441 619 q 240 606 306 619 q 119 571 174 593 l 58 715 q 215 759 139 746 q 385 772 291 772 q 612 718 526 772 q 697 571 697 664 q 546 404 697 443 l 546 397 q 679 332 639 374 q 718 221 718 290 q 673 98 718 152 q 544 16 629 45 q 345 -14 459 -14 q 53 33 155 -14 l 53 204 q 181 161 111 177 q 315 146 250 146 q 467 169 416 146 q 517 233 517 191 q 464 301 517 279 q 301 323 411 323 l 221 323 l 221 467 l 297 467 z "},"и":{"ha":1000,"x_min":109,"x_max":892,"o":"m 309 758 l 309 458 q 293 227 309 411 l 643 758 l 892 758 l 892 0 l 692 0 l 692 302 q 705 530 692 383 l 357 0 l 109 0 l 109 758 l 309 758 z "},"й":{"ha":1000,"x_min":109,"x_max":892,"o":"m 309 758 l 309 458 q 293 227 309 411 l 643 758 l 892 758 l 892 0 l 692 0 l 692 302 q 705 530 692 383 l 357 0 l 109 0 l 109 758 l 309 758 m 831 1084 q 735 900 818 958 q 496 842 652 842 q 259 897 336 842 q 172 1084 182 953 l 357 1084 q 392 986 362 1015 q 500 958 422 958 q 603 989 569 958 q 644 1084 636 1020 l 831 1084 z "},"к":{"ha":860,"x_min":109,"x_max":860,"o":"m 606 758 l 833 758 l 533 395 l 860 0 l 625 0 l 315 385 l 315 0 l 109 0 l 109 758 l 315 758 l 315 390 l 606 758 z "},"л":{"ha":896,"x_min":0,"x_max":787,"o":"m 787 0 l 581 0 l 581 603 l 390 603 q 337 223 368 349 q 254 42 306 98 q 118 -14 202 -14 q 0 8 46 -14 l 0 174 q 66 160 33 160 q 131 216 105 160 q 178 401 157 271 q 214 758 199 531 l 787 758 l 787 0 z "},"м":{"ha":1173,"x_min":109,"x_max":1064,"o":"m 1064 0 l 871 0 l 871 597 l 860 555 q 794 339 823 412 l 660 0 l 513 0 l 376 342 q 314 551 347 416 l 301 597 l 301 0 l 109 0 l 109 758 l 393 758 l 524 435 q 561 315 544 382 q 585 199 578 247 q 620 345 607 300 q 647 427 632 389 q 782 758 662 464 l 1064 758 l 1064 0 z "},"н":{"ha":920,"x_min":109,"x_max":811,"o":"m 315 758 l 315 467 l 604 467 l 604 758 l 811 758 l 811 0 l 604 0 l 604 313 l 315 313 l 315 0 l 109 0 l 109 758 l 315 758 z "},"о":{"ha":860,"x_min":62,"x_max":798,"o":"m 273 380 q 310 210 273 268 q 431 153 347 153 q 550 210 513 153 q 586 380 586 267 q 549 549 586 493 q 429 606 513 606 q 310 550 347 606 q 273 380 273 494 m 798 380 q 700 91 798 195 q 428 -14 602 -14 q 235 34 319 -14 q 107 172 152 82 q 62 380 62 261 q 159 669 62 566 q 432 772 256 772 q 625 725 541 772 q 753 589 708 677 q 798 380 798 500 z "},"п":{"ha":905,"x_min":109,"x_max":798,"o":"m 798 758 l 798 0 l 590 0 l 590 603 l 315 603 l 315 0 l 109 0 l 109 758 l 798 758 z "},"р":{"ha":879,"x_min":109,"x_max":817,"o":"m 525 -14 q 315 83 391 -14 l 304 83 q 315 -26 315 -12 l 315 -334 l 109 -334 l 109 758 l 277 758 l 306 660 l 315 660 q 530 772 388 772 q 741 669 665 772 q 817 380 817 565 q 781 170 817 259 q 680 33 745 80 q 525 -14 614 -14 m 464 607 q 352 560 387 607 q 315 404 317 513 l 315 382 q 352 207 315 260 q 467 154 388 154 q 606 383 606 154 q 571 551 606 495 q 464 607 537 607 z "},"с":{"ha":714,"x_min":62,"x_max":671,"o":"m 416 -14 q 62 375 62 -14 q 159 670 62 568 q 435 772 255 772 q 671 721 566 772 l 610 561 q 519 593 561 581 q 435 606 477 606 q 273 376 273 606 q 435 154 273 154 q 545 170 494 154 q 647 220 596 186 l 647 43 q 546 -1 597 11 q 416 -14 494 -14 z "},"т":{"ha":768,"x_min":32,"x_max":736,"o":"m 736 758 l 736 603 l 488 603 l 488 0 l 281 0 l 281 603 l 32 603 l 32 758 l 736 758 z "},"у":{"ha":790,"x_min":0,"x_max":790,"o":"m 0 758 l 227 758 l 370 332 q 395 200 388 276 l 399 200 q 428 332 406 270 l 568 758 l 790 758 l 469 -97 q 343 -275 425 -216 q 153 -334 262 -334 q 47 -322 99 -334 l 47 -158 q 129 -167 85 -167 q 225 -133 184 -167 q 289 -32 266 -100 l 301 5 l 0 758 z "},"ф":{"ha":1131,"x_min":62,"x_max":1068,"o":"m 663 762 q 960 645 852 747 q 1068 379 1068 543 q 962 111 1068 212 q 663 -5 855 10 l 663 -334 l 471 -334 l 471 -5 q 171 115 279 12 q 62 379 62 218 q 167 650 62 551 q 471 762 271 749 l 471 1055 l 663 1055 l 663 762 m 275 379 q 328 223 275 283 q 471 151 380 163 l 471 607 q 329 533 383 595 q 275 379 275 471 m 856 379 q 805 530 856 469 q 663 604 754 591 l 663 151 q 804 224 753 163 q 856 379 856 284 z "},"х":{"ha":803,"x_min":7,"x_max":796,"o":"m 264 387 l 20 758 l 254 758 l 401 517 l 550 758 l 785 758 l 538 387 l 796 0 l 561 0 l 401 260 l 241 0 l 7 0 l 264 387 z "},"ц":{"ha":956,"x_min":109,"x_max":936,"o":"m 825 151 l 936 151 l 936 -272 l 750 -272 l 750 0 l 109 0 l 109 758 l 315 758 l 315 155 l 618 155 l 618 758 l 825 758 l 825 151 z "},"ч":{"ha":911,"x_min":83,"x_max":803,"o":"m 290 758 l 290 481 q 382 382 290 382 q 493 395 441 382 q 596 431 544 409 l 596 758 l 803 758 l 803 0 l 596 0 l 596 301 q 463 248 524 263 q 343 232 401 232 q 151 295 219 232 q 83 476 83 359 l 83 758 l 290 758 z "},"ш":{"ha":1346,"x_min":109,"x_max":1238,"o":"m 1238 0 l 109 0 l 109 758 l 315 758 l 315 155 l 570 155 l 570 758 l 777 758 l 777 155 l 1031 155 l 1031 758 l 1238 758 l 1238 0 z "},"щ":{"ha":1368,"x_min":109,"x_max":1349,"o":"m 1238 151 l 1349 151 l 1349 -272 l 1162 -272 l 1162 0 l 109 0 l 109 758 l 315 758 l 315 155 l 570 155 l 570 758 l 777 758 l 777 155 l 1031 155 l 1031 758 l 1238 758 l 1238 151 m 1346 0 z "},"ъ":{"ha":986,"x_min":0,"x_max":937,"o":"m 449 758 l 449 465 l 595 465 q 853 410 770 465 q 937 241 937 354 q 603 0 937 0 l 241 0 l 241 603 l 0 603 l 0 758 l 449 758 m 730 239 q 695 302 730 283 q 590 322 661 322 l 449 322 l 449 143 l 593 143 q 730 239 730 143 z "},"ы":{"ha":1181,"x_min":109,"x_max":1072,"o":"m 315 465 l 415 465 q 672 410 589 465 q 755 241 755 354 q 672 61 755 121 q 422 0 589 0 l 109 0 l 109 758 l 315 758 l 315 465 m 549 239 q 513 302 549 283 q 408 322 478 322 l 315 322 l 315 143 l 411 143 q 549 239 549 143 m 1072 0 l 865 0 l 865 758 l 1072 758 l 1072 0 z "},"ь":{"ha":852,"x_min":109,"x_max":804,"o":"m 315 465 l 461 465 q 720 410 636 465 q 804 241 804 354 q 469 0 804 0 l 109 0 l 109 758 l 315 758 l 315 465 m 597 239 q 562 302 597 283 q 457 322 527 322 l 315 322 l 315 143 l 460 143 q 597 239 597 143 z "},"э":{"ha":711,"x_min":50,"x_max":648,"o":"m 283 -14 q 50 33 141 -14 l 50 195 q 272 140 168 140 q 387 184 347 140 q 435 314 428 227 l 149 314 l 149 452 l 435 452 q 393 577 429 535 q 289 619 357 619 q 113 576 208 619 l 54 718 q 169 757 105 742 q 297 772 233 772 q 562 676 475 772 q 648 387 648 580 q 556 88 648 189 q 283 -14 465 -14 z "},"ю":{"ha":1218,"x_min":109,"x_max":1156,"o":"m 1156 380 q 1061 90 1156 194 q 800 -14 967 -14 q 561 71 650 -14 q 452 313 471 155 l 315 313 l 315 0 l 109 0 l 109 758 l 315 758 l 315 467 l 454 467 q 567 692 474 612 q 804 772 659 772 q 1060 667 965 772 q 1156 380 1156 562 m 660 380 q 693 210 660 267 q 803 153 726 153 q 911 210 878 153 q 945 380 945 267 q 911 550 945 494 q 802 606 878 606 q 693 549 726 606 q 660 380 660 493 z "},"я":{"ha":823,"x_min":0,"x_max":715,"o":"m 224 0 l 0 0 l 204 300 q 93 388 131 330 q 56 524 56 446 q 138 696 56 633 q 363 758 220 758 l 715 758 l 715 0 l 509 0 l 509 282 l 395 282 l 224 0 m 258 522 q 296 448 258 475 q 393 421 333 421 l 509 421 l 509 612 l 367 612 q 287 588 316 612 q 258 522 258 563 z "},"ё":{"ha":821,"x_min":62,"x_max":761,"o":"m 422 625 q 319 584 357 625 q 277 465 282 542 l 567 465 q 527 584 566 542 q 422 625 488 625 m 452 -14 q 165 87 269 -14 q 62 374 62 189 q 158 668 62 564 q 421 772 253 772 q 671 681 582 772 q 761 428 761 589 l 761 328 l 272 328 q 324 190 275 239 q 461 140 373 140 q 591 155 530 140 q 718 200 652 169 l 718 40 q 602 0 664 13 q 452 -14 541 -14 m 191 953 q 216 1021 191 997 q 285 1044 241 1044 q 355 1019 330 1044 q 380 953 380 994 q 355 887 380 912 q 285 863 329 863 q 216 886 241 863 q 191 953 191 910 m 464 953 q 491 1022 464 1000 q 559 1044 519 1044 q 630 1020 604 1044 q 656 953 656 996 q 629 887 656 911 q 559 863 603 863 q 491 885 519 863 q 464 953 464 907 z "},"ђ":{"ha":913,"x_min":3,"x_max":808,"o":"m 562 -334 q 437 -317 490 -334 l 437 -154 q 518 -167 477 -167 q 602 -52 602 -167 l 602 416 q 570 528 602 491 q 479 566 538 566 q 354 506 393 566 q 315 315 315 447 l 315 0 l 109 0 l 109 811 l 3 811 l 3 946 l 109 946 l 109 1055 l 315 1055 l 315 946 l 529 946 l 529 811 l 315 811 l 315 799 q 306 619 315 743 l 318 619 q 538 730 387 730 q 740 659 671 730 q 808 453 808 588 l 808 -82 q 745 -269 808 -203 q 562 -334 681 -334 z "},"ѓ":{"ha":664,"x_min":109,"x_max":636,"o":"m 632 758 l 632 603 l 315 603 l 315 0 l 109 0 l 109 758 l 632 758 m 245 842 l 245 860 q 404 1064 361 996 l 636 1064 l 636 1050 q 516 945 601 1015 q 382 842 431 876 l 245 842 z "},"є":{"ha":728,"x_min":62,"x_max":684,"o":"m 443 -14 q 158 85 254 -14 q 62 375 62 184 q 154 675 62 577 q 441 772 245 772 q 684 722 566 772 l 624 575 q 436 619 509 619 q 326 578 365 619 q 277 452 287 536 l 562 452 l 562 314 l 277 314 q 323 183 286 225 q 431 140 361 140 q 538 153 484 140 q 661 195 592 165 l 661 36 q 443 -14 565 -14 z "},"ѕ":{"ha":690,"x_min":62,"x_max":637,"o":"m 637 225 q 556 47 637 109 q 314 -14 475 -14 q 173 -2 231 -14 q 64 31 115 9 l 64 201 q 194 156 121 174 q 321 138 266 138 q 433 203 433 138 q 418 242 433 227 q 367 277 404 258 q 269 322 330 296 q 141 390 182 359 q 81 461 100 421 q 62 561 62 502 q 141 717 62 662 q 363 772 219 772 q 629 713 500 772 l 567 564 q 460 604 510 588 q 359 619 411 619 q 268 570 268 619 q 297 522 268 542 q 427 461 327 501 q 557 394 515 425 q 618 322 598 363 q 637 225 637 281 z "},"і":{"ha":424,"x_min":100,"x_max":325,"o":"m 100 954 q 212 1055 100 1055 q 325 954 325 1055 q 297 879 325 906 q 212 852 269 852 q 100 954 100 852 m 315 0 l 109 0 l 109 758 l 315 758 l 315 0 z "},"ї":{"ha":424,"x_min":-18,"x_max":447,"o":"m 315 0 l 109 0 l 109 758 l 315 758 l 315 0 m -18 953 q 7 1021 -18 997 q 76 1044 33 1044 q 146 1019 121 1044 q 172 953 172 994 q 146 887 172 912 q 76 863 120 863 q 7 886 33 863 q -18 953 -18 910 m 255 953 q 282 1022 255 1000 q 351 1044 310 1044 q 421 1020 395 1044 q 447 953 447 996 q 420 887 447 911 q 351 863 394 863 q 282 885 310 863 q 255 953 255 907 z "},"ј":{"ha":424,"x_min":-89,"x_max":325,"o":"m 47 -334 q -89 -317 -32 -334 l -89 -154 q 8 -167 -41 -167 q 84 -138 60 -167 q 109 -52 109 -109 l 109 758 l 315 758 l 315 -82 q 245 -268 315 -203 q 47 -334 176 -334 m 100 954 q 212 1055 100 1055 q 325 954 325 1055 q 297 879 325 906 q 212 852 269 852 q 100 954 100 852 z "},"љ":{"ha":1234,"x_min":0,"x_max":1185,"o":"m 551 0 l 551 603 l 390 603 q 337 223 368 349 q 254 42 306 98 q 118 -14 202 -14 q 0 8 46 -14 l 0 174 q 66 160 33 160 q 131 216 105 160 q 178 401 157 271 q 214 758 199 531 l 758 758 l 758 465 l 854 465 q 1104 410 1023 465 q 1185 241 1185 354 q 859 0 1185 0 l 551 0 m 978 239 q 945 302 978 283 q 846 322 911 322 l 758 322 l 758 143 l 848 143 q 978 239 978 143 z "},"њ":{"ha":1234,"x_min":109,"x_max":1185,"o":"m 758 465 l 854 465 q 1104 410 1023 465 q 1185 241 1185 354 q 859 0 1185 0 l 551 0 l 551 313 l 315 313 l 315 0 l 109 0 l 109 758 l 315 758 l 315 467 l 551 467 l 551 758 l 758 758 l 758 465 m 978 239 q 945 302 978 283 q 846 322 911 322 l 758 322 l 758 143 l 848 143 q 978 239 978 143 z "},"ћ":{"ha":913,"x_min":3,"x_max":808,"o":"m 808 0 l 602 0 l 602 401 q 479 566 602 566 q 354 506 393 566 q 315 315 315 447 l 315 0 l 109 0 l 109 811 l 3 811 l 3 946 l 109 946 l 109 1055 l 315 1055 l 315 946 l 529 946 l 529 811 l 315 811 l 315 799 q 306 619 315 743 l 318 619 q 538 730 387 730 q 740 659 671 730 q 808 453 808 588 l 808 0 z "},"ќ":{"ha":860,"x_min":109,"x_max":860,"o":"m 606 758 l 833 758 l 533 395 l 860 0 l 625 0 l 315 385 l 315 0 l 109 0 l 109 758 l 315 758 l 315 390 l 606 758 m 343 842 l 343 860 q 503 1064 460 996 l 734 1064 l 734 1050 q 614 945 699 1015 q 481 842 529 876 l 343 842 z "},"ў":{"ha":790,"x_min":0,"x_max":790,"o":"m 0 758 l 227 758 l 370 332 q 395 200 388 276 l 399 200 q 428 332 406 270 l 568 758 l 790 758 l 469 -97 q 343 -275 425 -216 q 153 -334 262 -334 q 47 -322 99 -334 l 47 -158 q 129 -167 85 -167 q 225 -133 184 -167 q 289 -32 266 -100 l 301 5 l 0 758 m 726 1084 q 630 900 713 958 q 391 842 547 842 q 154 897 231 842 q 67 1084 77 953 l 252 1084 q 287 986 257 1015 q 395 958 317 958 q 497 989 464 958 q 538 1084 531 1020 l 726 1084 z "},"џ":{"ha":933,"x_min":109,"x_max":825,"o":"m 109 0 l 109 758 l 315 758 l 315 155 l 618 155 l 618 758 l 825 758 l 825 0 l 559 0 l 559 -272 l 374 -272 l 374 0 l 109 0 z "},"Ґ":{"ha":807,"x_min":125,"x_max":779,"o":"m 335 0 l 125 0 l 125 991 l 597 991 l 597 1202 l 779 1202 l 779 818 l 335 818 l 335 0 z "},"ґ":{"ha":711,"x_min":109,"x_max":661,"o":"m 315 0 l 109 0 l 109 758 l 475 758 l 475 965 l 661 965 l 661 603 l 315 603 l 315 0 z "},"Ẁ":{"ha":1343,"x_min":0,"x_max":1343,"o":"m 1090 0 l 851 0 l 717 521 q 691 636 709 549 q 671 753 673 723 q 650 635 667 716 q 625 519 634 554 l 492 0 l 253 0 l 0 991 l 207 991 l 334 450 q 382 191 367 300 q 400 310 386 229 q 428 436 415 391 l 572 991 l 771 991 l 916 436 q 939 322 925 399 q 961 191 954 245 q 983 322 968 243 q 1010 450 998 401 l 1136 991 l 1343 991 l 1090 0 m 650 1071 q 525 1167 608 1101 q 396 1279 442 1234 l 396 1293 l 628 1293 q 787 1089 671 1225 l 787 1071 l 650 1071 z "},"ẁ":{"ha":1189,"x_min":14,"x_max":1175,"o":"m 732 0 l 673 265 l 595 600 l 590 600 l 452 0 l 229 0 l 14 758 l 220 758 l 307 422 q 350 174 328 332 l 354 174 q 378 337 357 225 l 389 395 l 482 758 l 710 758 l 799 395 q 807 351 802 380 q 819 289 813 321 q 828 224 824 256 q 833 174 833 193 l 838 174 q 859 308 844 222 q 882 422 875 393 l 972 758 l 1175 758 l 957 0 l 732 0 m 571 842 q 446 938 528 871 q 317 1050 363 1005 l 317 1064 l 549 1064 q 708 860 591 996 l 708 842 l 571 842 z "},"Ẃ":{"ha":1343,"x_min":0,"x_max":1343,"o":"m 1090 0 l 851 0 l 717 521 q 691 636 709 549 q 671 753 673 723 q 650 635 667 716 q 625 519 634 554 l 492 0 l 253 0 l 0 991 l 207 991 l 334 450 q 382 191 367 300 q 400 310 386 229 q 428 436 415 391 l 572 991 l 771 991 l 916 436 q 939 322 925 399 q 961 191 954 245 q 983 322 968 243 q 1010 450 998 401 l 1136 991 l 1343 991 l 1090 0 m 525 1071 l 525 1089 q 684 1293 642 1225 l 916 1293 l 916 1279 q 796 1174 881 1244 q 663 1071 711 1105 l 525 1071 z "},"ẃ":{"ha":1189,"x_min":14,"x_max":1175,"o":"m 732 0 l 673 265 l 595 600 l 590 600 l 452 0 l 229 0 l 14 758 l 220 758 l 307 422 q 350 174 328 332 l 354 174 q 378 337 357 225 l 389 395 l 482 758 l 710 758 l 799 395 q 807 351 802 380 q 819 289 813 321 q 828 224 824 256 q 833 174 833 193 l 838 174 q 859 308 844 222 q 882 422 875 393 l 972 758 l 1175 758 l 957 0 l 732 0 m 467 842 l 467 860 q 626 1064 583 996 l 858 1064 l 858 1050 q 738 945 823 1015 q 604 842 652 876 l 467 842 z "},"Ẅ":{"ha":1343,"x_min":0,"x_max":1343,"o":"m 1090 0 l 851 0 l 717 521 q 691 636 709 549 q 671 753 673 723 q 650 635 667 716 q 625 519 634 554 l 492 0 l 253 0 l 0 991 l 207 991 l 334 450 q 382 191 367 300 q 400 310 386 229 q 428 436 415 391 l 572 991 l 771 991 l 916 436 q 939 322 925 399 q 961 191 954 245 q 983 322 968 243 q 1010 450 998 401 l 1136 991 l 1343 991 l 1090 0 m 438 1182 q 464 1250 438 1226 q 532 1274 489 1274 q 603 1249 577 1274 q 628 1182 628 1223 q 602 1117 628 1141 q 532 1092 576 1092 q 464 1116 489 1092 q 438 1182 438 1139 m 711 1182 q 739 1252 711 1230 q 807 1274 766 1274 q 877 1249 851 1274 q 903 1182 903 1225 q 877 1116 903 1141 q 807 1092 850 1092 q 739 1114 766 1092 q 711 1182 711 1136 z "},"ẅ":{"ha":1189,"x_min":14,"x_max":1175,"o":"m 732 0 l 673 265 l 595 600 l 590 600 l 452 0 l 229 0 l 14 758 l 220 758 l 307 422 q 350 174 328 332 l 354 174 q 378 337 357 225 l 389 395 l 482 758 l 710 758 l 799 395 q 807 351 802 380 q 819 289 813 321 q 828 224 824 256 q 833 174 833 193 l 838 174 q 859 308 844 222 q 882 422 875 393 l 972 758 l 1175 758 l 957 0 l 732 0 m 361 953 q 387 1021 361 997 q 456 1044 412 1044 q 526 1019 500 1044 q 551 953 551 994 q 526 887 551 912 q 456 863 500 863 q 387 886 412 863 q 361 953 361 910 m 635 953 q 662 1022 635 1000 q 730 1044 690 1044 q 801 1020 774 1044 q 827 953 827 996 q 800 887 827 911 q 730 863 774 863 q 662 885 690 863 q 635 953 635 907 z "},"Ỳ":{"ha":867,"x_min":0,"x_max":867,"o":"m 433 583 l 640 991 l 867 991 l 538 386 l 538 0 l 329 0 l 329 379 l 0 991 l 228 991 l 433 583 m 390 1071 q 264 1167 347 1101 q 136 1279 182 1234 l 136 1293 l 368 1293 q 527 1089 410 1225 l 527 1071 l 390 1071 z "},"ỳ":{"ha":790,"x_min":0,"x_max":790,"o":"m 0 758 l 227 758 l 370 332 q 395 200 388 276 l 399 200 q 428 332 406 270 l 568 758 l 790 758 l 469 -97 q 343 -275 425 -216 q 153 -334 262 -334 q 47 -322 99 -334 l 47 -158 q 129 -167 85 -167 q 225 -133 184 -167 q 289 -32 266 -100 l 301 5 l 0 758 m 366 842 q 241 938 323 871 q 112 1050 158 1005 l 112 1064 l 344 1064 q 503 860 387 996 l 503 842 l 366 842 z "},"–":{"ha":694,"x_min":56,"x_max":639,"o":"m 56 296 l 56 452 l 639 452 l 639 296 l 56 296 z "},"—":{"ha":1389,"x_min":56,"x_max":1333,"o":"m 56 296 l 56 452 l 1333 452 l 1333 296 l 56 296 z "},"―":{"ha":1389,"x_min":56,"x_max":1333,"o":"m 56 296 l 56 452 l 1333 452 l 1333 296 l 56 296 z "},"‗":{"ha":571,"x_min":-3,"x_max":574,"o":"m 574 -314 l -3 -314 l -3 -220 l 574 -220 l 574 -314 m 574 -125 l -3 -125 l -3 -31 l 574 -31 l 574 -125 z "},"‘":{"ha":301,"x_min":17,"x_max":285,"o":"m 26 652 l 17 667 q 66 822 32 728 q 136 991 100 915 l 285 991 q 216 652 240 810 l 26 652 z "},"’":{"ha":301,"x_min":17,"x_max":285,"o":"m 275 991 l 285 977 q 165 652 251 843 l 17 652 q 85 991 64 852 l 275 991 z "},"‚":{"ha":404,"x_min":43,"x_max":311,"o":"m 311 146 q 192 -179 276 9 l 43 -179 q 111 161 87 1 l 301 161 l 311 146 z "},"‛":{"ha":300,"x_min":17,"x_max":285,"o":"m 216 991 q 285 652 241 825 l 136 652 q 63 828 96 738 q 17 977 31 919 l 26 991 l 216 991 z "},"“":{"ha":618,"x_min":17,"x_max":602,"o":"m 334 667 q 383 822 349 728 q 453 991 417 915 l 602 991 q 533 652 557 810 l 343 652 l 334 667 m 17 667 q 66 822 32 728 q 136 991 100 915 l 285 991 q 216 652 240 810 l 26 652 l 17 667 z "},"”":{"ha":618,"x_min":17,"x_max":602,"o":"m 285 977 q 165 652 251 843 l 17 652 q 85 991 64 852 l 275 991 l 285 977 m 602 977 q 482 652 568 843 l 334 652 q 401 991 380 852 l 591 991 l 602 977 z "},"„":{"ha":720,"x_min":43,"x_max":628,"o":"m 311 146 q 192 -179 276 9 l 43 -179 q 111 161 87 1 l 301 161 l 311 146 m 628 146 q 509 -179 593 9 l 359 -179 q 428 161 404 1 l 618 161 l 628 146 z "},"†":{"ha":717,"x_min":83,"x_max":633,"o":"m 633 629 l 408 650 l 446 0 l 257 0 l 294 650 l 83 629 l 83 793 l 294 772 l 257 1055 l 446 1055 l 408 772 l 633 793 l 633 629 z "},"‡":{"ha":730,"x_min":83,"x_max":647,"o":"m 422 378 l 647 399 l 647 235 l 422 256 l 460 0 l 271 0 l 309 256 l 83 235 l 83 399 l 309 378 l 277 533 l 309 677 l 83 657 l 83 821 l 309 800 l 271 1055 l 460 1055 l 422 800 l 647 821 l 647 657 l 422 677 l 454 533 l 422 378 z "},"•":{"ha":522,"x_min":66,"x_max":456,"o":"m 66 507 q 117 667 66 612 q 261 722 167 722 q 405 667 354 722 q 456 507 456 611 q 405 348 456 404 q 261 292 353 292 q 117 348 168 292 q 66 507 66 404 z "},"…":{"ha":1187,"x_min":79,"x_max":1108,"o":"m 79 97 q 110 183 79 154 q 199 212 140 212 q 286 182 255 212 q 317 97 317 153 q 286 13 317 43 q 199 -18 254 -18 q 111 12 142 -18 q 79 97 79 42 m 475 97 q 505 183 475 154 q 595 212 536 212 q 682 182 651 212 q 713 97 713 153 q 682 13 713 43 q 595 -18 650 -18 q 506 12 537 -18 q 475 97 475 42 m 871 97 q 901 183 871 154 q 990 212 932 212 q 1077 182 1046 212 q 1108 97 1108 153 q 1077 13 1108 43 q 990 -18 1046 -18 q 902 12 933 -18 q 871 97 871 42 z "},"‰":{"ha":1779,"x_min":43,"x_max":1736,"o":"m 214 694 q 229 566 214 608 q 278 524 244 524 q 343 694 343 524 q 278 864 343 864 q 229 822 244 864 q 214 694 214 781 m 514 696 q 454 461 514 540 q 277 383 393 383 q 104 464 165 383 q 43 696 43 544 q 277 1006 43 1006 q 453 925 391 1006 q 514 696 514 845 m 981 991 l 431 0 l 268 0 l 818 991 l 981 991 m 908 298 q 923 170 908 212 q 972 127 939 127 q 1038 298 1038 127 q 972 468 1038 468 q 923 426 939 468 q 908 298 908 385 m 1208 300 q 1148 66 1208 144 q 971 -12 1088 -12 q 798 68 859 -12 q 737 300 737 149 q 971 610 737 610 q 1147 529 1086 610 q 1208 300 1208 449 m 1436 298 q 1451 170 1436 212 q 1500 127 1466 127 q 1565 298 1565 127 q 1500 468 1565 468 q 1451 426 1466 468 q 1436 298 1436 385 m 1736 300 q 1676 66 1736 145 q 1499 -12 1617 -12 q 1326 68 1388 -12 q 1265 300 1265 149 q 1499 610 1265 610 q 1675 529 1613 610 q 1736 300 1736 449 m 1251 0 z "},"′":{"ha":370,"x_min":90,"x_max":279,"o":"m 279 991 l 252 633 l 118 633 l 90 991 l 279 991 z "},"″":{"ha":656,"x_min":90,"x_max":566,"o":"m 279 991 l 252 633 l 118 633 l 90 991 l 279 991 m 566 991 l 538 633 l 404 633 l 376 991 l 566 991 z "},"‹":{"ha":511,"x_min":56,"x_max":456,"o":"m 56 389 l 307 697 l 456 616 l 267 380 l 456 144 l 307 64 l 56 371 l 56 389 z "},"›":{"ha":511,"x_min":56,"x_max":456,"o":"m 456 371 l 204 64 l 56 144 l 244 380 l 56 616 l 204 697 l 456 389 l 456 371 z "},"‼":{"ha":791,"x_min":79,"x_max":713,"o":"m 678 329 l 513 329 l 478 991 l 713 991 l 678 329 m 475 97 q 506 183 475 154 q 595 212 536 212 q 682 182 651 212 q 713 97 713 153 q 682 13 713 43 q 595 -18 650 -18 q 507 12 538 -18 q 475 97 475 42 m 282 329 l 117 329 l 82 991 l 317 991 l 282 329 m 79 97 q 110 183 79 154 q 199 212 140 212 q 286 182 255 212 q 317 97 317 153 q 286 13 317 43 q 199 -18 254 -18 q 111 12 142 -18 q 79 97 79 42 z "},"⁄":{"ha":180,"x_min":-267,"x_max":446,"o":"m 446 991 l -104 0 l -267 0 l 283 991 l 446 991 z "},"ⁿ":{"ha":587,"x_min":69,"x_max":528,"o":"m 393 518 l 393 790 q 373 863 393 842 q 314 885 353 885 q 229 852 253 885 q 204 743 204 820 l 204 518 l 69 518 l 69 991 l 179 991 l 197 935 l 207 935 q 353 1003 256 1003 q 528 833 528 1003 l 528 518 l 393 518 z "},"₣":{"ha":793,"x_min":24,"x_max":721,"o":"m 332 298 l 546 298 l 546 178 l 332 178 l 332 0 l 125 0 l 125 178 l 24 178 l 24 298 l 125 298 l 125 991 l 721 991 l 721 819 l 332 819 l 332 591 l 696 591 l 696 419 l 332 419 l 332 298 z "},"₤":{"ha":793,"x_min":56,"x_max":766,"o":"m 478 1006 q 739 950 607 1006 l 676 794 q 579 826 623 814 q 488 838 534 838 q 408 808 433 838 q 382 721 382 779 l 382 644 l 625 644 l 625 525 l 382 525 l 382 447 l 625 447 l 625 326 l 380 326 q 353 239 377 276 q 279 176 330 203 l 766 176 l 766 0 l 56 0 l 56 168 q 149 233 123 197 q 178 326 174 269 l 57 326 l 57 447 l 178 447 l 178 525 l 57 525 l 57 644 l 178 644 l 178 722 q 255 934 178 862 q 478 1006 332 1006 z "},"₧":{"ha":1239,"x_min":125,"x_max":1200,"o":"m 321 525 l 366 525 q 508 560 460 525 q 555 675 555 595 q 513 784 555 749 q 378 819 470 819 l 321 819 l 321 525 m 754 682 q 651 437 754 522 q 357 353 547 353 l 321 353 l 321 0 l 125 0 l 125 991 l 378 991 q 658 914 562 991 q 754 682 754 836 m 1090 138 q 1200 161 1143 138 l 1200 21 q 1040 -14 1134 -14 q 879 43 930 -14 q 828 216 828 99 l 828 432 l 729 432 l 729 505 l 843 575 l 903 734 l 1007 734 l 1007 574 l 1192 574 l 1192 432 l 1007 432 l 1007 224 q 1031 160 1007 183 q 1090 138 1056 138 z "},"€":{"ha":793,"x_min":45,"x_max":783,"o":"m 545 831 q 408 783 462 831 q 339 644 355 735 l 612 644 l 612 525 l 329 525 l 328 501 l 328 469 l 329 447 l 570 447 l 570 326 l 340 326 q 558 161 375 161 q 745 200 655 161 l 745 26 q 546 -14 666 -14 q 273 77 380 -14 q 138 326 165 167 l 45 326 l 45 447 l 125 447 q 122 489 122 463 l 123 525 l 45 525 l 45 644 l 135 644 q 270 904 160 808 q 545 999 380 999 q 783 943 672 999 l 717 786 q 629 819 670 807 q 545 831 589 831 z "},"℅":{"ha":1104,"x_min":43,"x_max":1061,"o":"m 889 991 l 339 0 l 176 0 l 726 991 l 889 991 m 1061 233 q 1000 52 1061 117 q 832 -14 939 -14 q 669 53 731 -14 q 607 233 607 119 q 667 414 607 349 q 836 479 728 479 q 1000 412 938 479 q 1061 233 1061 345 m 745 233 q 766 131 745 165 q 835 97 787 97 q 902 131 881 97 q 922 233 922 165 q 902 335 922 301 q 835 368 881 368 q 766 335 787 368 q 745 233 745 301 m 285 513 q 107 575 172 513 q 43 753 43 637 q 104 936 43 873 q 283 999 166 999 q 431 965 363 999 l 393 860 q 281 888 324 888 q 207 853 231 888 q 182 754 182 819 q 277 625 182 625 q 416 654 355 625 l 416 543 q 285 513 363 513 z "},"ℓ":{"ha":722,"x_min":28,"x_max":672,"o":"m 435 129 q 502 162 475 129 q 532 265 528 196 l 672 265 q 602 52 665 116 q 414 -12 540 -12 q 220 58 290 -12 q 151 261 151 128 l 151 347 l 28 314 l 28 447 q 151 484 94 465 l 151 762 q 215 946 151 887 q 412 1004 279 1004 q 587 945 523 1004 q 652 785 652 886 q 583 575 652 663 q 350 412 514 488 l 350 254 q 435 129 350 129 m 473 781 q 412 875 473 875 q 363 849 376 875 q 350 781 350 823 l 350 558 q 441 642 410 585 q 473 781 473 699 z "},"№":{"ha":1428,"x_min":92,"x_max":1377,"o":"m 835 0 l 612 0 l 267 710 l 257 710 q 273 427 273 536 l 273 0 l 92 0 l 92 991 l 315 991 l 659 286 l 671 286 q 654 559 654 444 l 654 991 l 835 991 l 835 0 m 929 0 l 929 127 l 1362 127 l 1362 0 l 929 0 m 1377 433 q 1314 252 1377 317 q 1145 186 1252 186 q 978 253 1040 186 q 916 433 916 320 q 977 613 916 547 q 1147 679 1038 679 q 1314 611 1252 679 q 1377 433 1377 544 m 1053 433 q 1075 331 1053 366 q 1146 297 1097 297 q 1216 331 1194 297 q 1238 433 1238 366 q 1216 535 1238 501 q 1146 568 1194 568 q 1075 535 1097 568 q 1053 433 1053 501 z "},"™":{"ha":1040,"x_min":11,"x_max":978,"o":"m 258 503 l 144 503 l 144 890 l 11 890 l 11 991 l 393 991 l 393 890 l 258 890 l 258 503 m 648 503 l 536 861 l 532 861 l 534 786 l 534 503 l 424 503 l 424 991 l 591 991 l 700 646 l 815 991 l 978 991 l 978 503 l 864 503 l 864 779 l 867 861 l 863 861 l 745 503 l 648 503 z "},"Ω":{"ha":1092,"x_min":37,"x_max":1054,"o":"m 546 832 q 357 758 423 832 q 290 547 290 683 q 335 324 290 410 q 471 189 380 238 l 471 0 l 37 0 l 37 176 l 289 176 q 130 348 186 239 q 74 591 74 457 q 132 811 74 716 q 297 956 190 905 q 546 1007 404 1007 q 890 894 762 1007 q 1018 590 1018 781 q 962 349 1018 456 q 800 176 905 241 l 1054 176 l 1054 0 l 618 0 l 618 189 q 757 326 712 238 q 802 549 802 413 q 735 758 802 684 q 546 832 668 832 z "},"℮":{"ha":860,"x_min":69,"x_max":789,"o":"m 429 -24 q 241 26 323 -24 q 114 164 159 76 q 69 359 69 253 q 116 562 69 475 q 245 696 163 648 q 429 743 328 743 q 615 695 532 743 q 743 559 697 647 q 789 359 789 471 l 228 359 l 228 118 q 317 58 261 82 q 429 35 374 35 q 580 70 518 35 q 697 193 642 106 l 746 165 q 606 18 680 60 q 429 -24 532 -24 m 632 418 l 632 606 q 543 664 598 642 q 428 686 488 686 q 228 607 311 686 l 228 418 l 632 418 z "},"⅛":{"ha":1223,"x_min":39,"x_max":1160,"o":"m 913 991 l 363 0 l 201 0 l 751 991 l 913 991 m 928 606 q 1080 565 1023 606 q 1137 453 1137 524 q 1115 376 1137 410 q 1040 313 1092 342 q 1114 264 1091 285 q 1148 219 1136 243 q 1160 164 1160 194 q 1095 34 1160 85 q 928 -16 1030 -16 q 756 31 819 -16 q 694 160 694 79 q 719 240 694 204 q 802 307 743 276 q 715 453 715 368 q 774 565 715 524 q 928 606 833 606 m 847 160 q 867 110 847 130 q 925 91 886 91 q 985 110 965 91 q 1006 160 1006 130 q 916 245 1006 215 q 847 160 847 215 m 926 499 q 882 483 897 499 q 867 448 867 467 q 884 403 867 420 q 928 372 902 386 q 970 401 954 385 q 987 448 987 418 q 973 483 987 467 q 926 499 959 499 m 373 397 l 212 397 l 212 700 l 214 776 l 217 840 q 166 787 199 816 l 113 746 l 39 832 l 243 991 l 373 991 l 373 397 z "},"⅜":{"ha":1223,"x_min":40,"x_max":1183,"o":"m 961 991 l 411 0 l 249 0 l 799 991 l 961 991 m 951 606 q 1104 565 1047 606 q 1161 453 1161 524 q 1138 376 1161 410 q 1064 313 1116 342 q 1137 264 1115 285 q 1172 219 1160 243 q 1183 164 1183 194 q 1119 34 1183 85 q 951 -16 1054 -16 q 780 31 842 -16 q 718 160 718 79 q 742 240 718 204 q 825 307 766 276 q 739 453 739 368 q 798 565 739 524 q 951 606 857 606 m 871 160 q 890 110 871 130 q 949 91 910 91 q 1009 110 989 91 q 1029 160 1029 130 q 939 245 1029 215 q 871 160 871 215 m 950 499 q 906 483 921 499 q 890 448 890 467 q 908 403 890 420 q 951 372 926 386 q 994 401 977 385 q 1011 448 1011 418 q 997 483 1011 467 q 950 499 983 499 m 452 847 q 336 713 452 750 l 336 704 q 435 653 400 690 q 471 562 471 616 q 411 433 471 480 q 225 386 351 386 q 40 433 128 386 l 40 562 q 224 501 140 501 q 321 574 321 501 q 291 628 321 610 q 208 646 261 646 l 132 646 l 132 754 l 195 754 q 278 772 251 754 q 306 828 306 789 q 289 871 306 854 q 237 888 272 888 q 177 875 205 888 q 110 835 149 862 l 41 930 q 135 983 83 962 q 256 1004 186 1004 q 397 961 342 1004 q 452 847 452 918 z "},"⅝":{"ha":1223,"x_min":61,"x_max":1183,"o":"m 961 991 l 411 0 l 249 0 l 799 991 l 961 991 m 951 606 q 1104 565 1047 606 q 1161 453 1161 524 q 1138 376 1161 410 q 1064 313 1116 342 q 1137 264 1115 285 q 1172 219 1160 243 q 1183 164 1183 194 q 1119 34 1183 85 q 951 -16 1054 -16 q 780 31 842 -16 q 718 160 718 79 q 742 240 718 204 q 825 307 766 276 q 739 453 739 368 q 798 565 739 524 q 951 606 857 606 m 871 160 q 890 110 871 130 q 949 91 910 91 q 1009 110 989 91 q 1029 160 1029 130 q 939 245 1029 215 q 871 160 871 215 m 950 499 q 906 483 921 499 q 890 448 890 467 q 908 403 890 420 q 951 372 926 386 q 994 401 977 385 q 1011 448 1011 418 q 997 483 1011 467 q 950 499 983 499 m 273 781 q 430 730 370 781 q 489 593 489 680 q 425 440 489 494 q 236 386 360 386 q 61 421 129 386 l 61 551 q 140 515 95 530 q 222 501 185 501 q 339 590 339 501 q 310 654 339 633 q 225 676 280 676 q 144 664 182 676 l 71 693 l 96 991 l 448 991 l 448 867 l 207 867 l 196 775 q 273 781 234 781 z "},"⅞":{"ha":1223,"x_min":45,"x_max":1145,"o":"m 900 991 l 350 0 l 188 0 l 738 991 l 900 991 m 913 606 q 1066 565 1009 606 q 1123 453 1123 524 q 1100 376 1123 410 q 1026 313 1078 342 q 1099 264 1077 285 q 1134 219 1122 243 q 1145 164 1145 194 q 1081 34 1145 85 q 913 -16 1016 -16 q 742 31 804 -16 q 680 160 680 79 q 704 240 680 204 q 787 307 728 276 q 701 453 701 368 q 760 565 701 524 q 913 606 819 606 m 833 160 q 852 110 833 130 q 911 91 872 91 q 971 110 951 91 q 991 160 991 130 q 901 245 991 215 q 833 160 833 215 m 912 499 q 868 483 883 499 q 852 448 852 467 q 870 403 852 420 q 913 372 888 386 q 956 401 939 385 q 973 448 973 418 q 959 483 973 467 q 912 499 945 499 m 110 397 l 340 867 l 45 867 l 45 991 l 498 991 l 498 890 l 281 397 l 110 397 z "},"∂":{"ha":807,"x_min":40,"x_max":761,"o":"m 761 624 q 702 296 761 448 q 545 65 644 144 q 318 -14 446 -14 q 112 58 183 -14 q 40 271 40 130 q 91 494 40 389 q 225 651 141 599 q 418 704 310 704 q 546 676 489 704 q 410 836 530 836 q 321 818 373 836 q 211 761 269 800 l 211 945 q 439 1006 326 1006 q 679 907 597 1006 q 761 624 761 809 m 326 151 q 453 245 396 151 q 532 479 510 338 q 496 532 522 515 q 433 550 469 550 q 347 513 386 550 q 283 404 308 477 q 258 254 258 330 q 326 151 258 151 z "},"∆":{"ha":914,"x_min":39,"x_max":875,"o":"m 39 121 l 339 996 l 576 996 l 875 119 l 875 0 l 39 0 l 39 121 m 457 823 q 449 784 456 813 q 428 707 441 754 q 253 175 414 661 l 661 175 l 490 696 l 483 722 q 457 823 458 810 z "},"∏":{"ha":1029,"x_min":113,"x_max":917,"o":"m 701 -310 l 701 817 l 328 817 l 328 -310 l 113 -310 l 113 991 l 917 991 l 917 -310 l 701 -310 z "},"∑":{"ha":876,"x_min":28,"x_max":869,"o":"m 28 -310 l 28 -195 l 418 371 l 39 879 l 39 991 l 829 991 l 829 821 l 317 821 l 652 375 l 300 -138 l 869 -138 l 869 -310 l 28 -310 z "},"−":{"ha":793,"x_min":60,"x_max":733,"o":"m 60 415 l 60 564 l 733 564 l 733 415 l 60 415 z "},"√":{"ha":762,"x_min":25,"x_max":865,"o":"m 450 -9 l 326 -9 l 144 490 l 25 490 l 25 635 l 245 635 l 385 250 l 717 1192 l 865 1192 l 450 -9 z "},"∞":{"ha":982,"x_min":77,"x_max":905,"o":"m 905 486 q 844 323 905 390 q 690 257 782 257 q 488 376 571 257 q 398 293 448 324 q 294 261 348 261 q 138 323 199 261 q 77 490 77 386 q 138 653 77 588 q 294 718 199 718 q 492 600 414 718 q 690 715 576 715 q 845 653 785 715 q 905 486 905 590 m 301 399 q 414 490 361 399 q 361 559 388 536 q 300 582 334 582 q 238 556 262 582 q 215 489 215 530 q 238 424 215 448 q 301 399 262 399 m 681 578 q 567 488 622 578 q 682 395 621 395 q 743 422 720 395 q 766 488 766 449 q 743 552 766 527 q 681 578 719 578 z "},"∫":{"ha":572,"x_min":0,"x_max":572,"o":"m 465 882 q 410 857 431 882 q 390 789 390 833 l 390 -77 q 323 -269 390 -203 q 132 -334 257 -334 q 0 -306 58 -334 l 0 -134 q 107 -160 62 -160 q 182 -64 182 -160 l 182 799 q 248 990 182 924 q 440 1055 313 1055 q 572 1028 514 1055 l 572 856 q 465 882 512 882 z "},"≈":{"ha":793,"x_min":60,"x_max":733,"o":"m 218 589 q 139 567 181 589 q 60 507 96 544 l 60 664 q 233 738 130 738 q 327 727 283 738 q 421 694 370 716 q 575 657 509 657 q 654 679 611 657 q 733 739 696 701 l 733 583 q 559 509 665 509 q 474 517 515 509 q 372 551 433 526 q 218 589 283 589 m 218 319 q 139 296 181 319 q 60 237 96 273 l 60 393 q 233 467 130 467 q 327 456 283 467 q 421 424 370 446 q 575 387 509 387 q 654 408 611 387 q 733 469 696 430 l 733 312 q 559 238 665 238 q 474 247 515 238 q 372 281 433 256 q 218 319 283 319 z "},"≠":{"ha":793,"x_min":60,"x_max":733,"o":"m 380 283 l 294 97 l 158 154 l 218 283 l 60 283 l 60 432 l 288 432 l 342 547 l 60 547 l 60 694 l 410 694 l 498 885 l 635 827 l 572 694 l 733 694 l 733 547 l 504 547 l 450 432 l 733 432 l 733 283 l 380 283 z "},"≤":{"ha":793,"x_min":58,"x_max":733,"o":"m 58 0 l 58 149 l 732 149 l 732 0 l 58 0 m 733 179 l 60 476 l 60 574 l 733 909 l 733 747 l 269 532 l 733 342 l 733 179 z "},"≥":{"ha":793,"x_min":60,"x_max":733,"o":"m 60 0 l 60 149 l 733 149 l 733 0 l 60 0 m 60 342 l 524 532 l 60 747 l 60 909 l 733 574 l 733 476 l 60 179 l 60 342 z "},"◊":{"ha":810,"x_min":60,"x_max":749,"o":"m 749 498 l 443 0 l 366 0 l 60 498 l 366 999 l 443 999 l 749 498 m 570 498 l 404 777 l 239 498 l 404 221 l 570 498 z "}}}
